<svg width="379" height="81" viewBox="0 0 379 81" fill="none" xmlns="http://www.w3.org/2000/svg">
<path d="M371.64 3.3351H372.354C372.691 3.3351 372.934 3.28109 373.055 3.18658C373.177 3.09206 373.244 2.95704 373.244 2.79502C373.244 2.687 373.217 2.59249 373.15 2.51148C373.096 2.43046 373.002 2.36295 372.907 2.32245C372.799 2.28194 372.597 2.25494 372.314 2.25494H371.64V3.3351ZM371.074 5.36039V1.78237H372.3C372.718 1.78237 373.029 1.80937 373.204 1.87688C373.393 1.94439 373.541 2.05241 373.649 2.21443C373.77 2.38996 373.824 2.55198 373.824 2.74101C373.824 2.99755 373.716 3.22708 373.541 3.41611C373.352 3.60514 373.109 3.72665 372.799 3.74016C372.921 3.79416 373.029 3.86167 373.109 3.92918C373.258 4.07771 373.433 4.30724 373.635 4.64479L374.067 5.34689H373.379L373.055 4.77981C372.813 4.33424 372.597 4.0642 372.449 3.94269C372.341 3.86167 372.193 3.82117 371.99 3.82117H371.653V5.34689H371.087L371.074 5.36039ZM372.53 0.742716C372.058 0.742716 371.613 0.864234 371.168 1.10727C370.723 1.3368 370.386 1.68786 370.13 2.13342C369.874 2.57899 369.752 3.03805 369.752 3.52412C369.752 4.0102 369.874 4.46926 370.13 4.90133C370.372 5.34689 370.723 5.68444 371.154 5.92748C371.599 6.17051 372.058 6.29203 372.53 6.29203C373.002 6.29203 373.473 6.17051 373.905 5.92748C374.35 5.68444 374.687 5.34689 374.93 4.90133C375.172 4.46926 375.294 4.0102 375.294 3.52412C375.294 3.03805 375.172 2.57899 374.93 2.13342C374.687 1.68786 374.336 1.3368 373.891 1.10727C373.446 0.864234 373.002 0.742716 372.53 0.742716ZM372.53 0.202637C373.082 0.202637 373.635 0.351159 374.161 0.6347C374.687 0.918242 375.105 1.3233 375.401 1.86338C375.698 2.38996 375.846 2.95704 375.846 3.53763C375.846 4.11821 375.698 4.65829 375.401 5.19837C375.105 5.72495 374.7 6.13001 374.175 6.42705C373.649 6.7241 373.096 6.87262 372.53 6.87262C371.963 6.87262 371.397 6.7241 370.885 6.42705C370.359 6.13001 369.941 5.72495 369.644 5.19837C369.348 4.67179 369.213 4.11821 369.213 3.53763C369.213 2.95704 369.361 2.40346 369.658 1.86338C369.954 1.3368 370.372 0.918242 370.898 0.6347C371.424 0.351159 371.977 0.202637 372.53 0.202637Z" fill="#174860" fill-opacity="0.1"/>
<path d="M312.869 66.1328H262.767V72.7758H312.869V66.1328Z" fill="#174860" fill-opacity="0.1"/>
<path d="M365.869 0.378056H286.86V5.67083H365.869V0.378056ZM162.211 71.4255H233.441V66.1327H162.211V71.4255ZM99.7996 53.6164H93.5841V46.4063H99.7996V53.6164ZM115.615 51.7666V28.5027C115.615 28.5027 115.831 22.1703 109.292 22.1703H84.1057C84.1057 22.1703 77.6744 21.6302 77.6744 28.5027V35.0647H93.5975C93.5975 35.0647 93.1526 31.5676 96.4289 31.5676C99.7053 31.5676 99.921 34.187 99.921 35.0647V38.5617H81.49C81.49 38.5617 77.1216 38.4537 77.1216 43.9085V57.0189C77.1216 57.0189 76.4744 62.2576 83.3372 62.2576H119.444V55.1556C119.444 55.1556 115.628 55.4796 115.628 51.7801M228.843 22.2918H214.552V58.6661C214.552 62.0551 218.044 61.7176 218.044 61.7176H235.167V53.3058H228.843V22.2783V22.2918ZM138.468 51.348V33.6604C138.468 32.5668 139.008 30.3795 141.96 30.3795C144.913 30.3795 145.345 33.3364 145.345 33.3364V51.24C145.345 51.24 144.9 54.413 141.637 54.413C138.374 54.413 138.468 51.3615 138.468 51.3615M123.192 27.5575V57.7075C123.192 57.7075 122.977 62.2982 128.639 62.2982H144.347V70.7099C144.347 70.7099 144.347 73.2213 141.07 73.2213C137.794 73.2213 137.808 70.2778 137.808 70.2778V67.2264H122.761V76.2862C122.761 76.2862 123.192 80.3233 127.332 80.3233H153.947C153.947 80.3233 158.854 81.525 158.854 73.2213V33.7955L161.47 31.0681V22.2243H128.424C128.424 22.2243 123.192 21.5762 123.192 27.5846M356.768 40.1009L369.523 22.6698H353.047L348.894 28.6242L344.647 22.5483H329.371L340.818 39.4393L317.264 71.4525H334.495L349.002 51.3615L362.633 71.2365H378.88L356.741 40.1144L356.768 40.1009ZM260.124 28.1246H262.2V21.7922H256.524V13.7045C256.524 9.43789 258.816 10.2075 258.816 10.2075H263.184V0H248.124C239.293 0 240.061 7.97967 240.061 7.97967V21.5222H235.153V28.8402C240.277 28.8402 240.061 32.3373 240.061 32.3373V78.325H256.416V32.2157C256.416 27.7331 260.124 28.0706 260.124 28.0706M208.646 30.4065C208.646 21.9947 200.139 22.3323 200.139 22.3323H166V31.9052L169.816 34.4166V62.0551H185.523V34.2005C185.523 34.2005 184.876 30.3795 188.692 30.3795C192.507 30.3795 192.292 34.0925 192.292 34.0925V59.1117C192.292 61.9471 195.015 61.9471 195.015 61.9471H211.815V54.629C208.431 54.629 208.66 52.2257 208.66 52.2257V30.4335L208.646 30.4065ZM270.249 61.7041H285.754V54.386C282.707 53.6164 282.478 50.4569 282.478 50.4569V0.33755H266.231V57.775C266.231 61.7041 270.249 61.7041 270.249 61.7041ZM305.601 31.1221C307.475 31.1221 308.985 32.2832 308.985 33.7415C308.985 35.1997 307.475 36.3608 305.601 36.3608C303.727 36.3608 302.23 35.1862 302.23 33.7415C302.23 32.2967 303.74 31.1221 305.601 31.1221ZM291.862 61.9201H318.046C324.585 61.9201 323.816 56.0197 323.816 56.0197V46.4063H308.432V50.1194C308.432 50.1194 308.217 53.0628 305.493 53.0628C302.77 53.0628 302.662 50.4434 302.662 50.4434V43.5709H323.816V30.7845C323.816 21.7247 315.754 22.4943 315.754 22.4943H296.891C286.968 22.4943 288.06 29.7044 288.06 29.7044V57.667C288.06 62.3522 291.876 61.9201 291.876 61.9201M0 71.4255H118.514V66.1327H0V71.4255ZM228.574 0.33755H214.74V19.0108H228.587V0.33755H228.574ZM53.8772 57.1269C53.8772 62.5817 58.6771 62.5817 58.6771 62.5817H74.8295V56.0197C72.4296 56.0197 69.706 53.0763 69.706 53.0763V28.8267C69.706 22.6023 63.9219 22.4943 63.9219 22.4943H1.7258V29.5963C7.72564 29.5963 7.07847 33.8495 7.07847 33.8495V61.8121H25.1859V32.3237C25.1859 31.8917 25.6308 29.3803 28.3543 29.3803C31.0778 29.3803 31.0778 32.3237 31.0778 32.3237V61.9336H47.3246V32.5533C47.3246 32.5533 46.8932 29.1643 50.4931 29.1643C54.093 29.1643 53.8772 32.5533 53.8772 32.5533V57.1269ZM208.107 0.378056H0V5.67083H208.107V0.378056Z" fill="#174860" fill-opacity="0.1"/>
</svg>
