<?xml version="1.0" encoding="utf-8"?>
<!-- Generator: Adobe Illustrator 16.0.0, SVG Export Plug-In . SVG Version: 6.00 Build 0)  -->
<!DOCTYPE svg PUBLIC "-//W3C//DTD SVG 1.1//EN" "http://www.w3.org/Graphics/SVG/1.1/DTD/svg11.dtd">
<svg version="1.1" id="Livello_1" xmlns="http://www.w3.org/2000/svg" xmlns:xlink="http://www.w3.org/1999/xlink" x="0px" y="0px"
	 width="50px" height="50px" viewBox="-0.5 -6.5 50 50" enableBackground="new -0.5 -6.5 50 50" xml:space="preserve">
<g id="Page-1">
	<path id="Fill-1" fill="#174860" d="M5.441,33.908c-0.435,0-0.849-0.089-1.227-0.248l15.629-14.206l1.093,0.993
		c0.999,0.915,2.281,1.371,3.563,1.371c1.283,0,2.562-0.456,3.559-1.367l1.097-0.996L44.785,33.66
		c-0.378,0.16-0.792,0.248-1.227,0.248H5.441L5.441,33.908z M2.652,32.22c-0.239-0.446-0.387-0.948-0.387-1.488V5.319
		c0-0.54,0.148-1.042,0.387-1.488L18.27,18.022L2.652,32.218V32.22z M43.559,2.143c0.436,0,0.85,0.088,1.227,0.247l-18.15,16.495
		c-1.199,1.093-3.073,1.093-4.27-0.003L4.214,2.39c0.378-0.159,0.792-0.248,1.227-0.248L43.559,2.143z M30.73,18.023L46.35,3.832
		c0.238,0.446,0.387,0.948,0.387,1.488v25.412c0,0.54-0.148,1.041-0.387,1.488L30.73,18.025V18.023z M43.559,0.025H5.441
		c-2.919,0-5.294,2.375-5.294,5.294V30.73c0,2.92,2.375,5.295,5.294,5.295h38.117c2.919,0,5.295-2.375,5.295-5.295V5.319
		C48.854,2.4,46.478,0.025,43.559,0.025L43.559,0.025z"/>
</g>
</svg>
