<?xml version="1.0" encoding="utf-8"?>
<!-- Generator: Adobe Illustrator 16.0.0, SVG Export Plug-In . SVG Version: 6.00 Build 0)  -->
<!DOCTYPE svg PUBLIC "-//W3C//DTD SVG 1.1//EN" "http://www.w3.org/Graphics/SVG/1.1/DTD/svg11.dtd">
<svg version="1.1" id="Livello_1" xmlns="http://www.w3.org/2000/svg" xmlns:xlink="http://www.w3.org/1999/xlink" x="0px" y="0px"
	 width="50px" height="50px" viewBox="-2 -6.5 50 50" enableBackground="new -2 -6.5 50 50" xml:space="preserve">
<title>Group 3</title>
<g id="Page-1">
	<g id="CONTATTI" transform="translate(-554.000000, -1157.000000)">
		<g id="Group-11" transform="translate(429.333333, 1100.392588)">
			<g id="Group-3" transform="translate(125.591799, 57.206098)">
				<g id="Clip-2">
				</g>
				<defs>
					<filter id="Adobe_OpacityMaskFilter" filterUnits="userSpaceOnUse" x="-2.437" y="-1.803" width="49.023" height="39.408">
						<feColorMatrix  type="matrix" values="1 0 0 0 0  0 1 0 0 0  0 0 1 0 0  0 0 0 1 0"/>
					</filter>
				</defs>
				<mask maskUnits="userSpaceOnUse" x="-2.437" y="-1.803" width="49.023" height="39.408" id="mask-2">
					<g filter="url(#Adobe_OpacityMaskFilter)">
						<polygon id="path-1" fill="#FFFFFF" points="-2.437,-1.803 46.587,-1.803 46.587,37.605 -2.437,37.605 						"/>
					</g>
				</mask>
				<path id="Fill-1" mask="url(#mask-2)" fill="#174860" d="M31.353,35.42l1.205,0.009c1.784-0.016,3.582-0.175,5.344-0.475
					c0.023-0.003,0.047-0.007,0.07-0.009c0.032-0.003,0.065-0.009,0.1-0.016c0.063-0.018,0.127-0.027,0.191-0.033
					c0.032-0.002,0.061-0.01,0.091-0.017l0.448-0.097c1.199-0.313,2.336-0.945,3.262-1.829c0.023-0.028,0.049-0.056,0.075-0.081
					c1.463-1.414,2.269-3.32,2.269-5.366c0-0.285-0.018-0.586-0.054-0.892c-0.118-1.01-0.429-1.958-0.926-2.82
					c-0.335-0.59-0.744-1.127-1.219-1.601c-0.151-0.151-0.312-0.298-0.479-0.44L31.4,24.105l-0.562,2.492
					c-0.119,0.536-0.622,0.9-1.168,0.844c-0.493-0.048-0.986-0.113-1.465-0.193c-1.784-0.282-3.546-0.761-5.229-1.422
					c-0.725-0.284-1.452-0.613-2.159-0.979c-2.373-1.193-4.546-2.768-6.451-4.673c-0.213-0.205-0.433-0.434-0.652-0.669
					c0-0.001-0.001-0.002-0.002-0.002c-0.083-0.09-0.165-0.18-0.247-0.27c-0.889-0.983-1.706-2.043-2.433-3.154
					c-0.005-0.008-0.011-0.018-0.016-0.026c-0.021-0.032-0.043-0.065-0.064-0.099c-0.031-0.047-0.062-0.094-0.092-0.143
					c-0.234-0.371-0.458-0.738-0.673-1.121c-0.092-0.164-0.14-0.35-0.14-0.534c0-0.11,0.017-0.22,0.05-0.327
					c0.091-0.288,0.297-0.525,0.569-0.654l1.513-0.724L10.235,2.447c0-0.001,0-0.003-0.001-0.004L9.93,0.862
					c-0.6-0.23-1.222-0.378-1.858-0.438c-0.04-0.004-0.08-0.01-0.119-0.019L7.871,0.397C7.694,0.382,7.483,0.376,7.264,0.376
					c-2.176,0-4.241,0.939-5.665,2.578c0,0,0,0,0,0.001C1.598,2.956,1.597,2.957,1.596,2.958C1.593,2.961,1.59,2.965,1.588,2.968
					C0.421,4.304-0.231,6.005-0.259,7.776C-0.26,7.814-0.26,7.853-0.26,7.894c0,0.51,0.052,1.02,0.154,1.518l0.089,0.396
					c0.231,1.002,0.508,1.988,0.819,2.921c1.606,4.833,4.364,9.305,7.977,12.933l0.052,0.051c3.586,3.58,7.997,6.325,12.76,7.947
					c3.101,1.062,6.358,1.655,9.684,1.764L31.353,35.42z M32.561,37.605l-1.239-0.007c-0.012,0-0.108,0-0.118-0.001
					c-3.543-0.116-7.014-0.749-10.316-1.879c-5.073-1.728-9.77-4.649-13.582-8.454c-0.005-0.004-0.01-0.008-0.016-0.014l-0.06-0.061
					c-3.845-3.861-6.784-8.626-8.495-13.776c-0.332-0.996-0.627-2.049-0.876-3.127l-0.095-0.423
					C-2.37,9.206-2.437,8.549-2.437,7.892c0-2.348,0.852-4.611,2.397-6.371c1.833-2.11,4.498-3.323,7.304-3.323
					c0.318,0,0.586,0.012,0.843,0.035c0.093,0.01,0.166,0.019,0.23,0.03c1.045,0.105,2.06,0.39,3.018,0.843
					c0.314,0.148,0.539,0.438,0.604,0.779l0.413,2.146l0,0l2.104,10.832c0.013,0.069,0.02,0.14,0.02,0.208
					c0,0.413-0.236,0.799-0.619,0.982l-1.193,0.571c0.005,0.007,0.009,0.016,0.015,0.023c0.761,1.196,1.639,2.332,2.607,3.373
					c0.192,0.208,0.385,0.407,0.585,0.6c1.756,1.756,3.741,3.192,5.916,4.287c0.652,0.336,1.308,0.635,1.965,0.892
					c1.536,0.603,3.146,1.041,4.784,1.299c0.124,0.021,0.25,0.041,0.375,0.061l0.495-2.198c0.093-0.409,0.411-0.729,0.817-0.823
					l1.661-0.382l9.856-2.24c0.312-0.07,0.642,0,0.896,0.19c0.391,0.295,0.76,0.612,1.093,0.948c0.613,0.614,1.141,1.307,1.57,2.062
					c0.641,1.113,1.044,2.341,1.198,3.645c0.045,0.393,0.068,0.777,0.068,1.146c0,2.604-1.014,5.036-2.854,6.856
					c-0.023,0.027-0.048,0.055-0.075,0.08c-1.209,1.183-2.71,2.032-4.343,2.454l-0.456,0.102c-0.099,0.025-0.204,0.045-0.312,0.057
					c-0.009,0.003-0.018,0.005-0.025,0.007l0,0c-0.107,0.019-0.198,0.034-0.282,0.044c-1.869,0.316-3.776,0.484-5.666,0.5H32.561z"
					/>
			</g>
		</g>
	</g>
</g>
</svg>
