<?xml version="1.0" encoding="utf-8"?>
<!-- Generator: Adobe Illustrator 16.0.0, SVG Export Plug-In . SVG Version: 6.00 Build 0)  -->
<!DOCTYPE svg PUBLIC "-//W3C//DTD SVG 1.1//EN" "http://www.w3.org/Graphics/SVG/1.1/DTD/svg11.dtd">
<svg version="1.1" id="Livello_1" xmlns="http://www.w3.org/2000/svg" xmlns:xlink="http://www.w3.org/1999/xlink" x="0px" y="0px"
	 width="50px" height="50px" viewBox="0.5 0.5 50 50" enableBackground="new 0.5 0.5 50 50" xml:space="preserve">
<path fill="#174860" d="M49.831,23.02c-0.08-0.643-0.159-1.285-0.265-1.924c-1.555-9.433-8.852-17.228-18.158-19.397
	c-0.673-0.157-1.353-0.278-2.033-0.4c-0.294-0.053-0.586-0.106-0.879-0.161H22.95c-0.293,0.056-0.588,0.11-0.883,0.164
	c-0.661,0.12-1.32,0.24-1.973,0.393C10.76,3.896,3.438,11.738,1.875,21.207c-0.907,5.494-0.002,10.804,2.688,15.778
	c0.241,0.447,0.311,1.021,0.182,1.5c-0.811,3.016-1.632,6.029-2.455,9.043l-0.53,1.944l0.623-0.169
	c1.166-0.315,2.33-0.631,3.498-0.938c2.392-0.632,4.786-1.26,7.183-1.868c0.451-0.116,0.988-0.051,1.387,0.155
	c4.185,2.172,8.64,3.077,13.248,2.696c5.496-0.458,10.339-2.588,14.395-6.33c4.064-3.749,6.594-8.434,7.518-13.923
	c0.096-0.562,0.159-1.131,0.224-1.699c0.032-0.276,0.062-0.553,0.098-0.828v-2.74L49.831,23.02z M40.564,41.504
	c-3.706,3.398-8.145,5.314-13.193,5.696c-0.584,0.044-1.161,0.067-1.733,0.067c-4.025,0-7.882-1.101-11.463-3.269l-0.003-0.076
	c-0.015-0.001-0.031-0.001-0.045-0.002v0.044c0,0-0.017,0.001-0.057,0.011c-1.795,0.482-3.59,0.952-5.386,1.421l-1.601,0.419
	c-0.092,0.023-0.183,0.042-0.3,0.066L4.87,46.301l1.769-6.531c0.216-0.802,0.431-1.603,0.672-2.396
	c-1.833-2.842-2.963-5.827-3.391-8.957c-0.839-6.149,0.615-11.725,4.322-16.569c3.565-4.66,8.294-7.483,14.055-8.39
	c1.172-0.185,2.36-0.278,3.532-0.278c7.861,0,14.929,4.079,18.909,10.91C50.017,23.14,48.299,34.413,40.564,41.504z"/>
<path fill-rule="evenodd" clip-rule="evenodd" fill="#174860" d="M13.97,22.337c0.597,1.696,1.651,3.163,2.68,4.521
	c3.525,4.657,7.21,7.525,11.597,9.028l0.452,0.156c1.228,0.428,2.387,0.816,3.707,0.771c0.141,0.006,0.229,0.008,0.314,0.008
	c1.028,0,2.109-0.36,3.305-1.099c1.194-0.741,1.814-1.795,1.952-3.317c0.082-0.909,0.082-0.909-0.73-1.312
	c-0.176-0.087-0.35-0.172-0.525-0.254l-1.155-0.554c-0.963-0.463-1.927-0.925-2.901-1.361c-0.22-0.099-0.334-0.12-0.391-0.12
	c-0.042,0-0.118,0-0.391,0.346c-0.627,0.793-1.261,1.581-1.911,2.356c-0.336,0.403-0.859,0.852-1.865,0.454
	c-3.793-1.511-6.782-4.069-8.885-7.609c-0.541-0.911-0.417-1.338,0.199-2.088c0.442-0.536,1.008-1.248,1.471-2.003
	c0.065-0.106,0.089-0.398,0.026-0.562c-0.458-1.175-0.947-2.338-1.435-3.5l-0.614-1.468c-0.27-0.65-0.604-0.674-0.958-0.642
	c-0.271,0.024-0.551,0.012-0.826-0.004l-0.168-0.006c-0.566,0-1.05,0.231-1.523,0.728C13.392,16.907,12.926,19.371,13.97,22.337z"/>
</svg>
