<svg width="136.000000pt" height="133.000000pt" viewBox="0 0 136.000000 133.000000" xmlns="http://www.w3.org/2000/svg">
  <g transform="translate(0.000000,133.000000) scale(0.100000,-0.100000)" fill="#f2f2f3" stroke="none">
    <path d="M0 665 l0 -665 680 0 680 0 0 665 0 665 -680 0 -680 0 0 -665z m525
368 c5 -13 13 -23 17 -23 9 0 48 -37 48 -46 0 -10 28 -34 39 -34 6 0 11 7 11
15 0 8 -4 15 -10 15 -5 0 -10 9 -10 20 l0 20 16 0 c8 0 22 -7 30 -15 l15 -15
-15 0 c-9 0 -16 -7 -16 -15 0 -8 7 -15 15 -15 8 0 15 5 15 10 0 6 7 10 15 10
l15 0 1 23 1 22 5 -17 c2 -10 11 -18 19 -18 8 0 14 8 14 18 l0 17 8 -12 8 -12
52 -3 52 -3 0 -19 c0 -11 6 -27 14 -35 l14 -16 -9 -49 -9 -50 -30 -29 c-17
-16 -30 -33 -30 -38 0 -5 -7 -9 -15 -9 -19 0 -19 -17 -1 -36 19 -18 36 -18 36
1 0 8 5 15 10 15 6 0 10 -4 10 -10 0 -5 7 -10 15 -10 l15 0 0 40 0 40 14 0 c7
0 19 -7 26 -15 14 -17 61 -20 88 -6 9 5 36 14 60 20 23 7 42 16 42 21 0 6 16
10 35 10 l35 0 0 -14 c0 -8 5 -16 12 -18 19 -7 0 -26 -32 -33 l-30 -7 0 -14
c0 -19 -19 -18 -26 1 -4 8 -13 15 -21 15 l-15 0 4 -18 5 -18 -28 4 c-16 2 -29
0 -29 -4 0 -5 -13 -15 -30 -22 l-30 -14 0 -19 0 -19 -17 -1 c-10 -1 -26 0 -36
0 -9 1 -20 -5 -23 -13 -3 -9 -13 -16 -20 -16 -8 0 -18 -8 -21 -17 -4 -10 -15
-27 -25 -37 -32 -35 -17 -106 22 -106 11 0 20 5 20 10 0 6 5 10 10 10 l10 0
-1 -37 c-1 -21 -3 -30 -6 -20 -5 21 -33 23 -33 2 0 -8 5 -15 11 -15 l10 0 -3
-22 -3 -23 -27 -3 c-33 -4 -68 13 -68 33 0 8 -6 15 -14 15 -7 0 -16 9 -19 20
l-5 20 -62 -2 -61 -2 4 -16 c2 -9 -4 -28 -14 -41 l-18 -24 6 22 5 23 -17 0
-17 0 -5 -20 -5 -20 -24 -6 c-13 -3 -24 -12 -24 -18 0 -7 -17 -18 -37 -24
l-37 -12 -10 10 -9 9 17 44 17 44 25 11 c13 7 27 19 30 27 4 8 11 15 16 15 18
0 68 59 68 80 l0 20 -15 0 c-8 0 -15 -7 -15 -16 0 -19 -28 -49 -38 -40 -3 4
-1 10 5 14 6 4 14 19 18 34 l7 28 -26 10 c-14 5 -26 16 -26 24 l0 14 -30 7
-30 7 -7 26 c-7 30 -47 72 -67 72 l-13 0 -7 53 c-9 78 -7 146 5 168 16 31 44
56 57 51 7 -2 27 12 45 32 l32 36 20 -3 c11 -1 24 -12 30 -24z m388 -48 c4 -8
2 -17 -3 -20 -6 -4 -10 -4 -10 -1 0 2 -3 11 -6 20 l-6 16 10 0 c5 0 12 -7 15
-15z m52 -124 c-3 -12 -10 -21 -15 -21 -4 0 -3 11 3 24 14 29 22 27 12 -3z
m-562 -310 c2 -22 1 -41 -1 -41 -2 0 -10 6 -18 14 l-14 14 11 32 c6 17 13 29
16 27 2 -3 5 -23 6 -46z m87 -91 c0 -5 -4 -10 -10 -10 -5 0 -10 5 -10 10 0 6
5 10 10 10 6 0 10 -4 10 -10z m-80 -74 c0 -2 -7 -9 -15 -16 l-15 -13 6 17 c3
9 10 16 15 16 5 0 9 -2 9 -4z m287 -3 c-4 -3 -10 -3 -14 0 -3 4 0 7 7 7 7 0
10 -3 7 -7z m37 -42 c3 -5 -1 -11 -9 -14 l-14 -6 6 15 c6 16 10 17 17 5z
m-357 -33 l-5 -13 -1 19 c-1 11 2 17 5 13 3 -3 4 -12 1 -19z m318 2 c-3 -5
-13 -10 -21 -10 -8 0 -12 5 -9 10 3 6 13 10 21 10 8 0 12 -4 9 -10z m-138 -6
c-3 -3 -12 -4 -19 -1 l-13 5 19 1 c11 1 17 -2 13 -5z m272 -10 c2 -2 2 -7 -1
-10 -4 -3 -19 2 -35 11 l-28 16 30 -6 c16 -4 32 -9 34 -11z m-169 -24 c0 -5
-4 -10 -10 -10 -5 0 -10 5 -10 10 0 6 5 10 10 10 6 0 10 -4 10 -10z m-183 -17
c-4 -3 -10 -3 -14 0 -3 4 0 7 7 7 7 0 10 -3 7 -7z m-77 -23 c0 -5 -4 -10 -10
-10 -5 0 -10 5 -10 10 0 6 5 10 10 10 6 0 10 -4 10 -10z m347 -6 c-3 -3 -12
-4 -19 -1 l-13 5 19 1 c11 1 17 -2 13 -5z" />
    <path d="M487 873 c-3 -5 -8 -34 -12 -65 l-7 -58 11 0 c6 0 11 -9 11 -20 l0
-20 15 0 15 0 0 25 c0 14 -4 25 -10 25 -5 0 -10 5 -10 11 l0 10 23 -3 c23 -4
23 -5 12 -51 l-7 -27 26 0 26 0 0 15 c0 8 7 15 15 15 22 0 18 27 -5 33 -11 3
-20 12 -20 20 l0 15 -25 6 -25 6 0 35 0 35 -14 0 c-8 0 -17 -3 -19 -7z" />
    <path d="M636 764 c-3 -9 -6 -24 -6 -35 l0 -19 15 0 c8 0 15 6 15 13 0 6 3 22
6 35 l6 22 -15 0 c-8 0 -18 -7 -21 -16z" />
    <path d="M720 764 c0 -9 -9 -18 -20 -21 -11 -3 -20 -11 -20 -18 0 -8 -9 -17
-20 -20 l-20 -6 0 -20 0 -19 31 0 31 0 5 20 c3 11 11 20 18 20 13 0 25 30 25
63 l0 17 -15 0 c-8 0 -15 -7 -15 -16z" />
    <path d="M520 675 l0 -15 30 0 30 0 0 15 0 15 -30 0 -30 0 0 -15z" />
    <path d="M550 615 l0 -25 15 0 15 0 0 25 0 25 -15 0 -15 0 0 -25z" />
  </g>
  <g transform="translate(0.000000,133.000000) scale(0.100000,-0.100000)" fill="#f3f8fb" stroke="none">
    <path d="M430 1080 c0 -7 3 -10 7 -7 3 4 3 10 0 14 -4 3 -7 0 -7 -7z" />
    <path d="M505 1070 c-8 -13 5 -13 25 0 l15 10 -17 0 c-9 0 -20 -4 -23 -10z" />
    <path d="M455 1060 c3 -5 10 -10 16 -10 5 0 9 5 9 10 0 6 -7 10 -16 10 l-15 0
6 -10z" />
    <path d="M473 1035 c-3 -9 -3 -18 0 -22 10 -10 37 6 37 22 0 20 -29 20 -37 0z" />
    <path d="M410 1030 c0 -7 3 -10 7 -7 3 4 3 10 0 14 -4 3 -7 0 -7 -7z" />
    <path d="M336 987 c2 -11 -2 -29 -8 -41 -16 -29 -20 -54 -9 -61 5 -3 13 4 16
16 4 12 23 39 42 60 l35 39 -16 6 -17 7 -15 -19 -14 -19 5 16 6 16 -15 0 -14
0 4 -20z" />
    <path d="M574 998 l-7 -11 11 7 12 7 0 -25 c0 -14 5 -37 12 -51 l11 -25 18 0
c10 0 38 14 63 31 l44 31 46 5 c49 6 73 22 34 24 -13 1 -29 1 -37 0 -7 -2 -10
2 -7 7 l5 9 -45 1 -45 0 6 -21 c2 -12 2 -16 -1 -9 -3 6 -12 12 -20 12 -8 0
-14 5 -14 10 0 14 -77 13 -86 -2z m66 -37 c0 -6 -4 -13 -10 -16 l-10 -6 0 15
c0 9 5 16 10 16 6 0 10 -4 10 -9z" />
    <path d="M845 979 c7 -38 26 -69 42 -69 15 0 17 16 3 25 -5 3 -10 13 -10 21
l0 15 11 -7 11 -6 -4 18 -4 19 -18 -3 -18 -3 7 10 6 11 -16 0 -15 0 5 -31z" />
    <path d="M928 998 c-3 -7 3 -26 13 -43 11 -16 19 -25 19 -20 0 6 5 3 11 -5
l11 -15 -6 18 c-3 10 -6 30 -6 43 l0 25 -10 -6 c-5 -3 -10 -1 -10 4 0 15 -17
14 -22 -1z" />
    <path d="M270 914 c0 -17 22 -14 28 4 2 7 -3 12 -12 12 -9 0 -16 -7 -16 -16z" />
    <path d="M910 860 l8 -29 -16 -13 -16 -13 8 13 8 13 -21 -13 -21 -13 0 -22 0
-22 -15 5 -15 6 0 -17 0 -16 10 6 10 6 0 -17 0 -18 -12 12 c-7 7 -18 12 -26
12 l-14 0 6 -15 5 -15 -24 -6 c-14 -3 -25 -12 -25 -19 0 -19 -15 -26 -34 -19
l-17 6 12 14 c6 7 8 18 4 23 l-6 11 14 -6 15 -5 17 45 17 45 -15 16 c-9 8 -25
15 -37 15 -29 0 -72 -24 -90 -50 -8 -12 -23 -26 -34 -32 l-18 -10 7 11 7 12
-28 47 c-40 70 -64 80 -70 29 l-3 -27 22 -12 c12 -7 27 -11 32 -10 6 1 2 -4
-8 -12 l-19 -14 4 -19 c3 -18 23 -21 23 -4 0 5 4 13 8 17 l8 9 -5 -30 c-2 -17
-5 -31 -5 -33 -1 -1 -11 4 -24 13 -13 8 -26 12 -30 9 -3 -4 -4 4 -1 17 3 13 6
31 7 39 l2 15 -22 1 -23 1 0 -19 0 -19 12 7 11 7 -7 -11 c-10 -16 4 -62 19
-62 l13 0 -5 -19 c-6 -22 23 -71 42 -71 l13 0 4 -30 c3 -16 2 -30 -2 -30 -4 0
-38 29 -76 65 -38 36 -75 65 -81 65 -7 0 -13 6 -13 13 0 6 -14 32 -30 56 -17
25 -33 62 -36 83 -4 21 -10 35 -15 32 -4 -2 -5 -12 -2 -22 l7 -17 -17 17 c-9
9 -17 21 -17 27 0 6 -4 11 -10 11 -5 0 -8 -13 -7 -28 l2 -29 15 1 c19 1 38
-39 42 -93 l3 -44 28 -1 c14 -1 32 -8 39 -15 l13 -14 -11 6 -12 7 -6 -15 -5
-15 14 0 c7 0 17 -4 20 -10 l6 -10 -15 6 -16 6 0 -10 c0 -6 -8 -9 -17 -8 -10
2 -21 -2 -25 -8 -10 -15 -10 -28 1 -22 4 3 13 -6 19 -19 7 -14 19 -25 28 -25
l17 0 -6 30 -6 30 18 10 19 10 12 -15 c7 -8 17 -12 24 -8 6 3 8 3 4 -2 -4 -4
-4 -13 1 -19 12 -14 16 -76 6 -98 -4 -10 -5 -25 -1 -33 l5 -15 -27 -17 c-15
-10 -30 -22 -34 -28 l-8 -10 0 11 c0 6 7 17 15 24 20 17 19 40 -2 40 l-18 0
13 -9 13 -8 -15 -12 -15 -13 1 -34 c1 -19 -4 -40 -9 -45 l-11 -11 9 -27 9 -26
24 0 c13 0 22 4 19 9 l-6 8 23 -7 23 -7 -7 10 c-3 5 4 12 15 15 l21 6 -7 10
-6 11 15 -6 16 -6 0 12 0 11 20 -6 20 -6 0 23 0 23 -11 -15 -11 -15 4 14 4 15
37 2 c20 1 44 8 54 15 l17 14 -8 -12 -7 -13 51 0 51 0 -6 -10 c-3 -5 3 -15 15
-22 l20 -13 -22 -17 -23 -18 17 0 c9 0 18 4 20 9 2 4 13 11 25 15 l23 7 -6
-15 -6 -16 11 0 c6 0 11 7 11 17 0 9 3 13 7 10 3 -4 13 -1 22 6 l16 12 -14
-18 c-7 -9 -12 -17 -10 -18 31 -6 38 -6 33 2 -3 5 -2 9 3 9 4 0 9 11 9 25 l2
25 -13 0 c-7 0 -13 6 -12 13 0 6 -1 24 -1 40 l-2 27 -20 0 -20 0 -12 25 -11
25 11 25 12 26 21 -12 22 -11 8 13 c12 19 11 32 -1 24 -5 -3 -10 -1 -10 5 l0
11 -12 -7 -13 -7 8 9 c5 5 16 9 25 9 9 0 17 7 17 15 l0 15 16 -3 c8 -1 33 13
54 32 l38 34 18 -3 18 -4 -5 13 -5 13 19 5 c10 3 39 3 64 1 l46 -5 7 13 8 12
-11 -7 c-6 -3 -13 -2 -16 2 -3 5 12 14 32 20 l38 12 2 36 3 36 -10 -6 c-5 -3
-20 -2 -33 3 l-23 10 18 0 c10 1 16 5 13 10 -3 4 -17 7 -32 5 -15 -1 -37 1
-50 6 l-23 9 6 -15 6 -16 28 4 c16 3 29 3 29 1 0 -7 -55 -26 -69 -24 l-13 2 8
-12 7 -12 -21 5 -22 6 6 -9 c3 -5 -5 -9 -18 -9 -13 0 -30 -6 -37 -12 l-14 -13
8 13 7 14 -22 -12 c-12 -6 -24 -9 -27 -6 -3 2 -16 1 -29 -4 l-24 -10 0 31 0
31 16 -6 15 -6 -3 18 c-1 9 1 22 5 29 9 14 -1 40 -18 47 l-13 5 8 -29z m-27
-85 c-3 -9 -8 -14 -10 -11 -3 3 -2 9 2 15 9 16 15 13 8 -4z m-163 -16 l0 -20
13 7 12 7 -8 -9 c-5 -5 -13 -10 -18 -10 -5 -1 -10 -2 -11 -4 -2 -1 -17 -2 -34
-3 l-31 -2 0 11 0 11 35 -4 35 -4 -6 21 c-3 11 -1 20 4 20 5 0 9 -9 9 -21z
m435 2 c-22 -4 -64 -19 -92 -33 -62 -32 -167 -102 -203 -136 -14 -13 -37 -31
-52 -40 -16 -9 -28 -22 -28 -28 0 -7 13 -41 29 -77 l30 -66 -6 -20 c-3 -12 -9
-21 -14 -21 -4 0 -20 16 -35 36 -33 43 -72 64 -116 64 l-33 0 -40 -26 c-22
-15 -44 -32 -50 -39 -18 -22 -98 -75 -112 -75 l-14 0 22 40 c13 23 37 52 55
65 50 38 114 108 120 131 l6 22 -22 42 -22 43 7 33 c3 19 8 34 10 34 17 0 35
-15 35 -29 0 -19 52 -71 70 -71 17 0 145 61 148 71 2 5 10 9 18 9 9 0 13 3 11
8 -3 4 7 8 21 8 15 1 47 9 72 19 73 27 142 44 185 43 l40 -1 -40 -6z m-275
-20 c0 -6 -4 -12 -8 -15 -5 -3 -9 1 -9 9 0 8 4 15 9 15 4 0 8 -4 8 -9z m-183
-55 c-6 -14 -47 -19 -47 -5 0 7 43 28 49 23 2 -2 1 -10 -2 -18z m130 7 c-4 -3
-7 0 -7 7 0 7 3 10 7 7 3 -4 3 -10 0 -14z m-280 -20 c-4 -3 -10 -3 -14 0 -3 4
0 7 7 7 7 0 10 -3 7 -7z m-22 -123 l6 -10 -15 0 c-9 0 -16 5 -16 10 0 6 4 10
9 10 6 0 13 -4 16 -10z m45 -37 c0 -7 -6 -12 -12 -10 -7 1 -12 -4 -10 -10 1
-7 -3 -12 -10 -10 -7 1 -13 -4 -14 -10 -3 -23 -4 -24 -14 -18 l-11 7 12 14 c6
7 9 21 5 29 l-6 16 10 -6 c6 -3 10 -2 10 2 0 5 9 9 20 9 11 0 20 -6 20 -13z
m80 -125 l0 -10 -15 12 c-8 7 -15 14 -15 16 0 2 7 1 15 -2 8 -4 15 -11 15 -16z
m37 15 c-4 -3 -10 -3 -14 0 -3 4 0 7 7 7 7 0 10 -3 7 -7z m38 -2 c3 -5 1 -12
-5 -16 l-10 -6 0 15 c0 18 6 21 15 7z" />
    <path d="M673 683 c4 -3 10 -3 14 0 3 4 0 7 -7 7 -7 0 -10 -3 -7 -7z" />
    <path d="M470 845 c0 -14 5 -25 10 -25 6 0 10 3 11 8 0 4 2 15 4 25 l3 17 -14
0 -14 0 0 -25z" />
    <path d="M1060 840 c0 -5 5 -10 11 -10 5 0 7 5 4 10 -3 6 -8 10 -11 10 -2 0
-4 -4 -4 -10z" />
    <path d="M300 780 c0 -7 3 -10 7 -7 3 4 3 10 0 14 -4 3 -7 0 -7 -7z" />
    <path d="M1213 710 l-2 -20 10 5 c11 7 12 35 1 35 -4 0 -8 -9 -9 -20z" />
    <path d="M1190 710 c0 -7 3 -10 7 -7 3 4 3 10 0 14 -4 3 -7 0 -7 -7z" />
    <path d="M330 636 l0 -15 19 2 19 1 -5 13 c-7 18 -33 17 -33 -1z" />
    <path d="M993 632 l-11 -19 14 0 c7 0 11 4 8 9 -3 4 0 8 5 8 6 0 11 5 11 10 0
16 -14 12 -27 -8z" />
    <path d="M1045 620 c-3 -5 -1 -10 4 -10 6 0 11 5 11 10 0 6 -2 10 -4 10 -3 0
-8 -4 -11 -10z" />
    <path d="M426 602 c-3 -6 -1 -14 5 -17 14 -9 20 -2 10 14 l-8 13 -7 -10z" />
    <path d="M960 589 c0 -5 5 -7 10 -4 6 3 10 8 10 11 0 2 -4 4 -10 4 -5 0 -10
-5 -10 -11z" />
    <path d="M416 532 c-3 -5 8 -6 25 -4 16 2 29 6 29 8 0 8 -49 4 -54 -4z" />
    <path d="M920 390 c0 -7 3 -10 7 -7 3 4 3 10 0 14 -4 3 -7 0 -7 -7z" />
    <path d="M653 353 c4 -3 10 -3 14 0 3 4 0 7 -7 7 -7 0 -10 -3 -7 -7z" />
    <path d="M730 346 c0 -9 5 -16 10 -16 6 0 10 4 10 9 0 6 -4 13 -10 16 l-10 6
0 -15z" />
    <path d="M550 300 c0 -5 5 -10 10 -10 6 0 10 5 10 10 0 6 -4 10 -10 10 -5 0
-10 -4 -10 -10z" />
    <path d="M720 270 c0 -5 5 -10 10 -10 6 0 10 5 10 10 0 6 -4 10 -10 10 -5 0
-10 -4 -10 -10z" />
    <path d="M455 220 l-6 -10 15 0 c9 0 16 5 16 10 0 6 -4 10 -9 10 -6 0 -13 -4
-16 -10z" />
  </g>
  <g transform="translate(0.000000,133.000000) scale(0.100000,-0.100000)" fill="#f3f2ed" stroke="none">
    <path d="M470 1037 c0 -8 6 -14 13 -14 8 0 14 6 14 14 0 7 -6 13 -14 13 -7 0
-13 -6 -13 -13z" />
    <path d="M520 1035 c0 -8 5 -15 10 -15 6 0 10 7 10 15 0 8 -4 15 -10 15 -5 0
-10 -7 -10 -15z" />
    <path d="M550 1010 c0 -5 5 -10 10 -10 6 0 10 5 10 10 0 6 -4 10 -10 10 -5 0
-10 -4 -10 -10z" />
    <path d="M717 994 c-15 -14 -27 -26 -27 -27 0 -2 9 -3 19 -3 11 0 19 5 18 11
-1 5 8 10 21 9 25 -1 28 8 9 24 l-13 11 -27 -25z" />
    <path d="M885 1010 c-9 -15 4 -50 20 -50 21 0 27 17 15 40 -12 22 -25 26 -35
10z" />
    <path d="M653 990 c-6 -23 -23 -27 -23 -5 0 19 -16 19 -24 0 -3 -8 1 -21 9
-29 8 -7 12 -16 10 -18 -3 -3 2 -5 10 -5 8 0 15 5 15 11 0 6 14 23 32 38 l33
27 -28 1 -29 0 -5 -20z m34 3 c-4 -3 -10 -3 -14 0 -3 4 0 7 7 7 7 0 10 -3 7
-7z" />
    <path d="M960 995 c0 -8 5 -15 10 -15 6 0 10 7 10 15 0 8 -4 15 -10 15 -5 0
-10 -7 -10 -15z" />
    <path d="M320 980 c0 -5 7 -10 15 -10 8 0 15 5 15 10 0 6 -7 10 -15 10 -8 0
-15 -4 -15 -10z" />
    <path d="M830 975 c0 -8 7 -15 15 -15 8 0 15 4 15 9 0 5 -7 11 -15 15 l-15 5
0 -14z" />
    <path d="M881 941 l-13 -8 11 -22 c7 -11 16 -21 21 -21 13 0 13 27 0 35 -6 4
-8 11 -5 16 8 11 4 11 -14 0z" />
    <path d="M920 921 c0 -10 7 -24 15 -31 l14 -12 -11 -18 -12 -18 17 -17 c9 -9
17 -23 17 -31 0 -8 5 -14 10 -14 6 0 10 7 10 16 l0 16 30 -4 30 -4 -11 13 c-7
7 -22 13 -35 13 l-23 0 6 30 6 30 -22 19 c-11 10 -18 21 -14 25 3 3 -1 6 -10
6 l-17 0 0 -19z" />
    <path d="M880 834 l0 -25 10 6 c6 3 10 15 10 26 0 10 -4 19 -10 19 -5 0 -10
-12 -10 -26z" />
    <path d="M290 840 c0 -7 3 -10 7 -7 3 4 3 10 0 14 -4 3 -7 0 -7 -7z" />
    <path d="M506 835 l-5 -15 12 3 12 2 1 -27 1 -28 -15 0 -14 0 6 -15 c3 -8 1
-15 -4 -15 -6 0 -10 -5 -10 -11 0 -5 5 -7 11 -3 l11 7 -6 -21 -7 -20 17 -6 17
-7 11 12 11 12 -12 -7 -13 -7 0 10 c0 5 5 13 10 16 l11 7 -7 20 -6 21 12 -8
12 -8 -7 34 c-8 35 -26 69 -36 69 -4 0 -9 -7 -13 -15z" />
    <path d="M1215 840 c3 -5 8 -10 11 -10 2 0 4 5 4 10 0 6 -5 10 -11 10 -5 0 -7
-4 -4 -10z" />
    <path d="M1063 833 c4 -3 10 -3 14 0 3 4 0 7 -7 7 -7 0 -10 -3 -7 -7z" />
    <path d="M270 820 c0 -7 3 -10 7 -7 3 4 3 10 0 14 -4 3 -7 0 -7 -7z" />
    <path d="M460 815 c0 -8 7 -15 15 -15 8 0 15 7 15 15 0 8 -7 15 -15 15 -8 0
-15 -7 -15 -15z" />
    <path d="M700 804 c0 -7 -9 -22 -21 -33 -21 -20 -49 -66 -49 -82 0 -5 7 -6 16
-2 8 3 13 11 10 18 l-5 13 25 5 24 4 0 -10 0 -11 12 12 c6 6 13 31 14 55 l3
44 -15 0 c-8 0 -14 -6 -14 -13z" />
    <path d="M1122 810 c-47 -11 -49 -18 -4 -16 l39 1 0 13 c0 6 -1 12 -1 11 -1
-1 -16 -5 -34 -9z" />
    <path d="M889 782 c0 -4 -2 -15 -4 -25 -4 -23 17 -32 45 -17 l21 11 -11 14
c-12 14 -50 27 -51 17z" />
    <path d="M337 763 c-4 -3 -7 -17 -7 -30 l0 -24 10 6 11 7 -7 -26 -6 -26 17 0
17 0 -11 -14 -12 -14 23 -36 c13 -20 29 -36 36 -36 6 0 12 -4 12 -9 l0 -9 35
9 c19 6 40 7 47 3 l11 -7 -7 11 c-4 7 -16 17 -26 22 l-20 10 6 -14 6 -15 -29
3 -28 3 -3 16 c-2 8 -12 17 -23 20 -21 6 -25 28 -8 59 6 11 7 18 2 15 -12 -7
-46 60 -38 74 7 10 1 12 -8 2z" />
    <path d="M980 759 c0 -5 5 -7 10 -4 6 3 10 8 10 11 0 2 -4 4 -10 4 -5 0 -10
-5 -10 -11z" />
    <path d="M1103 727 l2 -12 -27 0 c-39 -1 -45 -13 -14 -25 35 -13 36 -13 36 5
0 8 7 15 15 15 19 0 19 16 0 24 l-15 5 3 -12z" />
    <path d="M838 708 c2 -10 11 -18 20 -18 8 0 12 3 9 7 -4 3 -3 11 3 18 l9 11
-23 0 -23 0 5 -18z" />
    <path d="M1213 723 c4 -3 10 -3 14 0 3 4 0 7 -7 7 -7 0 -10 -3 -7 -7z" />
    <path d="M1176 698 c3 -4 9 -8 15 -8 5 0 9 4 9 8 0 5 -7 9 -15 9 -8 0 -12 -4
-9 -9z" />
    <path d="M1213 703 c4 -3 10 -3 14 0 3 4 0 7 -7 7 -7 0 -10 -3 -7 -7z" />
    <path d="M750 675 c0 -9 5 -15 11 -13 6 2 11 8 11 13 0 5 -5 11 -11 13 -6 2
-11 -4 -11 -13z" />
    <path d="M540 659 c0 -15 18 -19 23 -6 l5 14 -14 0 c-8 0 -14 -4 -14 -8z" />
    <path d="M687 664 c-4 -4 -4 -11 -1 -16 l6 -9 16 13 16 13 -8 -12 -7 -13 15 0
c9 0 16 7 16 15 l0 15 -23 0 c-13 0 -27 -3 -30 -6z" />
    <path d="M403 647 c5 -17 34 -21 34 -4 0 7 -9 14 -19 14 l-19 2 4 -12z" />
    <path d="M966 641 c-5 -7 -15 -10 -23 -7 -8 3 -12 2 -9 -3 3 -4 -3 -16 -14
-26 l-19 -17 -13 8 -13 7 8 -8 c4 -5 0 -16 -9 -26 l-15 -17 10 -6 11 -7 34 35
c20 19 44 36 54 38 l19 3 -7 19 -7 20 -7 -13z" />
    <path d="M563 623 c-17 -6 -17 -20 0 -20 8 0 14 6 14 14 0 7 -1 13 -1 12 -1 0
-7 -3 -13 -6z" />
    <path d="M325 590 c-7 -12 2 -30 16 -30 5 0 9 9 9 20 0 21 -15 27 -25 10z" />
    <path d="M357 559 c-9 -6 -17 -15 -17 -21 0 -6 3 -8 6 -5 4 4 15 -3 25 -14
l18 -21 28 7 28 7 -18 9 c-9 6 -17 17 -17 26 0 9 -3 13 -7 10 -3 -4 -11 -3
-17 2 l-11 9 -18 -9z" />
    <path d="M817 553 c-3 -5 -1 -17 3 -28 l7 -20 11 21 c11 21 7 34 -9 34 -4 0
-10 -3 -12 -7z" />
    <path d="M490 540 c0 -7 3 -10 7 -7 3 4 3 10 0 14 -4 3 -7 0 -7 -7z" />
    <path d="M925 540 c-3 -5 -3 -14 0 -20 l6 -10 19 13 c11 6 20 15 20 19 0 12
-38 10 -45 -2z" />
    <path d="M514 513 c-12 -42 -11 -46 13 -48 l21 -2 -6 15 -5 15 15 -6 16 -5
-11 29 c-6 16 -17 29 -23 29 -7 0 -15 -12 -20 -27z" />
    <path d="M330 455 l0 -27 13 5 c6 2 12 12 12 22 0 10 -6 20 -12 23 l-13 4 0
-27z" />
    <path d="M454 465 c3 -8 1 -15 -4 -15 -6 0 -10 -4 -10 -10 0 -13 37 -13 45 0
4 6 11 7 17 4 l10 -6 -11 21 -12 21 -20 0 -21 0 6 -15z" />
    <path d="M860 450 c-13 -25 -13 -33 1 -24 l12 7 -5 -25 -5 -25 19 -12 18 -11
0 49 0 49 -15 6 -15 5 -10 -19z" />
    <path d="M960 405 c0 -19 5 -35 10 -35 6 0 10 16 10 35 0 19 -4 35 -10 35 -5
0 -10 -16 -10 -35z" />
    <path d="M642 412 l-13 -9 26 -11 26 -12 -11 20 c-6 11 -12 20 -13 20 -1 0 -8
-4 -15 -8z" />
    <path d="M372 369 l-10 -39 13 0 c7 0 16 7 19 16 3 8 9 13 14 10 4 -2 9 8 10
23 l2 27 -19 1 -19 2 -10 -40z" />
    <path d="M597 385 c-9 -6 -20 -22 -25 -35 l-8 -23 -35 -11 c-19 -6 -34 -15
-34 -20 0 -5 11 -11 24 -13 l23 -3 48 48 47 48 -12 11 -11 10 -17 -12z" />
    <path d="M702 378 l16 -14 -9 -17 c-6 -9 -19 -17 -30 -17 l-21 0 -5 -20 c-3
-11 -9 -20 -14 -20 -12 0 -11 -37 1 -45 6 -3 10 -1 10 5 0 6 6 17 13 23 23 21
72 44 85 40 16 -6 15 7 -3 31 l-15 20 13 8 12 8 -17 0 c-9 0 -25 3 -35 6 l-18
6 17 -14z" />
    <path d="M890 340 l-15 -10 12 0 c6 0 15 5 18 10 8 12 4 12 -15 0z" />
    <path d="M902 323 c-6 -3 -10 -9 -7 -13 3 -5 1 -11 -5 -15 l-10 -6 0 16 c0 9
-4 14 -9 10 -15 -8 -9 -45 7 -45 19 0 44 27 40 43 -2 8 -9 12 -16 10z" />
    <path d="M770 305 c0 -9 11 -21 25 -27 l26 -11 12 12 12 12 -19 15 c-11 8 -28
14 -38 14 l-18 0 0 -15z" />
    <path d="M457 269 c-21 -12 -13 -29 14 -29 l19 0 0 20 c0 22 -7 24 -33 9z" />
    <path d="M366 234 c-9 -23 -8 -24 19 -24 l25 0 0 20 0 20 -19 0 c-10 0 -22 -7
-25 -16z" />
    <path d="M703 233 c-28 -11 -11 -23 32 -23 45 0 60 12 29 24 -18 7 -43 7 -61
-1z" />
    <path d="M525 220 l-6 -10 30 0 c17 0 31 5 31 10 0 6 -11 10 -24 10 -14 0 -28
-4 -31 -10z" />
  </g>
  <g transform="translate(0.000000,133.000000) scale(0.100000,-0.100000)" fill="#054566" stroke="none">
    <path d="M1000 743 c-14 -3 -29 -9 -34 -14 -6 -5 -19 -9 -31 -9 -11 0 -56 -21
-99 -46 -43 -25 -93 -48 -112 -51 l-34 -6 -25 17 c-14 9 -25 24 -25 34 0 23
-19 42 -42 42 l-18 0 0 -40 0 -39 22 -45 21 -44 -16 -17 c-10 -9 -17 -20 -17
-24 0 -5 -25 -28 -55 -52 -30 -24 -55 -49 -55 -56 0 -7 -7 -13 -15 -13 l-15 0
0 -20 c0 -11 -4 -20 -10 -20 -5 0 -10 -7 -10 -16 l0 -16 33 7 c17 4 37 12 42
19 6 7 37 34 69 60 l59 48 45 -5 45 -5 34 -36 34 -36 21 0 21 0 -6 45 -5 46
-23 20 -23 20 10 25 c5 14 22 33 38 42 17 9 42 29 58 45 15 15 34 27 42 27 7
0 16 7 20 15 3 8 11 15 19 15 7 0 29 14 47 30 18 17 40 30 47 30 7 0 13 7 13
15 l0 15 -22 -1 c-13 -1 -34 -4 -48 -6z" />
  </g>
  <g transform="translate(0.000000,133.000000) scale(0.100000,-0.100000)" fill="#fbf1f1" stroke="none">
    <path d="M480 1070 c-8 -5 -18 -6 -24 -3 -5 3 -7 2 -4 -3 6 -11 -28 -45 -36
-36 -3 3 -6 -2 -6 -12 l0 -17 48 7 49 6 31 -16 c17 -9 36 -24 41 -33 l11 -18
9 14 c9 14 3 47 -7 37 -7 -7 -57 33 -57 46 0 6 -9 17 -20 24 l-20 13 -15 -9z
m20 -34 c0 -3 -4 -8 -10 -11 -5 -3 -10 -1 -10 4 0 6 5 11 10 11 6 0 10 -2 10
-4z" />
    <path d="M370 1006 c0 -2 7 -7 16 -10 l15 -6 -6 10 c-6 10 -25 14 -25 6z" />
    <path d="M694 998 l-7 -11 11 7 c7 4 12 9 12 12 0 8 -9 4 -16 -8z" />
    <path d="M720 1000 c0 -5 5 -10 10 -10 6 0 10 5 10 10 0 6 -4 10 -10 10 -5 0
-10 -4 -10 -10z" />
    <path d="M755 1000 c3 -5 8 -10 11 -10 3 0 2 5 -1 10 -3 6 -8 10 -11 10 -3 0
-2 -4 1 -10z" />
    <path d="M790 999 c0 -5 5 -7 10 -4 6 3 10 8 10 11 0 2 -4 4 -10 4 -5 0 -10
-5 -10 -11z" />
    <path d="M645 990 c-4 -6 -10 -8 -14 -6 -4 3 -13 -9 -20 -26 l-13 -30 11 -24
c12 -26 41 -33 41 -9 0 8 -7 15 -15 15 l-14 0 6 17 6 16 -14 -8 -14 -9 14 18
15 18 22 -5 23 -4 -9 17 c-5 10 -6 20 -3 24 3 3 1 6 -5 6 -6 0 -14 -5 -17 -10z" />
    <path d="M335 981 c-3 -5 -1 -12 5 -16 l10 -6 0 15 c0 18 -6 21 -15 7z" />
    <path d="M813 983 c-17 -6 -16 -23 1 -23 8 0 26 -14 40 -31 l26 -31 0 -27 c0
-36 -43 -98 -105 -151 l-49 -43 -4 13 -5 13 -18 -24 -19 -24 -10 15 -10 15 0
-12 c0 -7 -1 -16 -2 -20 -2 -3 7 -7 19 -8 12 -1 20 2 17 7 -7 11 19 10 49 -1
l24 -9 -1 21 -1 22 14 -3 c8 -2 21 0 29 3 l14 5 -11 14 -12 14 12 8 12 7 -7
-11 -7 -12 15 6 c9 3 14 9 11 14 -2 4 3 16 11 26 9 10 12 13 8 5 l-7 -14 11 7
c7 4 12 16 12 27 l0 20 11 -6 c6 -4 8 -14 5 -22 l-6 -14 11 7 11 7 -7 -22 -6
-21 14 0 c17 0 16 13 -3 53 l-14 28 11 41 11 42 -26 35 c-15 19 -20 31 -12 26
l15 -9 -14 17 c-7 9 -17 14 -22 11 -5 -3 -9 0 -9 5 0 12 -7 13 -27 4z" />
    <path d="M908 976 c-9 -7 -16 -22 -15 -34 1 -12 2 -22 2 -22 1 0 11 13 23 29
23 32 18 47 -10 27z" />
    <path d="M960 979 c0 -16 -26 -39 -35 -31 -5 4 -5 1 -1 -5 10 -18 26 -16 42 5
16 20 18 42 4 42 -5 0 -10 -5 -10 -11z" />
    <path d="M965 890 c-3 -5 -1 -10 4 -10 6 0 11 5 11 10 0 6 -2 10 -4 10 -3 0
-8 -4 -11 -10z" />
    <path d="M470 870 l-15 -9 1 -48 2 -49 22 -47 c23 -48 33 -56 46 -35 l8 12
-13 4 c-19 6 -34 51 -36 110 l-3 53 12 -4 c7 -3 13 1 13 9 0 16 -15 18 -37 4z" />
    <path d="M930 851 l-11 -21 10 0 c10 0 24 30 17 37 -2 3 -9 -5 -16 -16z" />
    <path d="M520 833 c0 -2 6 -11 14 -19 l15 -14 6 11 c4 5 4 13 1 17 -8 7 -36
12 -36 5z" />
    <path d="M690 821 c0 -5 6 -16 14 -24 l15 -14 -6 -22 -5 -21 11 0 12 0 -3 34
-2 35 -10 -6 -9 -6 6 16 6 17 -14 0 c-8 0 -15 -4 -15 -9z" />
    <path d="M745 810 c-7 -11 2 -30 13 -30 4 0 8 9 9 20 2 21 -11 27 -22 10z" />
    <path d="M1105 800 c3 -5 11 -10 16 -10 6 0 7 5 4 10 -3 6 -11 10 -16 10 -6 0
-7 -4 -4 -10z" />
    <path d="M640 789 c0 -7 -8 -18 -17 -25 -10 -7 -14 -16 -10 -20 4 -5 19 5 32
20 14 16 25 31 25 33 0 1 -7 3 -15 3 -8 0 -15 -5 -15 -11z" />
    <path d="M1045 790 c3 -5 8 -10 11 -10 3 0 2 5 -1 10 -3 6 -8 10 -11 10 -3 0
-2 -4 1 -10z" />
    <path d="M507 784 c-15 -16 -5 -29 22 -29 l28 0 -2 15 c-2 16 -36 26 -48 14z" />
    <path d="M975 760 c-3 -5 -1 -10 4 -10 6 0 11 5 11 10 0 6 -2 10 -4 10 -3 0
-8 -4 -11 -10z" />
    <path d="M930 750 c0 -5 5 -10 10 -10 6 0 10 5 10 10 0 6 -4 10 -10 10 -5 0
-10 -4 -10 -10z" />
    <path d="M646 741 c-8 -13 18 -31 31 -23 l12 8 -19 12 -19 12 -5 -9z" />
    <path d="M536 722 c-7 -11 10 -35 26 -38 l14 -2 0 18 0 17 -20 -5 -19 -5 7 11
c4 7 5 12 2 12 -3 0 -7 -4 -10 -8z" />
    <path d="M1093 711 c-31 -18 -34 -31 -6 -31 7 0 12 6 11 13 l-3 12 21 -2 21
-2 0 14 c0 19 -4 18 -44 -4z" />
    <path d="M348 688 l12 -12 12 12 12 12 -24 0 -24 0 12 -12z" />
    <path d="M398 654 c-8 -7 32 -48 49 -50 15 -3 17 12 3 21 -6 4 -8 10 -5 15 3
4 -5 6 -17 2 l-21 -5 7 11 c7 12 -6 17 -16 6z" />
    <path d="M520 644 c0 -7 3 -14 8 -16 4 -1 14 -17 23 -34 l17 -32 -19 5 -19 5
6 -16 6 -16 -10 0 c-5 0 -12 -8 -14 -18 l-5 -18 25 -2 24 -2 -5 21 -6 21 19
-5 19 -5 5 14 c3 7 0 16 -5 20 l-11 6 7 26 6 25 -13 -11 -14 -11 -12 20 c-7
11 -10 23 -8 28 3 4 -1 8 -9 8 -8 0 -15 -6 -15 -13z m17 -131 c-4 -3 -7 0 -7
7 0 7 3 10 7 7 3 -4 3 -10 0 -14z" />
    <path d="M946 618 c-32 -31 -24 -37 13 -9 13 10 22 22 20 27 -2 5 -17 -3 -33
-18z" />
    <path d="M370 610 c0 -7 3 -10 7 -7 3 4 3 10 0 14 -4 3 -7 0 -7 -7z" />
    <path d="M334 588 l-7 -11 11 7 c7 4 12 9 12 12 0 8 -9 4 -16 -8z" />
    <path d="M480 585 l-12 -15 10 0 c5 0 12 7 16 15 3 8 4 15 2 15 -2 0 -9 -7
-16 -15z" />
    <path d="M397 560 l5 -19 13 5 c7 3 16 11 18 18 l5 12 -23 2 -23 2 5 -20z" />
    <path d="M884 568 l-7 -11 11 7 c7 4 12 9 12 12 0 8 -9 4 -16 -8z" />
    <path d="M1115 550 c-8 -13 9 -20 24 -11 l13 8 -16 6 c-8 3 -18 2 -21 -3z" />
    <path d="M330 540 c0 -5 5 -10 10 -10 6 0 10 5 10 10 0 6 -4 10 -10 10 -5 0
-10 -4 -10 -10z" />
    <path d="M822 530 c-12 -10 -18 -21 -13 -24 5 -3 16 5 25 19 9 14 15 25 14 25
-2 -1 -13 -9 -26 -20z" />
    <path d="M433 513 c4 -3 10 -3 14 0 3 4 0 7 -7 7 -7 0 -10 -3 -7 -7z" />
    <path d="M330 485 c0 -8 5 -15 10 -15 6 0 10 7 10 15 0 8 -4 15 -10 15 -5 0
-10 -7 -10 -15z" />
    <path d="M517 483 c-4 -3 -7 -11 -7 -17 l0 -10 12 12 c6 6 9 14 7 17 -3 3 -9
2 -12 -2z" />
    <path d="M444 435 l-19 -14 17 -1 c9 0 20 5 23 11 4 6 14 8 22 5 l14 -6 -6 10
c-9 14 -28 12 -51 -5z" />
    <path d="M870 440 c0 -7 3 -10 7 -7 3 4 3 10 0 14 -4 3 -7 0 -7 -7z" />
    <path d="M891 428 c-1 -9 -8 -24 -17 -33 -9 -9 -14 -18 -11 -21 9 -9 39 44 34
58 l-5 13 -1 -17z" />
    <path d="M653 405 l0 -15 14 11 c7 6 13 13 13 15 0 2 -6 4 -13 4 -8 0 -14 -7
-14 -15z" />
    <path d="M695 380 c3 -5 8 -10 11 -10 3 0 2 5 -1 10 -3 6 -8 10 -11 10 -3 0
-2 -4 1 -10z" />
    <path d="M887 366 l-6 -14 15 -6 c9 -3 20 -6 25 -6 16 0 10 19 -10 29 l-19 11
-5 -14z" />
    <path d="M360 315 l0 -25 14 0 c16 0 25 19 19 38 -3 6 -11 12 -19 12 l-14 0 0
-25z" />
    <path d="M557 318 l4 -23 -11 18 c-6 9 -16 15 -21 11 l-10 -6 11 -13 10 -12
-27 4 -28 3 23 -10 23 -10 20 10 c20 11 25 35 10 44 l-9 6 5 -22z" />
    <path d="M757 329 l-18 -10 23 -19 22 -18 23 9 22 8 -6 -14 -5 -15 11 0 c14 0
14 27 0 36 -7 4 -21 8 -33 8 l-21 2 3 12 c2 14 2 14 -21 1z" />
    <path d="M638 263 c2 -13 10 -22 16 -20 17 6 13 40 -5 42 l-16 3 5 -25z" />
    <path d="M452 265 l-24 -13 12 -7 12 -7 19 21 c22 23 16 25 -19 6z" />
  </g>
  <g transform="translate(0.000000,133.000000) scale(0.100000,-0.100000)" fill="#f10304" stroke="none">
    <path d="M422 990 c-12 -11 -26 -20 -31 -20 -14 0 -41 -65 -41 -96 0 -13 5
-24 10 -24 6 0 10 -13 10 -29 0 -31 35 -101 51 -101 5 0 9 -5 9 -12 0 -7 12
-25 27 -40 27 -28 53 -37 53 -18 0 6 -12 33 -26 61 -15 27 -29 69 -31 92 l-5
42 26 24 26 25 35 -17 c19 -9 35 -23 35 -32 0 -8 5 -15 10 -15 6 0 10 -9 10
-19 l0 -20 21 -6 21 -7 26 24 c56 49 92 59 125 34 21 -16 21 -34 2 -60 -19
-25 -19 -46 -2 -46 29 0 97 103 97 146 0 13 -12 36 -26 53 l-26 31 -39 0 -40
0 -5 -15 c-4 -8 -12 -15 -20 -15 -8 0 -14 -4 -14 -9 0 -15 -70 -82 -79 -76 -5
3 -12 19 -16 35 -11 48 -34 88 -65 110 l-28 20 -39 0 -39 0 -22 -20z" />
  </g>
  <g transform="translate(0.000000,133.000000) scale(0.100000,-0.100000)" fill="#e9f1f1" stroke="none">
    <path d="M590 990 l-9 -17 14 0 13 0 -6 16 -6 16 16 -13 16 -13 5 14 5 13 -20
0 c-11 0 -23 -8 -28 -16z" />
    <path d="M650 1000 c0 -5 5 -10 10 -10 6 0 10 5 10 10 0 6 -4 10 -10 10 -5 0
-10 -4 -10 -10z" />
    <path d="M752 980 l-12 -20 14 0 c19 0 27 13 17 28 l-7 11 -12 -19z" />
    <path d="M823 983 c4 -3 10 -3 14 0 3 4 0 7 -7 7 -7 0 -10 -3 -7 -7z" />
    <path d="M337 966 c-3 -8 -2 -18 3 -21 13 -8 20 9 11 24 l-8 13 -6 -16z" />
    <path d="M847 967 l-5 -13 19 0 c22 0 25 12 5 19 -8 3 -16 0 -19 -6z" />
    <path d="M681 960 l-13 -7 17 -7 c23 -8 35 -8 35 3 0 13 -25 20 -39 11z" />
    <path d="M640 941 c0 -6 5 -11 12 -11 l12 0 -12 -12 c-14 -14 -16 -28 -3 -28
5 0 11 9 14 20 l5 19 -14 12 -14 11 0 -11z" />
    <path d="M920 934 l0 -15 10 6 c6 4 8 11 5 16 -9 14 -15 11 -15 -7z" />
    <path d="M616 923 l-7 -18 12 12 c7 7 10 15 7 18 -3 3 -9 -2 -12 -12z" />
    <path d="M281 914 l1 -19 5 13 c3 7 2 16 -1 19 -3 4 -6 -2 -5 -13z" />
    <path d="M326 911 c-4 -7 -5 -15 -2 -18 9 -9 19 4 14 18 l-4 13 -8 -13z" />
    <path d="M271 864 l1 -19 5 13 c3 7 2 16 -1 19 -3 4 -6 -2 -5 -13z" />
    <path d="M505 861 c-3 -5 -1 -12 5 -16 5 -3 10 -11 10 -16 0 -6 -4 -7 -10 -4
-5 3 -10 2 -10 -4 0 -5 4 -12 9 -15 5 -3 14 8 20 26 6 17 11 33 11 34 0 8 -29
3 -35 -5z" />
    <path d="M710 831 c0 -10 28 -41 37 -41 3 0 2 7 -1 16 l-6 17 14 -13 15 -12
-14 -15 c-9 -8 -12 -19 -9 -24 l6 -10 15 12 14 13 -6 25 c-4 14 -12 29 -18 33
-17 11 -47 10 -47 -1z" />
    <path d="M320 826 c0 -14 21 -58 26 -54 8 8 -7 58 -17 58 -5 0 -9 -2 -9 -4z" />
    <path d="M480 824 c0 -7 7 -27 15 -45 8 -19 14 -29 15 -23 0 7 -7 27 -15 45
-8 19 -14 29 -15 23z" />
    <path d="M546 814 l-6 -15 10 6 c12 8 31 -30 24 -48 -3 -8 -1 -18 5 -22 l11
-6 -7 18 -6 18 14 -13 14 -13 -15 -12 c-15 -12 -21 -34 -21 -72 l0 -20 -14 18
-13 18 2 -25 c0 -13 5 -22 9 -19 4 3 15 -1 24 -9 l16 -13 -5 29 c-3 16 -1 43
5 59 l10 31 8 -22 c9 -24 29 -30 29 -8 0 8 -7 17 -16 20 l-16 6 5 14 c3 8 3
16 -1 18 -4 2 -15 20 -24 41 -19 40 -32 47 -42 21z" />
    <path d="M1105 825 c6 -2 23 -6 39 -10 l30 -6 -15 -11 -14 -10 18 6 c10 3 24
6 30 6 7 1 -3 7 -22 15 -18 8 -43 15 -55 14 -11 0 -16 -2 -11 -4z" />
    <path d="M960 811 c0 -17 18 -21 24 -6 l5 15 -14 0 c-8 0 -15 -4 -15 -9z" />
    <path d="M1035 800 c4 -6 11 -8 16 -5 14 9 11 15 -7 15 l-15 0 6 -10z" />
    <path d="M688 786 c-22 -16 -23 -26 -4 -26 7 0 16 9 19 20 3 11 4 20 4 20 -1
0 -10 -7 -19 -14z" />
    <path d="M720 779 c0 -5 5 -7 10 -4 6 3 10 8 10 11 0 2 -4 4 -10 4 -5 0 -10
-5 -10 -11z" />
    <path d="M853 762 l-1 -26 10 18 10 18 -8 8 -9 9 -2 -27z" />
    <path d="M1202 782 c-14 -10 -25 -52 -13 -52 5 0 12 12 16 27 l6 27 10 -15 9
-14 0 18 c0 19 -8 21 -28 9z" />
    <path d="M1095 770 l-6 -10 15 0 c9 0 16 5 16 10 0 6 -4 10 -9 10 -6 0 -13 -4
-16 -10z" />
    <path d="M1045 760 l-6 -10 15 0 c9 0 16 5 16 10 0 6 -4 10 -9 10 -6 0 -13 -4
-16 -10z" />
    <path d="M897 753 c-4 -3 -7 -12 -7 -19 l0 -13 17 6 17 7 -12 4 c-7 2 -10 8
-6 13 6 10 0 12 -9 2z" />
    <path d="M970 756 c0 -2 7 -7 16 -10 l15 -6 -6 10 c-6 10 -25 14 -25 6z" />
    <path d="M1145 750 c4 -6 11 -8 16 -5 14 9 11 15 -7 15 l-15 0 6 -10z" />
    <path d="M341 732 l-10 -19 12 0 c7 0 13 9 13 19 0 10 -1 18 -3 18 -1 0 -7 -8
-12 -18z" />
    <path d="M530 741 c0 -5 5 -13 10 -16 6 -3 10 -2 10 4 0 5 -4 13 -10 16 -5 3
-10 2 -10 -4z" />
    <path d="M938 743 c6 -2 10 -9 6 -14 -3 -5 2 -9 10 -9 9 0 16 4 16 9 0 9 -25
22 -38 20 -4 0 -1 -3 6 -6z" />
    <path d="M810 715 c-7 -9 -18 -14 -24 -12 l-12 5 0 -19 c0 -23 14 -25 22 -4 4
8 11 12 17 8 l10 -6 -7 11 -6 11 17 10 c10 6 13 11 7 11 -6 0 -17 -7 -24 -15z" />
    <path d="M1148 723 c7 -3 16 -2 19 1 4 3 -2 6 -13 5 l-19 -1 13 -5z" />
    <path d="M657 713 c-4 -3 -7 -11 -7 -17 l0 -10 12 12 c6 6 9 14 7 17 -3 3 -9
2 -12 -2z" />
    <path d="M700 711 c0 -6 4 -13 10 -16 l10 -6 -6 15 c-7 18 -14 21 -14 7z" />
    <path d="M1115 710 c3 -4 14 -10 25 -13 11 -3 18 -2 15 3 -3 4 -14 10 -25 13
-11 3 -18 2 -15 -3z" />
    <path d="M386 683 c23 -17 34 -16 34 2 l0 15 -26 -2 -25 -2 17 -13z" />
    <path d="M520 690 c0 -7 3 -10 7 -7 3 4 3 10 0 14 -4 3 -7 0 -7 -7z" />
    <path d="M836 684 l-6 -15 17 3 c9 2 18 9 21 16 6 18 -25 15 -32 -4z" />
    <path d="M641 655 l4 -20 35 -16 35 -17 17 9 c20 11 20 46 0 54 l-13 5 6 -10
c3 -6 3 -10 -2 -11 -4 0 -17 -2 -28 -4 -11 -2 -28 4 -38 13 l-19 17 3 -20z
m64 -25 c3 -5 1 -10 -4 -10 -6 0 -11 5 -11 10 0 6 2 10 4 10 3 0 8 -4 11 -10z" />
    <path d="M785 660 l-6 -10 15 0 c9 0 16 5 16 10 0 6 -4 10 -9 10 -6 0 -13 -4
-16 -10z" />
    <path d="M973 655 l0 -13 14 5 c7 3 13 6 13 8 0 2 -6 5 -13 8 l-14 5 0 -13z" />
    <path d="M1003 633 c4 -3 10 -3 14 0 3 4 0 7 -7 7 -7 0 -10 -3 -7 -7z" />
    <path d="M881 614 c-21 -24 -5 -28 20 -5 l23 21 -15 0 c-8 -1 -20 -8 -28 -16z" />
    <path d="M450 604 c0 -7 -6 -14 -12 -17 -7 -2 -10 -8 -6 -12 5 -5 17 2 28 15
11 13 20 24 20 25 0 1 -7 2 -15 2 -8 0 -15 -6 -15 -13z" />
    <path d="M395 600 c3 -5 8 -10 11 -10 2 0 4 5 4 10 0 6 -5 10 -11 10 -5 0 -7
-4 -4 -10z" />
    <path d="M490 600 c0 -5 5 -10 10 -10 6 0 10 5 10 10 0 6 -4 10 -10 10 -5 0
-10 -4 -10 -10z" />
    <path d="M596 564 l-6 -15 12 7 11 7 -6 -17 c-4 -10 -7 -20 -7 -24 0 -3 -6 2
-13 13 l-14 18 2 -24 c1 -13 -5 -32 -13 -41 l-15 -18 16 0 c10 0 17 7 17 15 0
8 9 20 20 27 l20 13 0 27 c0 30 -14 38 -24 12z" />
    <path d="M825 569 c-4 -6 -5 -11 -4 -12 2 -2 13 -9 24 -17 l20 -15 -12 16 -13
15 12 12 12 12 -16 0 c-9 0 -20 -5 -23 -11z" />
    <path d="M370 560 c0 -5 5 -10 11 -10 5 0 7 5 4 10 -3 6 -8 10 -11 10 -2 0 -4
-4 -4 -10z" />
    <path d="M524 558 l-7 -11 11 7 c7 4 12 9 12 12 0 8 -9 4 -16 -8z" />
    <path d="M867 549 c7 -7 15 -10 18 -7 3 3 -2 9 -12 12 l-18 7 12 -12z" />
    <path d="M500 520 c6 -11 13 -20 16 -20 2 0 0 9 -6 20 -6 11 -13 20 -16 20 -2
0 0 -9 6 -20z" />
    <path d="M780 507 c0 -7 4 -18 9 -26 l9 -14 11 8 c7 4 11 14 9 22 -3 19 -38
27 -38 10z m27 -14 c-4 -3 -7 0 -7 7 0 7 3 10 7 7 3 -4 3 -10 0 -14z" />
    <path d="M390 470 c0 -5 5 -10 10 -10 6 0 10 5 10 10 0 6 -4 10 -10 10 -5 0
-10 -4 -10 -10z" />
    <path d="M496 441 c-4 -5 -2 -12 3 -15 5 -4 12 -2 15 3 4 5 2 12 -3 15 -5 4
-12 2 -15 -3z" />
    <path d="M605 426 l-19 -14 16 -16 16 -15 12 15 13 14 -19 -6 -19 -6 19 16
c11 9 22 12 25 8 3 -5 20 -12 36 -15 l30 -6 -28 13 c-15 6 -24 15 -21 19 14
13 -42 7 -61 -7z" />
    <path d="M851 424 l1 -19 5 13 c3 7 2 16 -1 19 -3 4 -6 -2 -5 -13z" />
    <path d="M734 398 l-7 -11 11 7 c7 4 12 9 12 12 0 8 -9 4 -16 -8z" />
    <path d="M830 386 c0 -14 5 -26 10 -26 6 0 10 9 10 19 0 11 -4 23 -10 26 l-10
6 0 -25z" />
    <path d="M430 390 c0 -7 3 -10 7 -7 3 4 3 10 0 14 -4 3 -7 0 -7 -7z" />
    <path d="M577 379 c7 -7 15 -10 18 -7 3 3 -2 9 -12 12 l-18 7 12 -12z" />
    <path d="M666 381 l-6 -9 20 5 c23 6 26 13 6 13 -8 0 -17 -4 -20 -9z" />
    <path d="M856 360 l-6 -31 -11 7 -12 7 7 -11 c4 -7 11 -12 16 -12 9 0 25 59
17 66 -2 3 -7 -9 -11 -26z" />
    <path d="M770 371 c0 -6 5 -13 10 -16 l10 -6 0 15 c0 9 -4 16 -10 16 -5 0 -10
-4 -10 -9z" />
    <path d="M530 360 c0 -5 5 -10 12 -10 l11 0 -19 -22 -19 -23 20 15 c11 8 21
15 23 16 1 1 0 9 -4 18 -7 17 -24 22 -24 6z" />
    <path d="M410 351 c0 -6 4 -13 10 -16 l10 -6 -6 15 c-7 18 -14 21 -14 7z" />
    <path d="M750 356 c0 -2 8 -10 18 -17 l17 -14 -14 18 c-13 16 -21 21 -21 13z" />
    <path d="M873 333 c4 -3 10 -3 14 0 3 4 0 7 -7 7 -7 0 -10 -3 -7 -7z" />
    <path d="M330 310 c0 -7 3 -10 7 -7 3 4 3 10 0 14 -4 3 -7 0 -7 -7z" />
    <path d="M864 308 l-7 -11 11 7 c7 4 12 9 12 12 0 8 -9 4 -16 -8z" />
    <path d="M410 300 c0 -5 5 -10 10 -10 6 0 10 5 10 10 0 6 -4 10 -10 10 -5 0
-10 -4 -10 -10z" />
    <path d="M465 300 c3 -5 8 -10 11 -10 2 0 4 5 4 10 0 6 -5 10 -11 10 -5 0 -7
-4 -4 -10z" />
  </g>
  <g transform="translate(0.000000,133.000000) scale(0.100000,-0.100000)" fill="#e00607" stroke="none">
    <path d="M403 989 l-31 -20 -11 -31 c-14 -40 -14 -45 4 -45 8 0 12 4 9 8 -2 4
0 19 6 34 l10 26 21 -6 21 -7 -4 13 c-3 8 5 21 16 31 l21 17 -15 0 c-8 1 -29
-8 -47 -20z" />
    <path d="M541 977 c37 -33 49 -55 69 -119 l11 -37 17 6 c9 4 26 17 37 28 11
12 26 20 33 17 l13 -4 -2 13 c-1 8 -1 20 0 27 l1 13 21 -6 20 -7 -3 19 -3 18
29 3 28 4 24 -23 c13 -12 26 -30 29 -40 8 -25 -16 -78 -55 -119 l-33 -35 15
25 c8 14 17 39 20 57 l4 32 -8 -5 c-5 -3 -14 -1 -21 4 -32 27 -85 13 -139 -37
l-28 -25 0 13 c0 7 -4 9 -10 6 l-10 -6 0 20 c0 12 -4 21 -10 21 -5 0 -10 7
-10 15 0 8 -13 21 -30 30 -34 17 -40 18 -40 6 0 -5 9 -13 20 -16 l20 -6 25
-50 25 -49 19 0 c10 0 26 9 36 19 9 11 35 29 56 39 l40 20 22 -18 22 -19 -23
-43 c-12 -24 -22 -46 -22 -50 0 -5 9 -8 19 -8 l19 0 41 46 c23 26 46 64 51 84
l10 38 -9 25 c-13 33 -58 67 -89 67 -26 0 -92 -36 -92 -50 0 -4 -15 -22 -32
-39 l-33 -32 -8 28 c-24 79 -67 133 -106 133 l-16 0 36 -33z" />
    <path d="M450 960 c0 -5 5 -10 11 -10 5 0 7 5 4 10 -3 6 -8 10 -11 10 -2 0 -4
-4 -4 -10z" />
    <path d="M525 960 c3 -5 10 -10 16 -10 5 0 9 5 9 10 0 6 -7 10 -16 10 l-15 0
6 -10z" />
    <path d="M390 941 c0 -6 5 -13 10 -16 l10 -6 0 15 c0 9 -4 16 -10 16 -5 0 -10
-4 -10 -9z" />
    <path d="M427 913 c-11 -11 -8 -33 5 -33 6 0 8 3 5 7 -4 3 -2 12 4 20 l11 13
-9 0 c-5 0 -13 -3 -16 -7z" />
    <path d="M560 910 c0 -5 5 -10 10 -10 6 0 10 5 10 10 0 6 -4 10 -10 10 -5 0
-10 -4 -10 -10z" />
    <path d="M460 875 l-23 -24 5 -50 5 -49 28 -54 27 -53 -30 28 c-16 16 -29 36
-28 45 0 9 -5 17 -12 17 -19 0 -52 62 -52 99 l0 33 -16 0 -16 0 7 -36 c3 -20
20 -59 38 -88 34 -55 132 -163 148 -163 17 0 9 28 -24 87 -40 70 -57 116 -57
153 l0 27 20 18 c21 19 26 35 12 35 -5 0 -19 -11 -32 -25z" />
    <path d="M840 875 c0 -8 5 -15 10 -15 6 0 10 7 10 15 0 8 -4 15 -10 15 -5 0
-10 -7 -10 -15z" />
    <path d="M416 781 c-3 -5 1 -11 9 -14 l14 -6 -6 15 c-6 16 -10 17 -17 5z" />
  </g>
  <g transform="translate(0.000000,133.000000) scale(0.100000,-0.100000)" fill="#06364d" stroke="none">
    <path d="M322 833 c2 -9 9 -18 16 -21 l12 -4 0 21 0 21 -16 0 -15 0 3 -17z" />
    <path d="M340 790 c0 -20 24 -60 37 -60 16 0 17 11 1 45 -11 24 -38 35 -38 15z" />
    <path d="M1045 760 c-38 -10 -83 -23 -99 -29 l-29 -12 11 -11 11 -11 23 15
c13 8 41 18 63 21 l40 6 -27 -10 c-16 -6 -28 -15 -28 -21 l0 -10 18 5 c60 19
132 54 132 65 l0 12 -22 -1 c-13 0 -54 -8 -93 -19z" />
    <path d="M587 713 c-11 -10 -8 -25 3 -18 13 8 42 -14 34 -26 -7 -12 41 -59 61
-59 l16 0 -35 35 c-19 18 -37 43 -41 55 -6 20 -25 26 -38 13z" />
    <path d="M406 685 c4 -8 10 -15 15 -15 5 0 9 7 9 15 0 8 -7 15 -15 15 l-14 0
5 -15z" />
    <path d="M788 658 c-43 -23 -78 -45 -78 -49 0 -5 18 -2 39 6 22 7 42 11 45 8
3 -4 6 -2 6 4 0 6 20 23 45 37 25 15 45 29 45 31 0 12 -31 1 -102 -37z" />
    <path d="M958 673 c-16 -8 -28 -19 -28 -24 0 -6 -4 -8 -9 -5 -5 3 -21 -6 -35
-19 -15 -14 -30 -25 -34 -25 -4 0 -24 -16 -44 -35 l-38 -34 0 -27 0 -27 20
-17 c12 -10 24 -34 27 -54 l6 -36 -11 0 c-6 0 -26 16 -45 37 l-35 36 -54 5
-55 4 -56 -46 c-31 -25 -61 -46 -67 -46 -5 0 -9 -5 -8 -12 2 -6 -5 -14 -14
-16 l-18 -3 0 20 0 21 15 0 c13 0 19 12 16 32 0 4 8 5 19 3 12 -2 18 0 15 5
-3 5 13 23 35 41 22 18 42 40 45 51 4 10 12 18 20 18 l14 0 -8 28 c-5 16 -16
42 -25 60 -9 17 -16 40 -16 52 0 11 -5 20 -11 20 l-11 0 7 -37 c3 -21 13 -48
21 -60 8 -12 14 -29 14 -37 0 -14 -53 -71 -124 -133 -43 -39 -66 -73 -66 -100
l0 -23 18 0 c21 0 47 17 130 87 l62 53 31 0 c39 0 77 -20 112 -59 15 -17 34
-31 42 -31 l14 0 6 34 7 34 -27 55 -28 56 32 26 c17 15 29 31 26 36 l-6 9 15
-6 16 -6 5 14 c3 7 26 25 50 38 25 14 45 28 45 32 0 5 7 8 15 8 8 0 15 5 15
10 0 13 -8 11 -42 -7z" />
  </g>
  <g transform="translate(0.000000,133.000000) scale(0.100000,-0.100000)" fill="#c9171b" stroke="none">
    <path d="M418 1004 c-16 -8 -28 -19 -28 -24 0 -14 12 -12 34 5 l20 15 42 0 41
0 26 -20 c29 -23 52 -64 62 -110 4 -16 12 -30 19 -30 14 0 76 58 76 71 0 16
-18 9 -41 -16 -13 -13 -27 -25 -30 -25 -3 0 -12 18 -19 40 -7 22 -17 40 -22
40 -4 0 -8 7 -8 15 0 8 -15 24 -32 35 l-33 20 -40 0 c-22 -1 -52 -8 -67 -16z" />
    <path d="M748 964 c-16 -8 -28 -19 -28 -24 0 -14 12 -12 34 5 29 22 52 18 87
-13 l32 -29 -1 -31 c0 -17 -6 -40 -12 -52 -16 -29 -80 -100 -91 -100 -5 0 0
15 11 33 11 17 20 42 20 54 l0 23 -25 16 -25 16 -43 -21 c-25 -12 -52 -30 -62
-41 -10 -11 -22 -20 -26 -20 -5 0 -20 22 -33 49 l-25 48 -31 13 -31 13 -24
-23 c-25 -24 -33 -50 -15 -50 6 0 10 7 10 15 0 8 9 19 20 25 l20 11 20 -11
c11 -6 31 -33 45 -60 l25 -50 20 0 c12 0 23 6 26 14 3 7 21 22 40 32 19 10 34
22 34 26 0 12 35 9 48 -4 18 -18 15 -40 -13 -80 -27 -39 -32 -68 -14 -68 17 0
91 68 122 113 l27 40 0 36 c0 20 -7 47 -16 60 -15 21 -70 52 -91 51 -4 -1 -20
-8 -35 -16z" />
    <path d="M350 930 l-13 -30 6 -41 c3 -22 17 -65 32 -95 l27 -56 62 -64 c34
-35 69 -64 79 -64 l17 0 0 15 c0 8 -4 15 -10 15 -5 0 -10 -4 -10 -10 0 -17
-116 114 -145 164 l-28 49 -1 51 c-1 28 3 61 7 74 l8 22 -9 0 c-5 0 -15 -14
-22 -30z" />
    <path d="M454 773 c8 -30 62 -141 77 -157 l9 -10 0 13 c0 6 -16 42 -35 78 -19
36 -35 74 -35 85 0 10 -5 18 -11 18 l-11 0 6 -27z" />
  </g>
  <g transform="translate(0.000000,133.000000) scale(0.100000,-0.100000)" fill="#cee1e9" stroke="none">
    <path d="M689 945 c-20 -13 -39 -31 -43 -40 -3 -9 -10 -13 -16 -10 l-10 6 0
-15 c0 -9 7 -16 15 -16 8 0 15 6 15 13 0 7 14 21 30 30 17 10 30 22 30 28 0 5
7 9 15 9 8 0 15 5 15 10 0 15 -11 12 -51 -15z" />
    <path d="M335 927 c-17 -42 -18 -47 -7 -47 10 0 36 70 28 77 -3 3 -13 -10 -21
-30z" />
    <path d="M505 870 c3 -5 10 -10 16 -10 5 0 9 5 9 10 0 6 -7 10 -16 10 l-15 0
6 -10z" />
    <path d="M540 841 c0 -6 5 -13 10 -16 l10 -6 0 15 c0 9 -4 16 -10 16 -5 0 -10
-4 -10 -9z" />
    <path d="M320 831 c0 -6 4 -13 10 -16 l10 -6 -6 15 c-7 18 -14 21 -14 7z" />
    <path d="M748 820 c12 -12 22 -24 22 -28 -1 -4 -7 -18 -15 -32 -17 -29 -18
-40 -7 -40 12 0 32 46 32 71 0 23 -22 49 -41 49 l-13 0 22 -20z" />
    <path d="M340 771 c0 -4 9 -20 21 -35 11 -14 18 -29 15 -34 -2 -4 4 -9 15 -9
22 -2 26 15 5 23 -8 3 -20 19 -26 35 -12 27 -30 40 -30 20z" />
    <path d="M1105 770 l-6 -10 15 6 c18 7 21 14 7 14 -6 0 -13 -4 -16 -10z" />
    <path d="M1178 773 c-10 -3 -18 -9 -18 -14 0 -12 37 -12 45 0 7 12 -5 19 -27
14z" />
    <path d="M1055 760 c-3 -5 -2 -10 4 -10 5 0 13 5 16 10 3 6 2 10 -4 10 -5 0
-13 -4 -16 -10z" />
    <path d="M1001 749 c-13 -5 -22 -12 -19 -14 6 -6 58 12 58 20 0 7 -11 5 -39
-6z" />
    <path d="M1098 748 c-16 -5 -28 -14 -28 -19 0 -5 2 -9 5 -9 10 0 65 30 65 35
0 7 -10 5 -42 -7z" />
    <path d="M891 709 c-24 -11 -41 -22 -38 -25 6 -6 97 32 97 40 0 9 -12 6 -59
-15z" />
    <path d="M977 678 c-31 -23 -55 -44 -52 -46 2 -3 11 1 19 7 l15 13 12 -8 12
-7 -7 11 -6 11 45 26 c25 15 45 29 45 31 0 14 -33 -2 -83 -38z" />
    <path d="M620 692 c6 -13 14 -21 18 -18 3 4 -2 14 -12 24 l-18 17 12 -23z" />
    <path d="M1133 703 c4 -3 10 -3 14 0 3 4 0 7 -7 7 -7 0 -10 -3 -7 -7z" />
    <path d="M514 678 l-7 -11 11 7 c7 4 12 9 12 12 0 8 -9 4 -16 -8z" />
    <path d="M577 683 c-10 -9 -9 -41 1 -47 5 -3 9 8 9 24 0 17 -1 30 -2 30 -1 0
-5 -3 -8 -7z" />
    <path d="M815 670 c-3 -5 -2 -10 4 -10 5 0 13 5 16 10 3 6 2 10 -4 10 -5 0
-13 -4 -16 -10z" />
    <path d="M745 634 l-40 -25 25 7 c25 7 70 33 70 40 0 9 -18 2 -55 -22z" />
    <path d="M465 620 c3 -5 10 -10 16 -10 5 0 9 5 9 10 0 6 -7 10 -16 10 l-15 0
6 -10z" />
    <path d="M590 591 c0 -5 5 -13 10 -16 6 -3 10 -2 10 4 0 5 -4 13 -10 16 -5 3
-10 2 -10 -4z" />
    <path d="M510 586 c0 -2 7 -9 15 -16 l15 -12 0 16 c0 9 -7 16 -15 16 -8 0 -15
-2 -15 -4z" />
    <path d="M845 580 c-3 -5 -2 -10 4 -10 5 0 13 5 16 10 3 6 2 10 -4 10 -5 0
-13 -4 -16 -10z" />
    <path d="M795 540 c-3 -5 -2 -10 4 -10 5 0 13 5 16 10 3 6 2 10 -4 10 -5 0
-13 -4 -16 -10z" />
    <path d="M546 469 c-27 -27 -44 -49 -39 -49 11 0 98 88 92 94 -2 2 -26 -18
-53 -45z" />
    <path d="M800 471 c0 -5 5 -13 10 -16 6 -3 10 -2 10 4 0 5 -4 13 -10 16 -5 3
-10 2 -10 -4z" />
    <path d="M648 433 c6 -2 18 -2 25 0 6 3 1 5 -13 5 -14 0 -19 -2 -12 -5z" />
    <path d="M704 425 c11 -8 25 -15 30 -15 6 0 2 7 -8 15 -11 8 -25 15 -30 15 -6
0 -2 -7 8 -15z" />
    <path d="M820 421 c0 -5 5 -13 10 -16 6 -3 10 -2 10 4 0 5 -4 13 -10 16 -5 3
-10 2 -10 -4z" />
    <path d="M451 381 c-30 -42 -26 -47 9 -13 31 32 36 42 21 42 -5 0 -19 -13 -30
-29z" />
    <path d="M565 390 c-3 -5 -2 -10 4 -10 5 0 13 5 16 10 3 6 2 10 -4 10 -5 0
-13 -4 -16 -10z" />
    <path d="M830 366 c0 -19 -5 -20 -31 -6 -10 6 -19 7 -19 2 0 -14 23 -32 41
-32 l17 0 5 20 c3 11 1 23 -4 26 -5 3 -9 -2 -9 -10z" />
    <path d="M500 335 l-12 -15 10 0 c5 0 15 7 22 15 l12 15 -10 0 c-5 0 -15 -7
-22 -15z" />
    <path d="M414 319 c-3 -6 -1 -16 5 -22 l11 -11 0 22 c0 24 -5 28 -16 11z" />
  </g>
  <g transform="translate(0.000000,133.000000) scale(0.100000,-0.100000)" fill="#264e63" stroke="none">
    <path d="M330 905 c0 -8 5 -15 10 -15 6 0 10 7 10 15 0 8 -4 15 -10 15 -5 0
-10 -7 -10 -15z" />
    <path d="M636 885 l-5 -15 14 0 c8 0 15 7 15 15 0 8 -4 15 -9 15 -5 0 -11 -7
-15 -15z" />
    <path d="M520 871 c0 -12 29 -35 36 -28 11 10 -5 37 -21 37 -8 0 -15 -4 -15
-9z" />
    <path d="M336 824 c-9 -22 -8 -24 9 -24 l15 0 0 20 c0 24 -15 27 -24 4z" />
    <path d="M766 805 c4 -8 10 -15 15 -15 5 0 9 7 9 15 0 8 -7 15 -15 15 l-14 0
5 -15z" />
    <path d="M340 783 c0 -3 5 -13 11 -24 5 -11 14 -17 19 -14 l10 6 -5 -14 c-6
-15 31 -54 42 -43 4 4 3 10 -2 14 -6 4 -19 23 -29 43 -10 20 -25 36 -32 36 -8
0 -14 -2 -14 -4z" />
    <path d="M1093 763 c4 -3 10 -3 14 0 3 4 0 7 -7 7 -7 0 -10 -3 -7 -7z" />
    <path d="M1115 754 c-22 -8 -44 -20 -50 -26 l-10 -11 20 8 c11 4 35 13 53 19
17 6 32 14 32 18 0 5 -1 8 -2 7 -2 0 -21 -7 -43 -15z" />
    <path d="M998 746 c-20 -6 -40 -15 -45 -20 l-8 -8 25 7 c44 14 70 24 70 30 0
3 -1 5 -2 4 -2 -1 -20 -6 -40 -13z" />
    <path d="M584 705 c-3 -14 -4 -29 0 -32 3 -4 6 4 6 16 l0 23 16 -6 16 -6 -4
12 c-2 6 -9 13 -16 16 l-11 3 -7 -26z" />
    <path d="M910 710 l-15 -10 12 0 c6 0 15 5 18 10 8 12 4 12 -15 0z" />
    <path d="M971 675 c-35 -24 -69 -42 -75 -38 -6 3 -8 3 -4 -2 4 -4 -3 -16 -15
-26 -45 -37 -5 -17 67 34 40 28 82 57 92 64 11 6 15 12 9 12 -5 1 -39 -19 -74
-44z" />
    <path d="M815 669 c-33 -17 -64 -35 -70 -41 l-10 -11 10 4 c26 10 135 70 135
74 0 7 2 8 -65 -26z" />
    <path d="M417 683 c-8 -7 41 -63 55 -63 16 0 8 27 -15 48 -25 24 -30 26 -40
15z" />
    <path d="M630 671 c0 -5 5 -13 10 -16 6 -3 10 -2 10 4 0 5 -4 13 -10 16 -5 3
-10 2 -10 -4z" />
    <path d="M580 640 c0 -7 3 -10 7 -7 3 4 3 10 0 14 -4 3 -7 0 -7 -7z" />
    <path d="M600 581 c0 -5 5 -13 10 -16 6 -3 10 -2 10 4 0 5 -4 13 -10 16 -5 3
-10 2 -10 -4z" />
    <path d="M815 560 c-10 -11 -14 -20 -8 -20 5 0 18 9 28 20 10 11 14 20 8 20
-5 0 -18 -9 -28 -20z" />
    <path d="M607 533 c-4 -3 -7 -11 -7 -17 l0 -10 12 12 c6 6 9 14 7 17 -3 3 -9
2 -12 -2z" />
    <path d="M773 493 c0 -16 2 -22 4 -15 l5 13 15 -12 14 -12 -12 26 c-7 15 -15
27 -19 27 -4 0 -7 -12 -7 -27z" />
    <path d="M599 420 c-31 -25 -12 -26 21 0 14 11 20 20 14 20 -7 0 -22 -9 -35
-20z" />
    <path d="M690 436 c0 -2 7 -7 16 -10 l15 -6 -6 10 c-6 10 -25 14 -25 6z" />
    <path d="M481 406 l-22 -23 16 -7 16 -6 -6 10 c-3 5 5 18 17 29 12 12 17 21
12 21 -6 0 -21 -11 -33 -24z" />
    <path d="M820 421 c0 -6 4 -13 10 -16 l10 -6 -6 15 c-7 18 -14 21 -14 7z" />
    <path d="M750 395 c13 -14 26 -23 28 -20 7 7 -29 45 -41 45 -6 0 0 -11 13 -25z" />
    <path d="M535 370 c-10 -11 -14 -20 -8 -20 5 0 18 9 28 20 10 11 14 20 8 20
-5 0 -18 -9 -28 -20z" />
    <path d="M822 377 c-7 -8 -9 -17 -5 -21 4 -4 -1 -4 -12 0 l-20 8 14 -17 c7 -9
17 -17 21 -17 9 0 23 50 17 56 -2 3 -9 -2 -15 -9z" />
    <path d="M427 343 c-4 -3 -7 -17 -7 -30 l0 -23 19 0 c11 0 23 5 26 10 3 6 2
10 -4 10 l-10 0 5 18 6 17 -10 -15 c-6 -8 -8 -18 -6 -22 3 -4 0 -8 -6 -8 l-12
0 6 25 c6 25 5 30 -7 18z" />
  </g>
  <g transform="translate(0.000000,133.000000) scale(0.100000,-0.100000)" fill="#f3e2df" stroke="none">
    <path d="M510 1016 c0 -2 7 -7 16 -10 l15 -6 -6 10 c-6 10 -25 14 -25 6z" />
    <path d="M405 1000 l-6 -10 15 0 c9 0 16 5 16 10 0 6 -4 10 -9 10 -6 0 -13 -4
-16 -10z" />
    <path d="M574 967 c13 -17 30 -45 36 -61 6 -16 13 -26 16 -24 11 12 -49 118
-67 118 -6 0 1 -15 15 -33z" />
    <path d="M620 981 c0 -6 4 -13 10 -16 l10 -6 -6 15 c-7 18 -14 21 -14 7z" />
    <path d="M790 973 c0 -5 16 -15 35 -22 19 -7 35 -16 35 -20 0 -4 7 -16 15 -27
l14 -19 1 12 c0 19 -52 70 -77 78 -13 3 -23 2 -23 -2z" />
    <path d="M456 844 c-10 -25 -7 -52 6 -60 l11 -7 -6 23 c-3 13 -2 29 4 36 l10
12 -9 6 c-6 3 -13 -1 -16 -10z" />
    <path d="M865 820 c-9 -18 -14 -34 -11 -37 2 -3 12 9 21 27 9 18 14 34 11 37
-2 3 -12 -9 -21 -27z" />
    <path d="M688 823 c-16 -8 -28 -19 -28 -24 l0 -10 18 10 c28 16 58 40 47 40
-5 -1 -22 -8 -37 -16z" />
    <path d="M740 800 c0 -7 3 -10 7 -7 3 4 3 10 0 14 -4 3 -7 0 -7 -7z" />
    <path d="M630 775 c-7 -9 -11 -18 -8 -20 3 -3 11 1 18 10 7 9 11 18 8 20 -3 3
-11 -1 -18 -10z" />
    <path d="M464 757 c3 -10 6 -23 6 -28 0 -5 5 -9 10 -9 14 0 12 13 -6 36 l-16
19 6 -18z" />
    <path d="M820 755 l-12 -15 10 0 c12 0 26 19 19 26 -2 2 -10 -2 -17 -11z" />
    <path d="M903 753 c4 -3 10 -3 14 0 3 4 0 7 -7 7 -7 0 -10 -3 -7 -7z" />
    <path d="M1110 720 c-18 -12 -2 -12 25 0 l20 9 -15 0 c-8 0 -22 -4 -30 -9z" />
    <path d="M490 705 c0 -3 12 -29 28 -57 15 -28 31 -59 37 -69 5 -11 14 -19 18
-19 11 0 11 0 -36 83 -35 61 -47 77 -47 62z" />
    <path d="M712 690 l-10 -25 9 -3 c11 -5 72 38 65 46 -3 2 -13 -1 -22 -8 l-16
-14 -8 14 -9 15 -9 -25z" />
    <path d="M414 658 l-7 -11 11 7 c12 7 16 16 8 16 -3 0 -8 -5 -12 -12z" />
    <path d="M423 625 c0 -6 7 -11 16 -10 9 0 16 5 16 10 0 5 -7 10 -16 10 -9 1
-16 -4 -16 -10z" />
    <path d="M580 611 c0 -5 5 -13 10 -16 6 -3 10 -2 10 4 0 5 -4 13 -10 16 -5 3
-10 2 -10 -4z" />
    <path d="M530 570 c0 -5 5 -10 10 -10 6 0 10 5 10 10 0 6 -4 10 -10 10 -5 0
-10 -4 -10 -10z" />
  </g>
  <g transform="translate(0.000000,133.000000) scale(0.100000,-0.100000)" fill="#9e1e27" stroke="none">
    <path d="M413 1005 c-35 -16 -73 -64 -72 -92 l0 -18 12 20 c7 11 32 39 56 63
24 23 42 42 40 41 -2 0 -18 -7 -36 -14z" />
    <path d="M746 968 c-23 -13 -64 -47 -85 -70 -8 -10 -21 -18 -28 -18 -15 0 -16
-10 -3 -30 l10 -15 11 18 c14 24 86 89 115 105 13 7 24 15 24 17 0 9 -24 5
-44 -7z" />
    <path d="M483 883 c-27 -10 -12 -22 21 -16 l35 5 30 -61 31 -61 15 0 c8 0 15
5 15 10 0 6 -4 10 -10 10 -5 0 -21 22 -35 50 -31 61 -61 80 -102 63z" />
    <path d="M345 829 c15 -70 62 -138 164 -237 39 -37 71 -54 71 -36 0 13 -42 75
-48 70 -2 -3 1 -12 8 -21 7 -8 8 -15 3 -15 -15 0 -108 101 -142 154 -16 27
-33 61 -36 77 -4 16 -11 32 -17 35 l-10 7 7 -34z" />
    <path d="M715 840 l-6 -10 30 0 c16 0 31 -6 34 -12 2 -7 8 -10 12 -6 4 4 2 14
-5 23 -14 17 -56 20 -65 5z" />
    <path d="M753 752 c-12 -25 -20 -48 -18 -50 5 -6 55 71 55 85 0 26 -15 11 -37
-35z" />
  </g>
  <g transform="translate(0.000000,133.000000) scale(0.100000,-0.100000)" fill="#a9bfcb" stroke="none">
    <path d="M370 975 c-13 -14 -21 -28 -17 -31 7 -7 46 35 47 49 0 12 -5 8 -30
-18z" />
    <path d="M326 891 c-4 -7 -5 -15 -2 -18 9 -9 19 4 14 18 l-4 13 -8 -13z" />
    <path d="M320 839 c0 -5 5 -7 10 -4 6 3 10 8 10 11 0 2 -4 4 -10 4 -5 0 -10
-5 -10 -11z" />
    <path d="M550 831 c0 -6 5 -13 10 -16 l10 -6 0 15 c0 9 -4 16 -10 16 -5 0 -10
-4 -10 -9z" />
    <path d="M755 820 c3 -5 10 -10 16 -10 5 0 9 5 9 10 0 6 -7 10 -16 10 l-15 0
6 -10z" />
    <path d="M330 801 c0 -6 5 -13 10 -16 l10 -6 0 15 c0 9 -4 16 -10 16 -5 0 -10
-4 -10 -9z" />
    <path d="M1130 772 c8 -3 17 -9 20 -13 6 -9 50 0 50 10 0 4 -19 7 -42 8 -24 0
-36 -2 -28 -5z" />
    <path d="M1065 760 l-6 -10 15 6 c18 7 21 14 7 14 -6 0 -13 -4 -16 -10z" />
    <path d="M600 750 c0 -5 4 -10 9 -10 6 0 13 5 16 10 l6 10 -15 0 c-9 0 -16 -4
-16 -10z" />
    <path d="M1033 753 c4 -3 10 -3 14 0 3 4 0 7 -7 7 -7 0 -10 -3 -7 -7z" />
    <path d="M1090 740 l-15 -10 12 0 c6 0 15 5 18 10 8 12 4 12 -15 0z" />
    <path d="M944 724 l-19 -15 25 12 c31 14 36 19 24 19 -6 0 -19 -7 -30 -16z" />
    <path d="M602 716 c7 -8 15 -12 17 -11 5 6 -10 25 -20 25 l-10 0 13 -14z" />
    <path d="M1050 720 l-15 -10 12 0 c6 0 15 5 18 10 8 12 4 12 -15 0z" />
    <path d="M880 700 l-15 -10 17 0 c9 0 20 5 23 10 8 13 -5 13 -25 0z" />
    <path d="M417 683 c-8 -12 50 -69 60 -59 4 3 -7 20 -24 37 l-31 31 -5 -9z m33
-28 c13 -14 21 -25 18 -25 -2 0 -15 11 -28 25 -13 14 -21 25 -18 25 2 0 15
-11 28 -25z" />
    <path d="M984 678 l-7 -11 11 7 c7 4 12 9 12 12 0 8 -9 4 -16 -8z" />
    <path d="M636 667 c3 -10 9 -15 12 -12 3 3 0 11 -7 18 l-12 12 7 -18z" />
    <path d="M795 660 l-6 -10 15 6 c18 7 21 14 7 14 -6 0 -13 -4 -16 -10z" />
    <path d="M940 650 l-15 -10 12 0 c6 0 15 5 18 10 8 12 4 12 -15 0z" />
    <path d="M580 621 c0 -6 4 -13 10 -16 l10 -6 -6 15 c-7 18 -14 21 -14 7z" />
    <path d="M864 595 c-10 -8 -14 -15 -8 -15 6 0 17 7 24 15 16 19 9 19 -16 0z" />
    <path d="M505 590 c3 -5 11 -10 16 -10 6 0 7 5 4 10 -3 6 -11 10 -16 10 -6 0
-7 -4 -4 -10z" />
    <path d="M611 555 c0 -12 -6 -26 -13 -33 -6 -6 -9 -14 -6 -18 10 -9 30 35 25
54 l-5 17 -1 -20z" />
    <path d="M816 555 c-11 -8 -15 -15 -9 -15 6 0 16 7 23 15 16 19 11 19 -14 0z" />
    <path d="M775 521 c-3 -5 -1 -12 5 -16 l10 -6 0 15 c0 18 -6 21 -15 7z" />
    <path d="M811 450 c14 -31 19 -36 19 -24 0 6 -7 19 -16 30 l-15 19 12 -25z" />
    <path d="M602 419 c-18 -12 -31 -23 -29 -26 3 -2 22 7 42 22 45 30 34 34 -13
4z" />
    <path d="M678 433 c7 -3 16 -2 19 1 4 3 -2 6 -13 5 l-19 -1 13 -5z" />
    <path d="M484 408 l-19 -23 25 20 c14 11 27 21 29 22 2 2 0 3 -6 3 -5 0 -18
-10 -29 -22z" />
    <path d="M711 428 c2 -2 18 -14 34 -28 l30 -25 -24 28 c-14 15 -29 27 -34 27
-6 0 -8 -1 -6 -2z" />
    <path d="M830 400 c0 -7 3 -10 7 -7 3 4 3 10 0 14 -4 3 -7 0 -7 -7z" />
    <path d="M530 360 c-14 -11 -20 -20 -14 -20 6 0 19 9 29 20 23 25 17 25 -15 0z" />
    <path d="M425 339 c-4 -6 -5 -12 -2 -15 2 -3 7 2 10 11 7 17 1 20 -8 4z" />
    <path d="M810 336 l10 -10 11 11 12 12 -21 -2 -22 -1 10 -10z" />
    <path d="M456 305 c-11 -8 -15 -15 -10 -15 6 0 19 7 30 15 10 8 15 14 9 14 -5
0 -19 -6 -29 -14z" />
  </g>
  <g transform="translate(0.000000,133.000000) scale(0.100000,-0.100000)" fill="#8ca3af" stroke="none">
    <path d="M709 950 l-24 -19 15 0 c16 0 50 22 50 33 0 12 -18 6 -41 -14z" />
    <path d="M341 931 l-11 -20 9 -5 c5 -3 11 4 14 16 8 30 1 35 -12 9z" />
    <path d="M645 901 c-3 -5 -1 -12 5 -16 l10 -6 0 15 c0 18 -6 21 -15 7z" />
    <path d="M327 883 c-11 -10 -8 -43 3 -43 6 0 10 11 10 25 0 26 -2 29 -13 18z" />
    <path d="M538 847 c11 -12 29 -41 41 -65 12 -23 26 -40 31 -37 l9 6 -22 37
c-11 20 -24 39 -28 42 -3 3 -8 11 -11 19 -2 8 -12 15 -22 17 l-18 3 20 -22z" />
    <path d="M745 830 c3 -5 10 -10 16 -10 5 0 9 5 9 10 0 6 -7 10 -16 10 l-15 0
6 -10z" />
    <path d="M340 784 c0 -6 7 -19 16 -30 l15 -19 -12 25 c-14 31 -19 36 -19 24z" />
    <path d="M1150 766 l0 -13 25 5 c28 5 24 22 -6 22 l-19 0 0 -14z" />
    <path d="M1003 743 c4 -3 10 -3 14 0 3 4 0 7 -7 7 -7 0 -10 -3 -7 -7z" />
    <path d="M1103 743 c4 -3 10 -3 14 0 3 4 0 7 -7 7 -7 0 -10 -3 -7 -7z" />
    <path d="M375 731 c-3 -5 -2 -12 3 -15 5 -3 9 1 9 9 0 17 -3 19 -12 6z" />
    <path d="M973 733 c4 -3 10 -3 14 0 3 4 0 7 -7 7 -7 0 -10 -3 -7 -7z" />
    <path d="M1070 730 l-15 -10 12 0 c6 0 15 5 18 10 8 12 4 12 -15 0z" />
    <path d="M923 713 c4 -3 10 -3 14 0 3 4 0 7 -7 7 -7 0 -10 -3 -7 -7z" />
    <path d="M1030 710 l-15 -10 12 0 c6 0 15 5 18 10 8 12 4 12 -15 0z" />
    <path d="M580 700 c0 -7 3 -10 7 -7 3 4 3 10 0 14 -4 3 -7 0 -7 -7z" />
    <path d="M625 680 c3 -5 8 -10 11 -10 3 0 2 5 -1 10 -3 6 -8 10 -11 10 -3 0
-2 -4 1 -10z" />
    <path d="M954 658 l-7 -11 11 7 c12 7 16 16 8 16 -3 0 -8 -5 -12 -12z" />
    <path d="M650 646 c0 -2 8 -10 18 -17 l17 -14 -14 18 c-13 16 -21 21 -21 13z" />
    <path d="M748 634 c-38 -20 -36 -28 2 -9 17 9 30 18 30 20 0 7 -1 6 -32 -11z" />
    <path d="M919 633 l-14 -18 18 14 c9 7 17 15 17 17 0 8 -8 3 -21 -13z" />
    <path d="M580 630 c0 -7 3 -10 7 -7 3 4 3 10 0 14 -4 3 -7 0 -7 -7z" />
    <path d="M490 605 c7 -8 17 -15 22 -15 l10 0 -12 15 c-7 8 -17 15 -22 15 l-10
0 12 -15z" />
    <path d="M884 608 l-7 -11 11 7 c7 4 12 9 12 12 0 8 -9 4 -16 -8z" />
    <path d="M590 604 c0 -6 7 -19 16 -30 l15 -19 -12 25 c-14 31 -19 36 -19 24z" />
    <path d="M834 568 l-7 -11 11 7 c7 4 12 9 12 12 0 8 -9 4 -16 -8z" />
    <path d="M610 540 c0 -7 3 -10 7 -7 3 4 3 10 0 14 -4 3 -7 0 -7 -7z" />
    <path d="M770 516 c0 -2 8 -10 18 -17 l17 -14 -14 18 c-13 16 -21 21 -21 13z" />
    <path d="M800 470 c0 -7 3 -10 7 -7 3 4 3 10 0 14 -4 3 -7 0 -7 -7z" />
    <path d="M604 418 l-7 -11 11 7 c12 7 16 16 8 16 -3 0 -8 -5 -12 -12z" />
    <path d="M455 380 c-10 -11 -16 -22 -14 -24 2 -2 12 7 22 20 22 29 17 32 -8 4z" />
    <path d="M554 378 l-7 -11 11 7 c12 7 16 16 8 16 -3 0 -8 -5 -12 -12z" />
    <path d="M775 370 c10 -11 20 -20 23 -20 3 0 -3 9 -13 20 -10 11 -20 20 -23
20 -3 0 3 -9 13 -20z" />
    <path d="M480 320 l-15 -10 12 0 c6 0 15 5 18 10 8 12 4 12 -15 0z" />
  </g>
  <g transform="translate(0.000000,133.000000) scale(0.100000,-0.100000)" fill="#4e6a7c" stroke="none">
    <path d="M690 937 l-35 -22 18 -3 18 -4 26 26 c31 31 21 32 -27 3z" />
    <path d="M622 878 c5 -15 28 -23 28 -10 0 5 -7 13 -16 16 l-16 6 4 -12z" />
    <path d="M550 841 c0 -6 5 -13 10 -16 l10 -6 0 15 c0 9 -4 16 -10 16 -5 0 -10
-4 -10 -9z" />
    <path d="M737 843 c-4 -3 3 -11 16 -18 l22 -11 -3 -18 -3 -18 11 7 11 7 -7 21
c-9 30 -33 45 -47 30z" />
    <path d="M340 789 c0 -5 5 -7 10 -4 6 3 10 8 10 11 0 2 -4 4 -10 4 -5 0 -10
-5 -10 -11z" />
    <path d="M580 791 c0 -5 5 -13 10 -16 6 -3 10 -2 10 4 0 5 -4 13 -10 16 -5 3
-10 2 -10 -4z" />
    <path d="M354 768 l-7 -11 11 7 c12 7 16 16 8 16 -3 0 -8 -5 -12 -12z" />
    <path d="M1083 763 c4 -3 10 -3 14 0 3 4 0 7 -7 7 -7 0 -10 -3 -7 -7z" />
    <path d="M1183 763 c4 -3 10 -3 14 0 3 4 0 7 -7 7 -7 0 -10 -3 -7 -7z" />
    <path d="M1048 753 c7 -3 16 -2 19 1 4 3 -2 6 -13 5 l-19 -1 13 -5z" />
    <path d="M890 700 l-15 -10 12 0 c6 0 15 5 18 10 8 12 4 12 -15 0z" />
    <path d="M645 650 c3 -5 8 -10 11 -10 3 0 2 5 -1 10 -3 6 -8 10 -11 10 -3 0
-2 -4 1 -10z" />
    <path d="M470 631 c0 -5 5 -13 10 -16 6 -3 10 -2 10 4 0 5 -4 13 -10 16 -5 3
-10 2 -10 -4z" />
    <path d="M854 588 l-7 -11 11 7 c7 4 12 9 12 12 0 8 -9 4 -16 -8z" />
    <path d="M774 518 l-7 -11 11 7 c7 4 12 9 12 12 0 8 -9 4 -16 -8z" />
    <path d="M589 503 l-14 -18 18 14 c16 13 21 21 13 21 -2 0 -10 -8 -17 -17z" />
    <path d="M524 438 l-19 -23 23 19 c12 11 22 21 22 23 0 8 -8 2 -26 -19z" />
    <path d="M574 398 l-7 -11 11 7 c7 4 12 9 12 12 0 8 -9 4 -16 -8z" />
    <path d="M827 376 c-4 -15 -6 -31 -2 -34 10 -10 16 6 13 35 l-3 28 -8 -29z" />
    <path d="M434 348 l-7 -11 11 7 c12 7 16 16 8 16 -3 0 -8 -5 -12 -12z" />
    <path d="M509 343 l-14 -18 18 14 c9 7 17 15 17 17 0 8 -8 3 -21 -13z" />
    <path d="M420 320 c0 -7 3 -10 7 -7 3 4 3 10 0 14 -4 3 -7 0 -7 -7z" />
    <path d="M464 308 l-7 -11 11 7 c12 7 16 16 8 16 -3 0 -8 -5 -12 -12z" />
  </g>
  <g transform="translate(0.000000,133.000000) scale(0.100000,-0.100000)" fill="#6d8998" stroke="none">
    <path d="M357 953 c-4 -3 -7 -11 -7 -17 l0 -10 12 12 c6 6 9 14 7 17 -3 3 -9
2 -12 -2z" />
    <path d="M655 909 c-4 -6 -5 -13 -2 -16 7 -7 27 6 27 18 0 12 -17 12 -25 -2z" />
    <path d="M324 869 c-3 -6 -1 -16 5 -22 l11 -11 0 22 c0 24 -5 28 -16 11z" />
    <path d="M515 870 c4 -6 11 -8 16 -5 14 9 11 15 -7 15 l-15 0 6 -10z" />
    <path d="M335 800 c3 -5 8 -10 11 -10 2 0 4 5 4 10 0 6 -5 10 -11 10 -5 0 -7
-4 -4 -10z" />
    <path d="M1155 770 l-6 -10 21 0 21 0 -6 10 c-3 6 -10 10 -15 10 -5 0 -12 -4
-15 -10z" />
    <path d="M364 748 l-7 -11 11 7 c12 7 16 16 8 16 -3 0 -8 -5 -12 -12z" />
    <path d="M386 722 c-3 -6 -1 -14 5 -17 15 -10 25 3 12 16 l-11 11 -6 -10z" />
    <path d="M1014 698 l-7 -11 11 7 c7 4 12 9 12 12 0 8 -9 4 -16 -8z" />
    <path d="M480 620 c0 -5 5 -10 11 -10 5 0 7 5 4 10 -3 6 -8 10 -11 10 -2 0 -4
-4 -4 -10z" />
    <path d="M670 626 c0 -2 7 -7 16 -10 l15 -6 -6 10 c-6 10 -25 14 -25 6z" />
    <path d="M844 578 l-7 -11 11 7 c7 4 12 9 12 12 0 8 -9 4 -16 -8z" />
    <path d="M789 533 l-14 -18 18 14 c9 7 17 15 17 17 0 8 -8 3 -21 -13z" />
    <path d="M559 473 l-24 -28 28 24 c25 23 32 31 24 31 -2 0 -14 -12 -28 -27z" />
    <path d="M564 388 l-7 -11 11 7 c12 7 16 16 8 16 -3 0 -8 -5 -12 -12z" />
    <path d="M795 350 c3 -5 8 -10 11 -10 3 0 2 5 -1 10 -3 6 -8 10 -11 10 -3 0
-2 -4 1 -10z" />
    <path d="M820 350 c0 -5 5 -10 11 -10 5 0 7 5 4 10 -3 6 -8 10 -11 10 -2 0 -4
-4 -4 -10z" />
    <path d="M494 328 l-7 -11 11 7 c7 4 12 9 12 12 0 8 -9 4 -16 -8z" />
  </g>
  <g transform="translate(0.000000,133.000000) scale(0.100000,-0.100000)" fill="#762d3b" stroke="none">
    <path d="M403 995 c-12 -9 -32 -30 -43 -48 l-22 -32 22 25 c11 14 33 35 48 47
31 26 27 31 -5 8z" />
    <path d="M727 955 c-20 -14 -37 -31 -37 -37 l0 -10 17 13 c32 25 68 59 63 59
-3 0 -22 -11 -43 -25z" />
    <path d="M337 903 c-11 -10 -8 -63 3 -63 6 0 10 16 10 35 0 36 -2 40 -13 28z" />
    <path d="M650 886 c0 -8 -6 -16 -12 -19 -7 -2 -10 -8 -5 -12 4 -5 14 0 22 11
17 23 19 34 5 34 -5 0 -10 -6 -10 -14z" />
    <path d="M491 877 l-11 -13 29 4 29 4 16 -31 c17 -32 26 -39 26 -20 0 13 -55
69 -68 69 -5 0 -14 -6 -21 -13z" />
    <path d="M735 840 c-4 -6 -3 -10 2 -9 53 9 49 -43 -10 -123 -22 -30 -20 -42 6
-32 l16 6 -6 13 c-2 8 4 27 15 43 12 15 24 40 27 54 l6 25 -16 17 c-19 18 -31
20 -40 6z" />
    <path d="M348 814 c-3 -3 6 -26 20 -52 31 -56 31 -57 37 -50 3 2 -8 28 -23 56
-16 29 -31 50 -34 46z" />
    <path d="M589 778 c4 -12 14 -24 20 -26 l13 -4 -17 26 c-10 14 -19 26 -21 26
-2 0 0 -10 5 -22z" />
    <path d="M420 692 c0 -5 7 -15 15 -22 l15 -12 0 10 c0 5 -7 15 -15 22 l-15 12
0 -10z" />
    <path d="M500 605 c19 -19 36 -35 39 -35 3 0 -10 16 -29 35 -19 19 -36 35 -39
35 -3 0 10 -16 29 -35z" />
  </g>
  <g transform="translate(0.000000,133.000000) scale(0.100000,-0.100000)" fill="#f3b5b4" stroke="none">
    <path d="M448 1013 c7 -3 16 -2 19 1 4 3 -2 6 -13 5 l-19 -1 13 -5z" />
    <path d="M503 1013 c4 -3 10 -3 14 0 3 4 0 7 -7 7 -7 0 -10 -3 -7 -7z" />
    <path d="M535 1000 c3 -5 11 -10 16 -10 6 0 7 5 4 10 -3 6 -11 10 -16 10 -6 0
-7 -4 -4 -10z" />
    <path d="M390 989 c0 -5 5 -7 10 -4 6 3 10 8 10 11 0 2 -4 4 -10 4 -5 0 -10
-5 -10 -11z" />
    <path d="M795 964 c22 -8 51 -26 63 -41 l24 -26 -4 -33 c-2 -18 0 -30 4 -28
13 8 9 53 -7 83 -15 29 -69 62 -102 60 l-18 0 40 -15z" />
    <path d="M596 937 c3 -10 9 -15 12 -12 3 3 0 11 -7 18 l-12 12 7 -18z" />
    <path d="M616 887 c3 -10 9 -15 12 -12 3 3 0 11 -7 18 l-12 12 7 -18z" />
    <path d="M473 863 c4 -3 10 -3 14 0 3 4 0 7 -7 7 -7 0 -10 -3 -7 -7z" />
    <path d="M694 825 c-10 -8 -14 -15 -8 -15 6 0 17 7 24 15 16 19 9 19 -16 0z" />
    <path d="M842 782 l-23 -37 25 28 c14 15 26 32 26 38 0 5 -1 9 -2 9 -2 0 -13
-17 -26 -38z" />
    <path d="M655 800 c-3 -5 -1 -10 4 -10 6 0 11 5 11 10 0 6 -2 10 -4 10 -3 0
-8 -4 -11 -10z" />
    <path d="M461 765 c10 -33 59 -128 59 -112 0 4 -11 30 -25 57 -14 27 -25 56
-25 64 0 8 -4 17 -9 21 l-9 5 9 -35z" />
    <path d="M615 760 c-3 -5 -1 -10 4 -10 6 0 11 5 11 10 0 6 -2 10 -4 10 -3 0
-8 -4 -11 -10z" />
    <path d="M765 704 l-30 -26 33 22 c17 12 32 23 32 26 0 7 -4 5 -35 -22z" />
    <path d="M720 701 c-13 -25 -13 -31 2 -31 6 0 8 3 5 6 -3 4 -2 15 4 25 5 11 7
19 5 19 -3 0 -10 -9 -16 -19z" />
    <path d="M548 596 l21 -35 -17 5 -17 6 20 -17 20 -16 3 11 c4 10 -35 80 -45
80 -3 0 4 -15 15 -34z" />
  </g>
  <g transform="translate(0.000000,133.000000) scale(0.100000,-0.100000)" fill="#492b3c" stroke="none">
    <path d="M701 936 c-24 -18 -48 -40 -53 -50 l-9 -16 -12 6 -12 7 12 -13 12
-13 38 39 c20 21 39 38 43 37 3 -1 11 7 18 18 7 10 11 19 10 19 -2 0 -23 -15
-47 -34z" />
    <path d="M337 911 l-6 -24 11 11 c5 5 8 16 6 23 l-4 13 -7 -23z" />
    <path d="M508 873 c7 -3 16 -2 19 1 4 3 -2 6 -13 5 l-19 -1 13 -5z" />
    <path d="M560 829 c12 -23 24 -39 26 -36 5 5 -35 77 -42 77 -3 0 5 -18 16 -41z" />
    <path d="M330 851 c0 -5 5 -13 10 -16 6 -3 10 -2 10 4 0 5 -4 13 -10 16 -5 3
-10 2 -10 -4z" />
    <path d="M762 826 c7 -8 15 -12 17 -11 5 6 -10 25 -20 25 l-10 0 13 -14z" />
    <path d="M340 800 c0 -5 4 -10 8 -10 5 0 17 -18 27 -39 9 -21 38 -58 63 -82
l45 -44 -49 61 c-28 33 -56 75 -63 92 -13 30 -31 43 -31 22z" />
    <path d="M766 773 l-7 -18 12 12 c7 7 10 15 7 18 -3 3 -9 -2 -12 -12z" />
    <path d="M597 759 c7 -7 15 -10 18 -7 3 3 -2 9 -12 12 l-18 7 12 -12z" />
  </g>
  <g transform="translate(0.000000,133.000000) scale(0.100000,-0.100000)" fill="#243345" stroke="none">
    <path d="M671 911 c-17 -16 -31 -33 -31 -38 0 -4 8 1 18 12 9 11 26 28 37 38
10 9 17 17 13 17 -3 0 -20 -13 -37 -29z" />
    <path d="M332 870 c0 -19 2 -27 5 -17 2 9 2 25 0 35 -3 9 -5 1 -5 -18z" />
    <path d="M340 800 c0 -5 5 -10 11 -10 5 0 7 5 4 10 -3 6 -8 10 -11 10 -2 0 -4
-4 -4 -10z" />
    <path d="M1158 763 c6 -2 18 -2 25 0 6 3 1 5 -13 5 -14 0 -19 -2 -12 -5z" />
    <path d="M389 722 c5 -10 18 -25 27 -33 l18 -14 -24 33 c-26 35 -36 42 -21 14z" />
    <path d="M820 355 c0 -8 2 -15 4 -15 2 0 6 7 10 15 3 8 1 15 -4 15 -6 0 -10
-7 -10 -15z" />
  </g>
  <g transform="translate(0.000000,133.000000) scale(0.100000,-0.100000)" fill="#ee7e7e" stroke="none">
    <path d="M493 1013 c4 -3 10 -3 14 0 3 4 0 7 -7 7 -7 0 -10 -3 -7 -7z" />
    <path d="M545 996 c11 -9 28 -27 39 -39 l18 -22 -14 24 c-8 14 -25 31 -39 39
l-24 14 20 -16z" />
    <path d="M809 959 c14 -5 30 -13 36 -17 6 -4 2 1 -8 11 -11 9 -27 17 -36 16
l-16 0 24 -10z" />
    <path d="M610 900 c0 -7 3 -10 7 -7 3 4 3 10 0 14 -4 3 -7 0 -7 -7z" />
    <path d="M464 858 l-7 -11 11 7 c12 7 16 16 8 16 -3 0 -8 -5 -12 -12z" />
    <path d="M866 823 l-7 -18 12 12 c7 7 10 15 7 18 -3 3 -9 -2 -12 -12z" />
    <path d="M663 804 l-28 -25 33 22 c17 13 32 24 32 26 0 8 -11 1 -37 -23z" />
    <path d="M844 788 l-7 -11 11 7 c12 7 16 16 8 16 -3 0 -8 -5 -12 -12z" />
    <path d="M804 738 l-19 -23 23 19 c21 18 27 26 19 26 -2 0 -12 -10 -23 -22z" />
    <path d="M470 731 c0 -6 4 -13 10 -16 l10 -6 -6 15 c-7 18 -14 21 -14 7z" />
    <path d="M754 698 l-7 -11 11 7 c12 7 16 16 8 16 -3 0 -8 -5 -12 -12z" />
    <path d="M520 640 c6 -11 13 -20 16 -20 2 0 0 9 -6 20 -6 11 -13 20 -16 20 -2
0 0 -9 6 -20z" />
    <path d="M546 597 c3 -10 9 -15 12 -12 3 3 0 11 -7 18 l-12 12 7 -18z" />
  </g>
  <g transform="translate(0.000000,133.000000) scale(0.100000,-0.100000)" fill="#c64b4b" stroke="none">
    <path d="M394 988 l-7 -11 11 7 c12 7 16 16 8 16 -3 0 -8 -5 -12 -12z" />
    <path d="M855 930 c3 -5 8 -10 11 -10 3 0 2 5 -1 10 -3 6 -8 10 -11 10 -3 0
-2 -4 1 -10z" />
    <path d="M452 815 l0 -30 5 18 c2 9 2 23 0 30 -3 6 -5 -1 -5 -18z" />
    <path d="M713 833 c4 -3 10 -3 14 0 3 4 0 7 -7 7 -7 0 -10 -3 -7 -7z" />
    <path d="M624 768 l-19 -23 23 19 c21 18 27 26 19 26 -2 0 -12 -10 -23 -22z" />
    <path d="M460 760 c0 -7 3 -10 7 -7 3 4 3 10 0 14 -4 3 -7 0 -7 -7z" />
    <path d="M734 718 l-7 -11 11 7 c12 7 16 16 8 16 -3 0 -8 -5 -12 -12z" />
    <path d="M553 583 c4 -6 2 -13 -5 -15 l-12 -4 16 -6 16 -7 -2 14 c-1 8 -6 18
-11 22 l-8 8 6 -12z" />
  </g>
  <g transform="translate(0.000000,133.000000) scale(0.100000,-0.100000)" fill="#bb8186" stroke="none">
    <path d="M468 1013 c6 -2 18 -2 25 0 6 3 1 5 -13 5 -14 0 -19 -2 -12 -5z" />
    <path d="M723 833 c4 -3 10 -3 14 0 3 4 0 7 -7 7 -7 0 -10 -3 -7 -7z" />
    <path d="M535 570 c3 -5 8 -10 11 -10 3 0 2 5 -1 10 -3 6 -8 10 -11 10 -3 0
-2 -4 1 -10z" />
    <path d="M563 553 c4 -3 10 -3 14 0 3 4 0 7 -7 7 -7 0 -10 -3 -7 -7z" />
  </g>
</svg>