<?xml version="1.0" encoding="utf-8"?>
<!-- Generator: Adobe Illustrator 16.0.0, SVG Export Plug-In . SVG Version: 6.00 Build 0)  -->
<!DOCTYPE svg PUBLIC "-//W3C//DTD SVG 1.1//EN" "http://www.w3.org/Graphics/SVG/1.1/DTD/svg11.dtd">
<svg version="1.1" id="Livello_1" xmlns="http://www.w3.org/2000/svg" xmlns:xlink="http://www.w3.org/1999/xlink" x="0px" y="0px"
	 width="16px" height="16px" viewBox="0.5 0 16 16" enableBackground="new 0.5 0 16 16" xml:space="preserve">
<path fill="#B09987" d="M16.42,6.087c-0.132-0.264-0.396-0.396-0.66-0.396h-5.016L9.159,0.938c-0.132-0.528-1.056-0.528-1.319,0
	L6.256,5.69H1.239c-0.263,0-0.528,0.132-0.66,0.396c-0.132,0.263,0,0.528,0.263,0.791l4.092,2.905l-1.584,4.752
	c-0.132,0.264,0,0.528,0.263,0.792c0.264,0.132,0.528,0.132,0.792,0l4.092-2.903l4.092,2.903c0.131,0.132,0.264,0.132,0.396,0.132
	c0.131,0,0.264,0,0.396-0.132c0.264-0.132,0.396-0.396,0.264-0.792l-1.585-4.752l4.092-2.905C16.42,6.615,16.553,6.35,16.42,6.087z"
	/>
</svg>
