<svg width="31" height="13" viewBox="0 0 31 13" fill="none" xmlns="http://www.w3.org/2000/svg">
<path d="M1.04193 2.37074C2.59145 1.10287 5.22982 1.72161 6.21949 2.17535C7.76901 2.92218 8.72561 3.92953 9.5169 4.77405C9.71528 4.96944 9.88059 5.16483 10.0768 5.35805C10.2421 5.52087 10.2421 5.74883 10.1429 5.94205L9.5169 6.81914L10.8041 6.55862C10.9694 6.52605 11.1017 6.59118 11.2339 6.68888C11.2339 6.72144 12.7835 8.31279 14.3021 9.25501C14.4674 9.35271 14.6658 9.48297 14.8289 9.58066C17.6657 9.5481 22.5479 7.20992 25.3846 5.71409H25.2193C24.9548 5.71409 24.7564 5.5187 24.7895 5.25818C24.7895 4.99766 24.9879 4.80227 25.2524 4.80227H26.209L25.1532 4.1857C24.9217 4.05544 24.8556 3.79492 24.9879 3.56914C25.1201 3.34335 25.3846 3.27605 25.6138 3.40631L27.0003 4.21827L26.6035 3.40631C26.5043 3.17836 26.6035 2.92001 26.8019 2.82231C27.0333 2.72462 27.2956 2.82231 27.3948 3.0177L27.8885 3.95992C28.9465 1.98213 29.0127 0.486306 29.0127 0.455912C29.0127 0.195391 29.211 0 29.4755 0C29.74 0 29.9384 0.195391 29.9384 0.455912C29.9384 0.618737 29.8723 2.47061 28.4881 4.80878L30.5666 4.84135C30.8311 4.84135 31.0295 5.03674 30.9964 5.29726C30.9964 5.55778 30.798 5.75317 30.5335 5.75317H29.5769L30.236 6.14395C30.4674 6.27421 30.5335 6.53474 30.4013 6.76052C30.3021 6.89078 30.1368 6.95591 29.9715 6.95591C29.9053 6.95591 29.8062 6.92335 29.74 6.89078L28.2897 6.04626C27.9591 10.6597 24.1327 11.7973 23.8373 11.8624H23.8042C23.7381 11.8624 20.3084 12.6418 16.1514 12.9023C16.1183 12.9023 16.0853 12.9349 16.0522 12.9349H15.6885C14.8642 12.9674 14.0398 13 13.1824 13H12.4903C5.59571 12.8697 1.37476 10.7573 0.318966 6.89295C-0.273951 4.78056 -0.0447197 3.25434 1.04413 2.37725L1.04193 2.37074ZM19.5789 11.0135C22.8124 9.585 24.9548 7.86122 26.3412 6.20474C23.9673 7.47261 19.645 9.6154 16.4137 10.2667C17.4034 10.6249 18.4592 10.8833 19.5811 11.0135H19.5789ZM27.3287 6.46526C26.0745 8.02405 24.1944 9.65013 21.4237 11.1112C22.1159 11.1112 22.841 11.0787 23.6015 10.981C23.9651 10.8833 26.8658 10.0387 27.3287 6.46526ZM1.17197 6.66065C2.06245 9.87592 5.32901 11.3066 9.08709 11.8255C3.71116 9.64796 2.22556 5.002 2.22556 4.93904C2.15944 4.71109 2.29169 4.45274 2.52312 4.38761C2.75456 4.32248 3.01685 4.45274 3.08298 4.68069C3.18216 4.97378 5.45685 12.0882 15.3535 12.023C16.5085 11.9579 17.5973 11.8602 18.6179 11.7625C16.8369 11.4694 15.2543 10.8854 13.8018 9.97578C12.4815 9.16383 11.1965 7.89596 10.7336 7.44222L8.52283 7.86556C8.32446 7.89813 8.15914 7.833 8.05996 7.67017C7.96077 7.50735 7.96077 7.31196 8.05996 7.18387L9.11575 5.72278C9.01656 5.62508 8.91737 5.49482 8.81819 5.39713C8.05996 4.58517 7.20254 3.64295 5.81613 2.99382C4.92565 2.57047 2.71488 2.1493 1.62823 3.05895C0.836943 3.70808 0.671631 4.91082 1.16536 6.665L1.17197 6.66065Z" fill="white"/>
</svg>
