<svg width="22" height="19" viewBox="0 0 22 19" fill="none" xmlns="http://www.w3.org/2000/svg">
<path d="M19.5961 8.46635L15.4964 11.253C15.1512 11.4953 15.011 11.9093 15.1296 12.2929L16.694 16.7758C16.9853 17.6441 15.9496 18.3407 15.162 17.8157L11.0839 15.0392C10.7387 14.7969 10.264 14.7969 9.91879 15.0392L5.84074 17.8157C5.05318 18.3508 4.00669 17.634 4.30877 16.7758L5.8731 12.2929C6.01335 11.8992 5.85152 11.4953 5.50629 11.253L1.41745 8.46635C0.629891 7.94134 1.02907 6.79034 2.01082 6.79034H7.05984C7.49138 6.79034 7.87976 6.52783 7.99844 6.13406L9.55198 1.65122C9.84327 0.782925 11.1595 0.782925 11.4508 1.65122L13.0043 6.13406C13.1446 6.52783 13.5221 6.79034 13.9429 6.79034H18.9919C19.9629 6.79034 20.3728 7.95143 19.5853 8.46635H19.5961Z" stroke="white" stroke-width="1.2" stroke-miterlimit="10"/>
</svg>
