<svg width="23" height="20" viewBox="0 0 23 20" fill="none" xmlns="http://www.w3.org/2000/svg">
<path d="M20.3163 11.6291L19.1308 11.3948C19.1308 11.3948 19.0764 11.3948 19.0547 11.4054C19.0329 11.4161 19.022 11.4374 19.0112 11.4693C18.8915 12.0231 18.7175 12.5769 18.4673 13.0987C18.4347 13.1626 18.413 13.2265 18.3803 13.2904C17.4776 15.1115 15.8897 16.4852 13.9319 17.1455C13.1053 17.4224 12.257 17.5608 11.3977 17.5608C10.2231 17.5608 9.0811 17.3052 8.00434 16.7834C6.26413 15.9528 4.92635 14.547 4.21939 12.8112L5.83996 13.5886C5.83996 13.5886 5.89434 13.5992 5.91609 13.5886C5.93784 13.5886 5.9596 13.5673 5.97047 13.5353L6.50341 12.4704C6.50341 12.4704 6.50341 12.3639 6.45991 12.3426L2.8816 10.6387C2.8816 10.6387 2.77284 10.6387 2.75109 10.6813L2.49005 11.2137L1.36979 13.4395C1.36979 13.4395 1.36979 13.4501 1.36979 13.4608L1 14.1956C1 14.1956 1 14.3021 1.04351 14.3234L2.13114 14.8452C2.13114 14.8452 2.18552 14.8559 2.20727 14.8452C2.22902 14.8346 2.25078 14.8239 2.26165 14.792L2.95774 13.3969C3.2514 14.0891 3.63207 14.7494 4.09975 15.3457C4.96985 16.4852 6.09011 17.3798 7.40614 18.0081C8.51553 18.5406 9.70104 18.8388 10.9301 18.9027C11.0932 18.9027 11.2564 18.9133 11.4195 18.9133C12.431 18.9133 13.4316 18.7429 14.3996 18.4234C15.5199 18.0401 16.5422 17.465 17.445 16.7089C18.3695 15.9208 19.109 14.973 19.6529 13.8761C19.6855 13.8016 19.729 13.727 19.7616 13.6525C20.0444 13.0348 20.2619 12.3852 20.4033 11.7249C20.4033 11.6717 20.3816 11.6184 20.3272 11.6078L20.3163 11.6291Z" stroke="white" stroke-width="0.9" stroke-miterlimit="10"/>
<path d="M21.8616 5.64317C21.8616 5.64317 21.8399 5.60057 21.8072 5.58992L20.7196 5.0681C20.7196 5.0681 20.6652 5.05745 20.6435 5.0681C20.6217 5.07875 20.6 5.0894 20.5891 5.12135L19.8712 6.53773C19.4906 5.63252 18.9685 4.80186 18.3051 4.06705C17.5002 3.16184 16.5322 2.43768 15.4228 1.90521C14.3134 1.37273 13.1279 1.07455 11.8989 1.01065C11.7358 1.01065 11.5726 1 11.4095 1C10.398 1 9.39736 1.15974 8.42937 1.48988C7.30911 1.87326 6.28674 2.44833 5.384 3.20444C4.45952 3.9925 3.71993 4.94031 3.17611 6.0372C2.83895 6.71877 2.58879 7.43228 2.43652 8.1671C2.43652 8.1884 2.43652 8.22034 2.4474 8.24164C2.45828 8.26294 2.48003 8.27359 2.51266 8.28424L3.69817 8.51853C3.69817 8.51853 3.80694 8.49723 3.81781 8.44398C3.94833 7.82631 4.15498 7.21929 4.44864 6.64422C5.35137 4.82316 6.93931 3.44938 8.89705 2.78911C9.72365 2.51223 10.572 2.37378 11.4312 2.37378C12.6059 2.37378 13.7479 2.62937 14.8246 3.15119C16.5431 3.9712 17.87 5.35564 18.5878 7.08085L17.0108 6.33539C17.0108 6.33539 16.902 6.33539 16.8803 6.37799L16.3582 7.44293C16.3582 7.44293 16.3582 7.54943 16.4017 7.57073L19.98 9.26399C19.98 9.26399 20.0126 9.26399 20.0235 9.26399C20.0561 9.26399 20.0996 9.2427 20.1105 9.21075L21.8616 5.72837C21.8616 5.72837 21.8725 5.67512 21.8616 5.65382V5.64317Z" stroke="white" stroke-width="0.9" stroke-miterlimit="10"/>
</svg>
