<svg width="110" height="53" viewBox="0 0 110 53" fill="none" xmlns="http://www.w3.org/2000/svg">
<path d="M110 0H0.177734V0.442552H110V0Z" fill="black"/>
<path d="M110 17.3834H0.177734V17.826H110V17.3834Z" fill="black"/>
<path d="M98.5445 12.126H99.5406V9.89551L101.782 6.51442H100.644L99.0426 8.99271L97.4773 6.51442H96.3033L98.5445 9.91321V12.126ZM91.9808 10.462C91.9808 10.9753 91.5717 11.2409 90.8958 11.2409H89.2593V9.70079H90.8246C91.6073 9.70079 91.9808 9.98402 91.9808 10.462ZM91.6606 8.1076C91.6606 8.62096 91.2337 8.86879 90.5934 8.86879H89.2415V7.38182H90.6645C91.3049 7.38182 91.6606 7.64735 91.6606 8.0899V8.1076ZM88.2632 12.126H90.878C92.1409 12.126 92.9592 11.5949 92.9592 10.5859C92.9592 9.807 92.4967 9.43526 91.8385 9.20513C92.2654 8.99271 92.639 8.62096 92.639 7.94828C92.639 7.55884 92.5145 7.2579 92.2654 7.01007C91.9452 6.69144 91.4294 6.51442 90.789 6.51442H88.2632V12.126ZM73.9262 7.41722C75.118 7.41722 75.8828 8.23152 75.8828 9.32904C75.8828 10.4443 75.1002 11.2409 73.9262 11.2409H72.8055V7.41722H73.9262ZM71.8272 12.126H73.9262C75.705 12.126 76.9323 10.9045 76.9323 9.31134C76.9323 7.71816 75.705 6.49671 73.9262 6.49671H71.8272V12.1083V12.126ZM63.3246 12.126H67.5403V11.2409H64.3029V9.73619H67.1312V8.85109H64.3029V7.39952H67.5048V6.51442H63.3246V12.126ZM57.0633 12.1968C58.2551 12.1968 59.0733 11.5772 59.0733 10.5151C59.0733 9.55917 58.4507 9.13432 57.2768 8.85109C56.1917 8.58556 55.9249 8.40854 55.9249 7.96599C55.9249 7.57654 56.2628 7.27561 56.8498 7.27561C57.3657 7.27561 57.8637 7.47033 58.3796 7.85977L58.9132 7.11629C58.344 6.65603 57.6859 6.4082 56.8676 6.4082C55.747 6.4082 54.9465 7.08088 54.9465 8.03679C54.9465 9.08122 55.6225 9.43526 56.8321 9.73619C57.8815 9.98402 58.1128 10.1964 58.1128 10.5859C58.1128 11.0107 57.7214 11.3117 57.1167 11.3117C56.4229 11.3117 55.8715 11.0461 55.3379 10.5859L54.7509 11.294C55.4268 11.8958 56.2451 12.1968 57.0989 12.1968M47.2622 9.27594V7.39952H48.703C49.4323 7.39952 49.877 7.73586 49.877 8.33773C49.877 8.9219 49.4323 9.29364 48.7208 9.29364H47.2622V9.27594ZM46.2661 12.1083H47.2622V10.1433H48.5073L49.8948 12.1083H51.0688L49.539 9.98402C50.3217 9.75389 50.8731 9.20513 50.8731 8.28462C50.8731 7.77126 50.6953 7.36412 50.4106 7.06318C50.0549 6.70914 49.4857 6.49671 48.7742 6.49671H46.2661V12.1083ZM39.0442 11.294C37.9236 11.294 37.1231 10.3912 37.1231 9.31134C37.1231 8.19611 37.9058 7.31101 39.0264 7.31101C40.1471 7.31101 40.9475 8.21381 40.9475 9.31134C40.9475 10.4089 40.1649 11.294 39.0442 11.294ZM39.0442 12.2145C40.7696 12.2145 41.997 10.8868 41.997 9.31134C41.997 7.71816 40.7874 6.4082 39.062 6.4082C37.3366 6.4082 36.1092 7.73586 36.1092 9.31134C36.1092 10.9045 37.3188 12.2145 39.0442 12.2145ZM29.1186 7.39952C30.3104 7.39952 31.0753 8.21381 31.0753 9.31134C31.0753 10.4266 30.2926 11.2232 29.1186 11.2232H28.0158V7.39952H29.1186ZM27.0196 12.1083H29.1186C30.8974 12.1083 32.1247 10.8868 32.1247 9.29364C32.1247 7.70045 30.8974 6.47901 29.1186 6.47901H27.0196V12.0906V12.1083ZM17.5387 12.1083H18.5171V8.1076L21.6299 12.1083H22.466V6.49671H21.4876V10.3735L18.4637 6.49671H17.5387V12.1083ZM9.03613 12.1083H13.2696V11.2232H10.0323V9.71849H12.8605V8.83339H10.0323V7.38182H13.2341V6.49671H9.05392V12.1083H9.03613Z" fill="black"/>
<path d="M26.1837 48.5922C19.8157 48.5922 14.2658 43.7241 14.2658 36.4663V36.3955C14.2658 29.4208 19.62 24.2164 26.4683 24.2164C31.5201 24.2164 34.9353 26.7124 36.8742 30.2883L30.5417 34.0588C29.6879 32.3948 28.4783 31.2265 26.3794 31.2265C23.7823 31.2265 22.0747 33.5277 22.0747 36.3247V36.3955C22.0747 39.4402 23.8535 41.5645 26.3794 41.5645C28.5495 41.5645 29.7591 40.3607 30.7196 38.6259L37.0521 42.2726C35.1132 45.7422 31.8936 48.5922 26.1837 48.5922ZM52.1895 45.0341H46.0171L44.8431 48.1673H36.6429L46.3195 24.6236H52.1895V22.9596H0V24.6236H5.97671L15.6533 48.1673H7.3108L6.10123 45.0341H0V49.849H52.1895V45.0341ZM50.055 33.811L47.956 39.4933H52.1539L50.055 33.811ZM4.21572 39.4933L2.11675 33.811L0 39.4933H4.19793H4.21572Z" fill="#DF1B12"/>
<path d="M59.6608 25.8096H60.1411L62.1689 30.2882H61.6175L61.1016 29.1199H58.6647L58.1311 30.2882H57.6152L59.6608 25.8096ZM60.906 28.6596L59.8921 26.3937L58.8782 28.6596H60.906Z" fill="black"/>
<path d="M65.4062 25.845H65.9043L67.5408 28.2702L69.1595 25.845H69.6753V30.2882H69.1773V26.6947L67.5408 29.0667H67.523L65.8865 26.6947V30.2882H65.4062V25.845Z" fill="black"/>
<path d="M73.375 25.845H76.6124V26.3052H73.8731V27.8276H76.31V28.2879H73.8731V29.8279H76.6302V30.2882H73.375V25.845Z" fill="black"/>
<path d="M79.9738 25.845H81.8949C82.4464 25.845 82.891 26.0043 83.1579 26.2875C83.3713 26.4999 83.4958 26.8186 83.4958 27.1549C83.4958 27.8984 82.98 28.341 82.2863 28.4649L83.6559 30.2882H83.0333L81.7348 28.5534H80.4541V30.2882H79.9561V25.845H79.9738ZM81.8594 28.1108C82.5353 28.1108 83.0156 27.7745 83.0156 27.1903C83.0156 26.6239 82.5887 26.3052 81.8771 26.3052H80.4897V28.1108H81.8594Z" fill="black"/>
<path d="M87.4981 25.845H87V30.2882H87.4981V25.845Z" fill="black"/>
<path d="M91.0029 28.0754C91.0029 26.8009 91.9457 25.7565 93.262 25.7565C94.0802 25.7565 94.5605 26.0397 95.0052 26.4646L94.6672 26.8363C94.2937 26.4823 93.8668 26.2344 93.262 26.2344C92.2659 26.2344 91.5366 27.031 91.5366 28.0577C91.5366 29.1022 92.2837 29.8988 93.262 29.8988C93.8846 29.8988 94.2759 29.6686 94.7028 29.2615L95.0408 29.5801C94.5783 30.0404 94.0624 30.359 93.262 30.359C91.9813 30.359 91.0207 29.35 91.0207 28.0754" fill="black"/>
<path d="M99.9675 25.8096H100.448L102.476 30.2882H101.924L101.408 29.1199H98.9714L98.4377 30.2882H97.9219L99.9675 25.8096ZM101.213 28.6596L100.199 26.3937L99.1848 28.6596H101.213Z" fill="black"/>
<path d="M105.713 25.845H106.193L109.004 29.4031V25.845H109.502V30.2882H109.093L106.211 26.6416V30.2882H105.713V25.845Z" fill="black"/>
<path d="M57.5791 36.3955C57.5791 35.2271 58.4685 34.3066 59.6959 34.3066C60.5141 34.3066 61.0477 34.643 61.4035 35.1386L60.5675 35.7936C60.3362 35.5104 60.0694 35.3334 59.6959 35.3334C59.1266 35.3334 58.7353 35.8113 58.7353 36.3955C58.7353 37.0151 59.1266 37.4753 59.6959 37.4753C60.1228 37.4753 60.3718 37.2806 60.603 36.9797L61.4391 37.5815C61.0655 38.0949 60.5497 38.4843 59.6603 38.4843C58.5041 38.4843 57.5791 37.6169 57.5791 36.4132" fill="black"/>
<path d="M62.5244 34.3774H63.645V35.8821H65.0681V34.3774H66.1887V38.3781H65.0681V36.8557H63.645V38.3781H62.5244V34.3774Z" fill="black"/>
<path d="M68.7144 34.3774H67.5938V38.3781H68.7144V34.3774Z" fill="black"/>
<path d="M70.1201 34.3774H72.0234C72.646 34.3774 73.0551 34.5368 73.3397 34.8023C73.571 35.0324 73.6955 35.3334 73.6955 35.7405C73.6955 36.3601 73.3753 36.7672 72.8772 36.9796L73.8378 38.3781H72.5571L71.7388 37.1744H71.2408V38.3781H70.1201V34.3774ZM71.9701 36.307C72.3436 36.307 72.5748 36.1299 72.5748 35.829C72.5748 35.4927 72.3436 35.3334 71.9701 35.3334H71.2408V36.307H71.9878H71.9701Z" fill="black"/>
<path d="M74.6914 36.3955C74.6914 35.2271 75.6164 34.3066 76.8615 34.3066C78.1067 34.3066 79.0138 35.2271 79.0138 36.3778C79.0138 37.5461 78.0889 38.4666 76.8437 38.4666C75.5986 38.4666 74.6914 37.5461 74.6914 36.3955ZM77.8754 36.3955C77.8754 35.7936 77.4663 35.298 76.8437 35.298C76.2212 35.298 75.8298 35.7936 75.8298 36.3601C75.8298 36.9443 76.2567 37.4576 76.8615 37.4576C77.4663 37.4576 77.8754 36.962 77.8754 36.3955Z" fill="black"/>
<path d="M80.2236 34.3774H81.9491C82.963 34.3774 83.6211 34.8908 83.6211 35.7759C83.6211 36.7318 82.8918 37.2275 81.8957 37.2275H81.3443V38.3781H80.2236V34.3774ZM81.8779 36.3601C82.2692 36.3601 82.5183 36.1476 82.5183 35.829C82.5183 35.475 82.2692 35.2979 81.8779 35.2979H81.3443V36.3601H81.8779Z" fill="black"/>
<path d="M84.7053 34.3774H86.6086C87.2312 34.3774 87.6403 34.5368 87.9249 34.8023C88.1561 35.0324 88.2806 35.3334 88.2806 35.7405C88.2806 36.3601 87.9605 36.7672 87.4446 36.9796L88.4052 38.3781H87.1244L86.3062 37.1744H85.8081V38.3781H84.6875V34.3774H84.7053ZM86.5552 36.307C86.9288 36.307 87.16 36.1299 87.16 35.829C87.16 35.4927 86.9288 35.3334 86.5552 35.3334H85.8259V36.307H86.573H86.5552Z" fill="black"/>
<path d="M90.9852 34.342H92.0525L93.7601 38.3781H92.5683L92.2837 37.6523H90.7184L90.4338 38.3781H89.2598L90.9674 34.342H90.9852ZM91.9635 36.7849L91.5188 35.652L91.0563 36.7849H91.9635Z" fill="black"/>
<path d="M94.4004 36.3955C94.4004 35.2271 95.2898 34.3066 96.5171 34.3066C97.3354 34.3066 97.869 34.643 98.2248 35.1386L97.3887 35.7936C97.1575 35.5104 96.8907 35.3334 96.5171 35.3334C95.9479 35.3334 95.5566 35.8113 95.5566 36.3955C95.5566 37.0151 95.9479 37.4753 96.5171 37.4753C96.944 37.4753 97.1931 37.2806 97.4243 36.9797L98.2604 37.5815C97.8868 38.0949 97.371 38.4843 96.4816 38.4843C95.3254 38.4843 94.4004 37.6169 94.4004 36.4132" fill="black"/>
<path d="M100.376 35.3511H99.1846V34.3774H102.707V35.3511H101.497V38.3781H100.376V35.3511Z" fill="black"/>
<path d="M104.895 34.3774H103.774V38.3781H104.895V34.3774Z" fill="black"/>
<path d="M106.122 36.3955C106.122 35.2271 107.011 34.3066 108.239 34.3066C109.057 34.3066 109.591 34.643 109.946 35.1386L109.11 35.7936C108.879 35.5104 108.612 35.3334 108.239 35.3334C107.67 35.3334 107.278 35.8113 107.278 36.3955C107.278 37.0151 107.67 37.4753 108.239 37.4753C108.666 37.4753 108.915 37.2806 109.146 36.9797L109.982 37.5815C109.608 38.0949 109.093 38.4843 108.203 38.4843C107.047 38.4843 106.122 37.6169 106.122 36.4132" fill="black"/>
<path d="M59.6608 42.485H60.1411L62.1689 46.9636H61.6175L61.1016 45.7776H58.6647L58.1311 46.9636H57.6152L59.6608 42.485ZM60.906 45.335L59.8921 43.0692L58.8782 45.335H60.906Z" fill="black"/>
<path d="M63.4492 46.3263L63.7694 45.9546C64.2319 46.3794 64.6766 46.5742 65.2992 46.5742C65.9217 46.5742 66.2953 46.2555 66.2953 45.813C66.2953 45.3881 66.0818 45.158 65.1391 44.9633C64.1074 44.7332 63.6449 44.4145 63.6449 43.671C63.6449 42.9629 64.2675 42.4496 65.1213 42.4496C65.7794 42.4496 66.2419 42.6266 66.6866 42.9984L66.3842 43.3878C65.9751 43.0515 65.5482 42.9098 65.1035 42.9098C64.5165 42.9098 64.1607 43.2285 64.1607 43.6356C64.1607 44.0605 64.392 44.3083 65.3703 44.5207C66.3664 44.7332 66.8289 45.1049 66.8289 45.7776C66.8289 46.5565 66.1885 47.0521 65.2992 47.0521C64.5876 47.0521 64.0184 46.822 63.467 46.344" fill="black"/>
<path d="M68.2344 46.3263L68.5546 45.9546C69.017 46.3794 69.4617 46.5742 70.0843 46.5742C70.7069 46.5742 71.0804 46.2555 71.0804 45.813C71.0804 45.3881 70.867 45.158 69.9242 44.9633C68.8925 44.7332 68.43 44.4145 68.43 43.671C68.43 42.9629 69.0526 42.4496 69.9064 42.4496C70.5646 42.4496 71.0271 42.6266 71.4718 42.9984L71.1694 43.3878C70.7602 43.0515 70.3333 42.9098 69.8886 42.9098C69.3016 42.9098 68.9459 43.2285 68.9459 43.6356C68.9459 44.0605 69.1771 44.3083 70.1555 44.5207C71.1516 44.7332 71.6141 45.1049 71.6141 45.7776C71.6141 46.5565 70.9737 47.0521 70.0843 47.0521C69.3728 47.0521 68.8036 46.822 68.2522 46.344" fill="black"/>
<path d="M73.0371 44.7686C73.0371 43.5294 73.9621 42.4496 75.314 42.4496C76.6658 42.4496 77.5908 43.5117 77.5908 44.7332C77.5908 45.9723 76.6658 47.0521 75.314 47.0521C73.9621 47.0521 73.0371 45.99 73.0371 44.7686ZM77.0749 44.7686C77.0749 43.7418 76.3279 42.9275 75.314 42.9275C74.3 42.9275 73.5707 43.7418 73.5707 44.7509C73.5707 45.7776 74.3178 46.5919 75.3317 46.5919C76.3456 46.5919 77.0749 45.7776 77.0749 44.7686Z" fill="black"/>
<path d="M79.1377 44.7686C79.1377 43.494 80.0804 42.4496 81.3967 42.4496C82.1972 42.4496 82.6953 42.7328 83.14 43.1577L82.802 43.5294C82.4284 43.1754 82.0015 42.9098 81.3967 42.9098C80.4006 42.9098 79.6713 43.7064 79.6713 44.7332C79.6713 45.7776 80.4184 46.5742 81.3967 46.5742C82.0193 46.5742 82.4107 46.344 82.8376 45.9369L83.1755 46.2555C82.713 46.7158 82.1972 47.0344 81.3967 47.0344C80.116 47.0344 79.1555 46.0254 79.1555 44.7509" fill="black"/>
<path d="M85.2568 42.5204H84.7588V46.9636H85.2568V42.5204Z" fill="black"/>
<path d="M88.8503 42.485H89.3306L91.3584 46.9636H90.807L90.2911 45.7776H87.8542L87.3205 46.9636H86.8047L88.8503 42.485ZM90.0954 45.335L89.0815 43.0692L88.0676 45.335H90.0954Z" fill="black"/>
<path d="M93.4746 42.9806H91.9805V42.5204H95.4847V42.9806H93.9905V46.9813H93.4746V42.9806Z" fill="black"/>
<path d="M97.584 42.5204H97.0859V46.9636H97.584V42.5204Z" fill="black"/>
<path d="M99.3633 44.7686C99.3633 43.5294 100.288 42.4496 101.64 42.4496C102.992 42.4496 103.917 43.5117 103.917 44.7332C103.917 45.9723 102.992 47.0521 101.64 47.0521C100.288 47.0521 99.3633 45.99 99.3633 44.7686ZM103.401 44.7686C103.401 43.7418 102.654 42.9275 101.64 42.9275C100.626 42.9275 99.8969 43.7418 99.8969 44.7509C99.8969 45.7776 100.644 46.5919 101.658 46.5919C102.672 46.5919 103.401 45.7776 103.401 44.7686Z" fill="black"/>
<path d="M105.713 42.5204H106.175L109.004 46.0962V42.5204H109.484V46.9813H109.093L106.193 43.317V46.9813H105.713V42.5204Z" fill="black"/>
<path d="M49.5215 51.637H49.0234V51.4246H50.2508V51.637H49.735V52.9823H49.5037V51.637H49.5215ZM50.6066 51.4246H50.8556L51.4248 52.292L51.9762 51.4246H52.2075V52.9823H51.994V51.7786L51.4248 52.6283H51.3892L50.8378 51.7786V52.9823H50.6066V51.4246Z" fill="black"/>
</svg>
