<svg width="34" height="15" viewBox="0 0 34 15" fill="none" xmlns="http://www.w3.org/2000/svg">
<path d="M31.8939 2.55396C30.2443 1.18811 27.4354 1.85466 26.3818 2.34347C24.7321 3.14801 23.7137 4.23321 22.8713 5.143C22.6601 5.35349 22.4841 5.56398 22.2753 5.77213C22.0993 5.94754 22.0993 6.19312 22.2049 6.40127L22.8713 7.34614L21.5009 7.06549C21.3249 7.0304 21.1841 7.10057 21.0433 7.20581C21.0433 7.2409 19.3937 8.95523 17.7769 9.97026C17.6009 10.0755 17.3897 10.2158 17.216 10.3211C14.196 10.286 8.99829 7.76712 5.97824 6.1557H6.15423C6.43582 6.1557 6.64701 5.94521 6.61182 5.66455C6.61182 5.3839 6.40062 5.1734 6.11903 5.1734H5.10062L6.22463 4.50919C6.47102 4.36886 6.54142 4.08821 6.40062 3.84497C6.25983 3.60174 5.97824 3.52923 5.73419 3.66956L4.25819 4.54427L4.68058 3.66956C4.78617 3.42399 4.68058 3.14567 4.46939 3.04043C4.22299 2.93518 3.94375 3.04043 3.83815 3.25092L3.31252 4.26595C2.18616 2.13532 2.11576 0.523889 2.11576 0.491146C2.11576 0.210491 1.90457 0 1.62298 0C1.34139 0 1.1302 0.210491 1.1302 0.491146C1.1302 0.666555 1.2006 2.66154 2.67425 5.18042L0.461422 5.2155C0.179832 5.2155 -0.0313607 5.42599 0.00383802 5.70665C0.00383802 5.9873 0.21503 6.19779 0.49662 6.19779H1.51504L0.813409 6.61878C0.567018 6.7591 0.49662 7.03976 0.637415 7.28299C0.743012 7.42332 0.919005 7.49348 1.095 7.49348C1.1654 7.49348 1.27099 7.4584 1.34139 7.42332L2.88544 6.51353C3.23743 11.4835 7.3111 12.709 7.62554 12.7792H7.66074C7.73114 12.7792 11.3824 13.6188 15.8081 13.8994C15.8433 13.8994 15.8785 13.9345 15.9137 13.9345H16.3009C17.1785 13.9696 18.0561 14.0047 18.9689 14.0047H19.7057C27.0459 13.8644 31.5396 11.5887 32.6636 7.42566C33.2948 5.15002 33.0508 3.50585 31.8916 2.56098L31.8939 2.55396ZM12.1591 11.8647C8.7167 10.3258 6.43582 8.46876 4.95982 6.68426C7.48709 8.05012 12.0887 10.3585 15.5288 11.0601C14.4752 11.446 13.3512 11.7244 12.1568 11.8647H12.1591ZM3.90855 6.96492C5.24376 8.64417 7.24539 10.3959 10.195 11.9699C9.45822 11.9699 8.6862 11.9348 7.87662 11.8296C7.48944 11.7244 4.40133 10.8146 3.90855 6.96492ZM31.7555 7.17541C30.8074 10.6392 27.3298 12.1804 23.3289 12.7394C29.0522 10.3936 30.6338 5.38857 30.6338 5.32075C30.7042 5.07518 30.5634 4.79686 30.317 4.7267C30.0706 4.65653 29.7914 4.79686 29.721 5.04243C29.6154 5.35817 27.1937 13.0224 16.6575 12.9522C15.4279 12.8821 14.2687 12.7768 13.1822 12.6716C15.0783 12.3558 16.7631 11.7267 18.3095 10.7467C19.7151 9.87204 21.0832 8.50618 21.576 8.01737L23.9296 8.47344C24.1408 8.50852 24.3168 8.43836 24.4224 8.26295C24.528 8.08754 24.528 7.87705 24.4224 7.73906L23.2984 6.16505C23.404 6.05981 23.5096 5.91948 23.6152 5.81423C24.4224 4.93953 25.3352 3.92449 26.8112 3.22519C27.7592 2.76913 30.1128 2.3154 31.2697 3.29536C32.1121 3.99465 32.2881 5.29034 31.7625 7.18009L31.7555 7.17541Z" fill="white"/>
</svg>
