<?xml version="1.0" encoding="UTF-8"?>
<svg xmlns="http://www.w3.org/2000/svg" xmlns:xlink="http://www.w3.org/1999/xlink" version="1.1" viewBox="0 0 467.2 237.2">
  <defs>
    <style>
      .cls-1 {
        fill: none;
      }

      .cls-2 {
        fill: #00893e;
      }

      .cls-3 {
        fill: #ed1c24;
      }

      .cls-4 {
        fill: #024663;
      }

      .cls-5 {
        clip-path: url(#clippath);
      }
    </style>
    <clipPath id="clippath">
      <rect class="cls-1" x="256.6" y="2.5" width="137.1" height="116.5"/>
    </clipPath>
  </defs>
  <!-- Generator: Adobe Illustrator 28.7.0, SVG Export Plug-In . SVG Version: 1.2.0 Build 136)  -->
  <g>
    <g id="Livello_1">
      <g>
        <g>
          <rect class="cls-2" x="322.3" y="221.6" width="27.4" height="13.1"/>
          <rect class="cls-3" x="439.5" y="221.6" width="25.2" height="13.1"/>
        </g>
        <path class="cls-4" d="M359.1,234.6h2.6v-11.3h-2.6v11.3ZM366.2,223.3v2.1h3.6v9.2h2.6v-9.2h3.6v-2.1h-9.9ZM384.8,225.9l1.8,4.3h-3.6l1.8-4.3ZM383.6,223.3l-5,11.3h2.7l1-2.4h5.3l1,2.4h2.8l-5.1-11.3h-2.6ZM395.5,223.3v11.3h8.3v-2.1h-5.7v-9.2h-2.6ZM408.4,234.6h2.6v-11.3h-2.6v11.3ZM421.6,225.9l1.8,4.3h-3.6l1.8-4.3ZM420.3,223.3l-5,11.3h2.7l1-2.4h5.3l1,2.4h2.8l-5.1-11.3h-2.6Z"/>
        <g>
          <g class="cls-5">
            <path class="cls-4" d="M382.7,41.7c10.8-1.5,11.2,0,10.9,1.2-.3,1.1-1.4,1-1.4,1,0,0-15.5-3-64.4,38.6,7.3,10.2,12.9,26.2,8.1,28.9-4.8,2.6-10.3-12-19.4-14.7-9.1-2.7-9.1-3.3-32,16.8-20.4,15.5-12.1-4.9-3-12,9.1-7.1,21.1-18.9,22-23.2.9-4.4-7.7-9.1-5.9-22.8.3-1.5.3-1.6,1-3.4,3.1-7.2,4.6,1,9.2,7.4,5.2,7.1,8.8,8.5,8.8,8.5,0,0,37.1-22.1,66.1-26.3"/>
            <path class="cls-4" d="M296.6,77.7s-66.3-41.4-28.2-71.2c28.5-16.6,34.9,23.1,34.9,23.1,0,0,15-29.3,33.2-17.1,20.1,13.4-7,36.9-18.8,45.1-1.5-2.1,15-17.9,7.3-23.8-7.3-5.7-13.2,2.1-21.5,11.8-4.4,5.2-9.2-26.1-22.6-18.6-11.8,6.6-1.1,27.5,13.7,45.5,3,3.7,2,5.2,2,5.2"/>
            <path class="cls-3" d="M296.7,77.6s-61.1-48.5-25.2-71.9c29.1-14.6,35,26.3,35,26.3,0,0,15-31.8,32-18.4,18.8,14.8-8.1,37.3-20.2,44.7-1.3-2.2,16.8-20.2,9.7-26.7-6.8-6.2-18.3,5.3-23.4,12.4-3.9,5.5-7.7-26-21.4-19.5-12,5.7-1.5,28.8,11.9,47.8,2.7,3.9,1.6,5.4,1.6,5.4"/>
          </g>
          <g>
            <path class="cls-4" d="M455.9,122.8c.6,0,1.2.2,1.7.4.6.3,1,.7,1.3,1.3.3.6.5,1.1.5,1.7s-.2,1.2-.5,1.7c-.3.6-.7,1-1.3,1.3-.6.3-1.1.5-1.7.5s-1.2-.2-1.7-.5c-.6-.3-1-.7-1.3-1.3-.3-.6-.5-1.1-.5-1.7s.2-1.2.5-1.7c.3-.6.7-1,1.3-1.3.6-.3,1.1-.4,1.7-.4ZM455.9,123.4c-.5,0-1,.1-1.4.4-.5.3-.8.6-1.1,1.1-.3.5-.4,1-.4,1.5s.1,1,.4,1.4c.3.5.6.8,1.1,1.1.5.3.9.4,1.4.4s1-.1,1.5-.4c.5-.3.8-.6,1.1-1.1.3-.5.4-.9.4-1.4s-.1-1-.4-1.5c-.3-.5-.6-.8-1.1-1.1-.5-.3-.9-.4-1.4-.4ZM454.4,128.2v-3.8h1.3c.4,0,.8,0,1,.1.2,0,.4.2.5.4.1.2.2.4.2.5,0,.3,0,.5-.3.7-.2.2-.5.3-.8.3.1,0,.2.1.3.2.2.1.3.4.6.7l.5.7h-.7l-.3-.6c-.3-.5-.5-.8-.6-.9-.1,0-.3-.1-.5-.1h-.4v1.6h-.6ZM455,126.1h.7c.4,0,.6,0,.7-.2.1-.1.2-.2.2-.4s0-.2,0-.3c0,0-.2-.2-.3-.2-.1,0-.3,0-.6,0h-.7v1.1Z"/>
            <g>
              <path class="cls-4" d="M256.1,123H2.5v6.4h253.6v-6.4ZM68.1,192.1c0,6.6,5.8,6.6,5.8,6.6h19.7v-8c-2.9,0-6.2-3.6-6.2-3.6v-29.5c0-7.6-7-7.7-7-7.7H4.6v8.6c7.3,0,6.5,5.2,6.5,5.2v34h22.1v-35.9c0-.5.5-3.6,3.9-3.6s3.3,3.6,3.3,3.6v36h19.8v-35.8s-.5-4.1,3.9-4.1,4.1,4.1,4.1,4.1v29.9ZM281.1,123h-16.9v22.7h16.9v-22.7ZM2.5,209.5h144.4v-6.4H2.5v6.4ZM358.2,197.9h31.9c8,0,7-7.2,7-7.2v-11.7h-18.7v4.5s-.3,3.6-3.6,3.6-3.5-3.2-3.5-3.2v-8.4h25.8v-15.6c0-11-9.8-10.1-9.8-10.1h-23c-12.1,0-10.8,8.8-10.8,8.8v34c0,5.7,4.7,5.2,4.7,5.2ZM374.9,160.4c2.3,0,4.1,1.4,4.1,3.2s-1.8,3.2-4.1,3.2-4.1-1.4-4.1-3.2,1.8-3.2,4.1-3.2ZM331.8,197.6h18.9v-8.9c-3.7-.9-4-4.8-4-4.8v-61h-19.8v69.9c0,4.8,4.9,4.8,4.9,4.8ZM256.8,159.5c0-10.2-10.4-9.8-10.4-9.8h-41.6v11.6l4.7,3.1v33.6h19.1v-33.9s-.8-4.7,3.9-4.7,4.4,4.5,4.4,4.5v30.4c0,3.5,3.3,3.5,3.3,3.5h20.5v-8.9c-4.1,0-3.9-2.9-3.9-2.9v-26.5ZM319.5,156.7h2.5v-7.7h-6.9v-9.8c0-5.2,2.8-4.3,2.8-4.3h5.3v-12.4h-18.3c-10.8,0-9.8,9.7-9.8,9.7v16.5h-6v8.9c6.2,0,6,4.3,6,4.3v56h19.9v-56.1c0-5.4,4.5-5,4.5-5ZM437.2,171.1l15.6-21h-20.1l-5.1,7.2-5.2-7.3h-18.6l14,20.3-28.7,38.5h21l17.7-24.2,16.6,23.9h19.8l-27-37.5ZM152.6,156v36.7s-.3,5.6,6.6,5.6h19.1v10.2s0,3.1-4,3.1-4-3.6-4-3.6v-3.7h-18.3v11s.5,4.9,5.6,4.9h32.4s6,1.5,6-8.6v-48l3.2-3.3v-10.8h-40.3s-6.4-.8-6.4,6.5ZM171.2,185v-21.5c0-1.3.7-4,4.3-4s4.1,3.6,4.1,3.6v21.8s-.5,3.9-4.5,3.9-3.9-3.7-3.9-3.7ZM281.3,149.7h-17.4v44.3c0,4.1,4.3,3.7,4.3,3.7h20.9v-10.2h-7.7v-37.7ZM143.4,185.5v-28.3s.3-7.7-7.7-7.7h-30.7s-7.8-.7-7.8,7.7v8h19.4s-.5-4.3,3.5-4.3,4.3,3.2,4.3,4.3v4.3h-22.5s-5.3-.1-5.3,6.5v16s-.8,6.4,7.6,6.4h44v-8.6s-4.7.4-4.7-4.1ZM124.1,187.8h-7.6v-8.8h7.6v8.8ZM200.2,209.5h86.8v-6.4h-86.8v6.4ZM448.3,123h-96.3v6.4h96.3v-6.4Z"/>
              <rect class="cls-4" x="322.7" y="203" width="61" height="6.4"/>
            </g>
          </g>
        </g>
      </g>
    </g>
  </g>
</svg>