<svg width="54" height="54" viewBox="0 0 54 54" fill="none" xmlns="http://www.w3.org/2000/svg">
<path fill-rule="evenodd" clip-rule="evenodd" d="M52.1768 51.7343C51.9777 51.9733 51.7476 52.1857 51.4865 52.3583C51.6857 52.1193 51.9158 51.9069 52.1768 51.7343ZM49.6766 0H4.32336C1.94264 0 0 1.93821 0 4.32336V49.6722C0 52.0574 1.94264 53.9956 4.32336 53.9956H49.6722C52.0574 53.9956 53.9956 52.0529 53.9956 49.6722V4.32336C53.9956 1.93821 52.0574 0 49.6722 0" fill="white"/>
<path fill-rule="evenodd" clip-rule="evenodd" d="M38.5207 22.993C38.2375 28.5111 31.3962 30.383 26.8693 30.4361C26.1391 30.4449 25.4001 30.3785 24.6744 30.2856C29.9979 29.7458 37.6489 27.1039 38.0914 20.9264C38.3614 21.5681 38.5517 22.2938 38.5163 22.9974M21.3556 29.4847C20.559 29.1926 19.7935 28.8297 19.0678 28.3917C24.8514 28.7811 36.0869 25.4843 35.7682 18.0943C36.2948 18.4926 36.7683 18.9528 37.1887 19.4573C37.0737 26.6526 27.1746 29.6351 21.3556 29.4847ZM17.4437 27.1482C17.072 26.7898 16.7357 26.4003 16.4436 25.9755C21.6565 26.2587 32.3742 22.7584 32.6043 16.4084C33.2769 16.6518 33.9274 16.9482 34.5513 17.2978C35.1133 24.5462 22.9088 27.7677 17.4437 27.1482ZM15.7666 24.6657C15.6029 24.2055 15.5011 23.7276 15.4701 23.2452C20.0324 22.5682 27.5862 20.1609 29.7146 15.6694C30.2368 15.7535 30.759 15.8597 31.2723 15.9924C30.5245 21.63 20.5723 24.763 15.7666 24.6657ZM49.6765 1.08411H4.32319C2.53543 1.08411 1.08398 2.53555 1.08398 4.32331V32.1397C19.1341 34.2328 36.4143 34.2284 52.9112 32.1397V4.32331C52.9112 2.53555 51.4598 1.08411 49.672 1.08411" fill="#800732"/>
<path fill-rule="evenodd" clip-rule="evenodd" d="M46.0925 38.5209C46.0925 38.4235 46.0615 38.3527 45.9995 38.3217C45.9376 38.2908 45.8446 38.2731 45.7075 38.2731H45.5039V38.7687H45.7207C45.8225 38.7687 45.8977 38.7598 45.9508 38.7377C46.0438 38.6979 46.0925 38.6271 46.0925 38.5253" fill="#535F6B"/>
<path fill-rule="evenodd" clip-rule="evenodd" d="M13.3069 38.7952C11.6784 38.7952 10.3818 40.0917 10.3818 42.3928C10.3818 44.8753 11.7448 46.3356 13.4573 46.3356C15.1698 46.3356 16.3956 45.0258 16.3956 42.7291C16.3956 40.2555 15.0017 38.7996 13.3024 38.7996" fill="#535F6B"/>
<path fill-rule="evenodd" clip-rule="evenodd" d="M34.8521 43.2823C34.7813 43.3 33.6706 43.7204 33.3696 43.9372C32.9493 44.2204 32.874 44.4195 32.874 44.9152C32.874 45.3267 33.0687 45.7427 33.5776 45.7427C34.1485 45.7427 34.9583 45.1939 34.9583 44.9506V43.4195C34.9671 43.2911 34.9361 43.2602 34.8521 43.2867" fill="#535F6B"/>
<path fill-rule="evenodd" clip-rule="evenodd" d="M46.6457 39.6758C46.4156 39.9148 46.097 40.0475 45.7651 40.0431C45.4332 40.0475 45.1146 39.9148 44.8845 39.6758C44.65 39.4457 44.5172 39.1227 44.5216 38.7908C44.5216 38.4456 44.6455 38.158 44.8845 37.9146C45.1146 37.6801 45.4332 37.5473 45.7607 37.5518C46.1058 37.5518 46.3979 37.6712 46.6413 37.9146C46.8847 38.158 47.0041 38.4501 47.0041 38.7908C47.0041 39.1315 46.8847 39.428 46.6413 39.6758H46.6457ZM44.8358 46.3312C44.5924 46.3755 44.2561 46.4065 43.7915 46.4065C42.0701 46.4065 42.0524 45.0833 42.0524 44.7515V38.4456C42.4374 38.3748 43.1056 38.2288 43.2605 38.1978V40.3484H44.5438V41.1848H43.2605V44.0744C43.2605 45.3533 43.2959 45.9595 44.6013 45.7958L44.8402 45.7692V46.3357L44.8358 46.3312ZM38.8929 46.4065H35.7687C35.2288 46.4065 35.1094 46.0879 34.9456 45.6188C34.065 46.2339 33.6181 46.4065 32.9897 46.4065C31.8171 46.4065 31.5737 45.5436 31.5737 45.1143C31.5737 44.4329 32.0295 43.5567 34.9678 42.5787V41.676C34.9633 40.9857 34.3836 40.9414 34.034 41.0255C33.6535 41.1184 33.3703 41.2866 33.1579 41.4282C32.8216 41.6539 32.1047 42.1451 31.8613 42.3044C31.8613 42.3044 31.8126 42.3353 31.7728 42.3309C31.7418 42.3309 31.7064 42.3088 31.7064 42.3088C31.5604 42.2291 31.4719 42.0743 31.4675 41.9105C31.4675 41.5521 31.5692 41.3751 32.6977 40.7113C33.8216 40.0564 33.9854 40.0431 34.3173 40.0431C34.7952 40.0431 36.1758 40.3617 36.1758 41.5786V45.3223C36.1758 45.5391 36.3218 45.7604 36.4635 45.8135C36.4856 45.84 37.6007 45.8268 38.8574 45.8268C39.6451 45.8268 40.2071 45.2338 40.2071 44.7692C40.2071 43.3664 36.9237 43.8133 36.9237 41.9149C36.9237 40.8219 37.9414 40.0387 39.1982 40.0387C39.8885 40.0387 40.7558 40.2068 40.8178 40.2201C41.1939 40.2776 41.0479 40.8042 40.9682 41.0299C40.9505 41.0786 40.9019 41.1228 40.8488 41.114C40.8488 41.114 39.5168 40.906 39.1318 40.8927C38.4636 40.8662 38.114 41.1405 38.0963 41.5167C38.0742 41.9857 38.3618 42.1982 38.6937 42.3442C40.2646 43.0124 41.3444 42.9726 41.3444 44.4815C41.3444 45.1364 40.955 46.402 38.9017 46.402L38.8929 46.4065ZM31.0692 46.3312C30.8656 46.3666 30.5957 46.3976 30.2417 46.4065C30.1709 46.4065 30.1001 46.4065 30.0249 46.4065C29.5381 46.4065 29.0204 46.1808 29.0292 45.4285V37.5208C29.4806 37.3792 29.7992 37.2464 30.2417 37.0517V45.3002C30.2682 45.9241 30.5957 45.8223 30.8347 45.7914C30.9276 45.7781 30.9763 45.7737 31.0736 45.7604V46.3312H31.0692ZM28.2637 46.3312C28.0203 46.3755 27.684 46.4065 27.2193 46.4065C25.4979 46.4065 25.4802 45.0833 25.4802 44.7515V38.4456C25.8652 38.3748 26.5334 38.2288 26.6883 38.1978V40.3484H27.9716V41.1848H26.6883V44.0744C26.6883 45.3533 26.7237 45.9595 28.0291 45.7958L28.2681 45.7692V46.3357L28.2637 46.3312ZM24.4271 46.4065H23.2279C23.2279 46.0303 23.219 45.6675 23.2279 45.6188C22.449 46.2295 21.8472 46.402 20.9932 46.4065C19.5107 46.4065 19.0461 45.3577 19.0461 43.9682L19.0372 40.344H20.2453V44.0213C20.2453 45.0258 20.6436 45.6011 21.7499 45.6011C22.2897 45.6011 23.2323 45.309 23.2323 44.8931V40.3484H24.4359L24.4271 46.4109V46.4065ZM13.3775 46.6941C10.8242 46.6941 8.67356 44.9152 8.67356 42.5654C8.67356 40.2157 10.8065 38.4501 13.4129 38.4501C16.0193 38.4501 18.1168 40.2157 18.1168 42.5654C18.1168 44.9152 16.0016 46.6941 13.3775 46.6941ZM1.08887 33.2284V49.6766C1.08887 51.4644 2.53589 52.9158 4.32807 52.9158H49.6813C51.4691 52.9158 52.9205 51.4644 52.9205 49.6766V33.2284C36.4059 35.3126 19.1257 35.3126 1.09329 33.2284H1.08887Z" fill="#535F6B"/>
<path fill-rule="evenodd" clip-rule="evenodd" d="M46.1011 39.4722V39.4589L46.0923 39.4412V39.397V39.2864C46.0923 39.127 46.048 39.0253 45.964 38.9722C45.9109 38.9412 45.8224 38.9279 45.6984 38.9279H45.5082V39.4678H45.2692V38.1004H45.7471C45.9153 38.1004 46.0392 38.1181 46.1188 38.1491C46.2604 38.2066 46.3312 38.3217 46.3312 38.4943C46.3312 38.6137 46.287 38.7067 46.1985 38.7642C46.1365 38.7996 46.0702 38.8217 45.9994 38.8306C46.1056 38.8483 46.1852 38.8925 46.2339 38.9633C46.2826 39.0253 46.3047 39.1005 46.3091 39.1757V39.3793C46.3135 39.4147 46.318 39.4368 46.3224 39.4501L46.3312 39.4678H46.1056L46.1011 39.4722ZM45.7648 37.7199C45.4683 37.7199 45.2161 37.8261 45.0081 38.034C44.8046 38.2332 44.6939 38.5075 44.6984 38.7907C44.6984 39.0872 44.8001 39.3439 45.0081 39.5519C45.2161 39.7598 45.4683 39.866 45.7648 39.866C46.0613 39.866 46.3135 39.7598 46.5215 39.5519C46.7295 39.3395 46.8357 39.0872 46.8357 38.7907C46.8357 38.4943 46.7295 38.242 46.5215 38.034C46.3224 37.8261 46.048 37.7154 45.7648 37.7199Z" fill="#535F6B"/>
</svg>
