<?xml version="1.0" encoding="utf-8"?>
<!-- Generator: Adobe Illustrator 16.0.0, SVG Export Plug-In . SVG Version: 6.00 Build 0)  -->
<!DOCTYPE svg PUBLIC "-//W3C//DTD SVG 1.1//EN" "http://www.w3.org/Graphics/SVG/1.1/DTD/svg11.dtd">
<svg version="1.1" id="Livello_1" xmlns="http://www.w3.org/2000/svg" xmlns:xlink="http://www.w3.org/1999/xlink" x="0px" y="0px"
	 width="50px" height="50px" viewBox="0 0 50 50" enable-background="new 0 0 50 50" xml:space="preserve">
<path fill="#FFFFFF" d="M25,0.25C11.331,0.25,0.25,11.331,0.25,25S11.331,49.75,25,49.75S49.75,38.669,49.75,25S38.669,0.25,25,0.25
	z M25,47.75C12.456,47.75,2.25,37.544,2.25,25C2.25,12.456,12.456,2.25,25,2.25c12.544,0,22.75,10.206,22.75,22.75
	C47.75,37.544,37.544,47.75,25,47.75z"/>
<path fill="#FFFFFF" d="M37.343,23.918L18.77,13.195c-0.487-0.282-1.088-0.282-1.576,0c-0.487,0.282-0.788,0.802-0.788,1.365v21.446
	c0,0.563,0.301,1.083,0.788,1.365c0.244,0.141,0.517,0.211,0.788,0.211c0.272,0,0.545-0.07,0.788-0.211l18.573-10.723
	c0.488-0.282,0.789-0.803,0.789-1.366C38.132,24.721,37.831,24.2,37.343,23.918z"/>
</svg>
