<svg width="68" height="43" viewBox="0 0 68 43" fill="none" xmlns="http://www.w3.org/2000/svg">
<path d="M0.927734 21.5001C0.927734 10.1522 15.7344 0.946411 34.0002 0.946411C52.266 0.946411 67.0726 10.1522 67.0726 21.5001C67.0726 32.8479 52.266 42.0537 34.0002 42.0537C15.7344 42.0537 0.927734 32.8605 0.927734 21.5001Z" fill="white"/>
<path d="M0.927543 21.5H1.85509C1.85509 18.8764 2.70604 16.3669 4.28882 14.039C6.65874 10.5493 10.705 7.49479 15.8618 5.3317C21.0144 3.1686 27.2647 1.89271 33.9957 1.89271C42.9776 1.89271 51.0915 4.16565 56.8993 7.77785C59.801 9.58184 62.1241 11.7154 63.7069 14.0432C65.2897 16.3711 66.1364 18.8806 66.1407 21.5042C66.1407 24.1278 65.2897 26.6374 63.7069 28.9652C61.337 32.4549 57.2907 35.5094 52.1339 37.6725C46.9813 39.8356 40.7311 41.1115 33.9957 41.1115C25.0181 41.1115 16.9 38.8428 11.0965 35.2306C8.19046 33.4266 5.87161 31.2931 4.28882 28.9652C2.70604 26.6331 1.85509 24.1278 1.85509 21.5H0C0 24.5503 0.999875 27.4527 2.76561 30.0425C5.41634 33.9294 9.75622 37.1529 15.1555 39.4216C20.5591 41.6903 27.0349 43 34 43C43.2882 43 51.7042 40.6679 57.8693 36.8402C60.9498 34.9222 63.4729 32.6281 65.2344 30.0383C66.9959 27.4485 68 24.5503 68 21.5C68 18.4497 67.0001 15.5515 65.2344 12.9617C62.5837 9.07487 58.2438 5.85135 52.8444 3.58263C47.4409 1.31391 40.9651 0 34 0C24.7161 0 16.2958 2.33209 10.1306 6.15976C7.05018 8.07782 4.52709 10.3719 2.76561 12.9617C0.999875 15.5515 0 18.4497 0 21.5H0.927543Z" fill="#AB0A3C"/>
<path d="M7.80762 21.4873C7.80762 13.6503 19.5253 7.28772 33.9916 7.28772C48.4578 7.28772 60.1755 13.646 60.1755 21.4873C60.1755 29.3285 48.4578 35.6868 33.9916 35.6868C19.5253 35.6868 7.80762 29.3285 7.80762 21.4873Z" fill="#144380"/>
<path d="M26.1712 11.3183C26.1712 11.3183 26.7669 11.1155 27.0435 10.8493C27.32 10.579 27.6817 9.87341 27.6817 9.87341C27.6817 9.87341 27.9242 10.6339 28.154 10.9043C28.3837 11.1747 29.1879 11.5971 29.1879 11.5971C29.1879 11.5971 28.6816 11.5971 28.3071 11.8337C27.9327 12.0703 27.6221 12.911 27.6221 12.911C27.6221 12.911 27.5328 12.3069 27.2052 11.9816C26.8946 11.6436 26.167 11.3183 26.167 11.3183" fill="#AB0A3C"/>
<path d="M16.3171 29.4046C15.8959 28.5427 17.3978 26.8148 20.1635 24.7277V23.6842C15.6747 26.8148 13.0835 29.4257 13.7132 30.7143C14.6961 32.7337 22.9759 30.6678 32.9278 25.9276L32.6427 25.1882C24.1076 29.2609 17.1 31.0184 16.3171 29.4046ZM29.358 19.0073L29.8431 17.7948C29.0389 18.2088 28.2561 18.6356 27.4945 19.0496C27.4051 19.4298 27.2732 19.8565 27.0647 20.2705C27.805 19.8438 28.5752 19.4171 29.358 19.0031M23.8226 22.0323C24.0311 21.9774 26.8307 20.9338 26.8307 18.2638C26.8307 17.0513 25.8947 15.9655 24.0736 15.9655C23.2694 15.9655 22.3419 15.9866 21.793 15.9866C20.857 15.9866 20.3932 15.8979 20.1166 15.8979C19.8401 15.8979 19.6742 15.9444 19.6742 16.088C19.6742 16.2105 19.8826 16.257 20.4017 16.2992C20.7549 16.333 20.9761 16.557 20.9761 16.9963V24.9685C20.9761 25.3065 20.8102 25.5051 20.4145 25.5304C20.0401 25.5431 19.8614 25.5642 19.8614 25.767C19.8614 25.9233 19.9507 25.9783 20.1252 25.9783C20.4996 25.9783 20.6315 25.9107 21.976 25.9107C23.2099 25.9107 23.4652 25.9783 23.729 25.9783C23.8821 25.9783 23.9502 25.9107 23.9502 25.7543C23.9502 25.5727 23.8183 25.5642 23.3673 25.5304C22.7291 25.484 22.627 25.2389 22.627 24.9685V16.9076C22.627 16.7175 22.6482 16.6499 22.6823 16.6499C22.7716 16.6499 23.9928 16.4809 24.4906 17.1569C25.2096 17.9089 25.316 18.7707 25.1756 19.5777C25.0862 20.1058 24.614 21.0564 23.6864 21.6183C23.4652 21.8084 23.5971 22.0999 23.8183 22.0323M30.4643 21.8084C30.2771 21.8084 30.2345 21.7873 30.2345 21.7619C30.2345 21.7154 30.2218 21.7492 30.677 20.5156C31.3833 18.6525 31.3365 18.4539 31.4471 18.4539C31.4599 18.4539 32.6044 21.6605 32.6044 21.7746C32.6044 21.8211 32.5619 21.8211 32.4172 21.8211L30.4643 21.8084ZM33.7149 24.6348C33.8894 25.0953 33.9787 25.3065 34 25.3952C34.0341 25.7079 33.6341 25.598 33.6341 25.7332C33.6341 25.8473 33.6767 25.9233 33.9107 25.9233C34.1447 25.9233 33.8766 25.9107 35.0339 25.9107C35.8168 25.9107 36.3146 25.9233 36.655 25.9233C37.0422 25.9233 37.106 25.8557 37.106 25.7459C37.106 25.5558 36.8507 25.598 36.3572 25.4755C36.0253 25.3868 35.7955 25.1291 35.2211 23.8616L35.0892 23.5828C34.9446 23.2448 34.7786 22.8561 34.5829 22.3956C33.5022 19.7847 32.898 18.1919 32.5449 17.2245L32.4343 16.933C32.0386 15.8345 32.013 15.7204 31.8301 15.712C31.5408 15.6909 31.5535 15.7331 30.7494 17.7864L30.5834 18.2131C30.3622 18.7961 30.0771 19.5016 29.7112 20.3677C27.9795 24.5967 27.8689 25.3445 27.3838 25.5051C26.9328 25.6529 26.5584 25.5389 26.5584 25.7755C26.5584 25.8895 26.6265 25.9318 26.7669 25.9318C26.9754 25.9318 27.3413 25.8642 28.3667 25.8642C28.8858 25.8642 29.3708 25.9318 29.558 25.9318C29.8771 25.9318 29.9452 25.8177 29.9452 25.729C29.9452 25.5135 29.5367 25.6952 29.3495 25.6487C28.7326 25.5008 29.107 24.8291 29.5367 23.4941C29.8346 22.5731 29.9239 22.4717 30.243 22.4717H32.6895C32.9661 22.4717 32.9193 22.5266 33.349 23.6842C33.4384 23.9292 33.5235 24.1447 33.5916 24.3348L33.7149 24.639V24.6348ZM48.177 15.9232C47.9685 15.9232 47.9472 15.9782 47.9472 16.0922C47.9472 16.295 48.1685 16.2359 48.3089 16.2697C48.7811 16.3499 48.9684 16.5401 48.9684 16.9414V24.8038C48.9684 25.2854 48.9684 25.522 48.2833 25.6318C48.0621 25.6656 47.943 25.6107 47.943 25.7881C47.943 25.9022 47.9855 25.9783 48.2748 25.9783C49.0364 25.9783 49.4874 25.9107 51.2745 25.9107C52.8828 25.9107 53.1721 25.9656 53.6018 25.9656C53.9209 25.9656 54.1422 25.8304 54.1422 25.6065L54.2528 24.5545C54.2528 24.2419 54.3294 23.9039 54.189 23.9039C54.0358 23.9039 54.0018 24.2165 53.9465 24.3855C53.6486 25.2051 53.1423 25.2136 52.1041 25.2727C51.751 25.2938 50.6915 25.2854 50.6915 24.1405V21.3605C50.6915 21.0902 50.6703 20.9888 51.2957 20.9888C52.3977 20.9888 53.1381 20.9423 53.2359 21.369C53.4104 21.9182 53.2019 22.1295 53.4444 22.1295C53.6316 22.1295 53.6316 21.9731 53.6316 21.6816C53.6316 21.369 53.7422 20.5367 53.7422 20.2114C53.7422 20.0086 53.8103 19.8058 53.6188 19.8734C53.5423 19.8945 53.4529 20.0847 53.0998 20.1649C52.6275 20.279 51.7893 20.2874 51.0404 20.2874C50.6447 20.2874 50.7001 20.3086 50.7001 20.0847V17.2583C50.7001 16.8865 50.6873 16.7428 51.4489 16.7428C52.6615 16.7428 53.2359 16.6541 53.4784 17.2583C53.5678 17.4695 53.4572 17.9765 53.7124 17.9765C53.8231 17.9765 53.8997 17.7399 53.8997 17.5287L54.0103 16.1387C54.0103 15.9021 53.9209 15.7923 53.6571 15.8937C53.3508 15.9951 52.7083 16.0162 51.0447 16.0162C49.062 16.0035 48.3429 15.9148 48.177 15.9148M46.0496 17.047C45.0923 16.0162 43.7988 15.4205 42.2798 15.4205C39.3696 15.4205 37.0124 17.799 37.0124 20.7353C37.0124 21.331 37.1103 21.8886 37.289 22.4294L37.3996 22.7209C38.1697 24.6855 40.0801 26.0627 42.2926 26.0627C43.8711 26.0627 45.2922 25.3572 46.2495 24.2461L46.1517 24.1785C45.3475 25.0403 44.2328 25.5684 43.0202 25.5811C40.7609 25.6022 38.6973 23.4518 38.6973 20.7944C38.6973 18.137 40.6375 15.9063 43.0499 15.9063C44.2966 15.9063 45.3305 16.4556 46.224 17.4104L46.2921 17.3428L46.0496 17.0513V17.047ZM17.6744 16.4767C17.6744 16.2739 17.6744 16.1302 17.5978 16.0162C17.4872 15.8599 16.6958 15.7585 15.5598 15.7585C13.8749 15.7585 12.7942 16.9921 12.7814 18.3271C12.7388 21.3436 16.5384 21.5549 16.5639 23.9123C16.5724 24.9559 15.747 25.4164 14.7897 25.4164C13.9727 25.4164 13.5643 25.1122 13.1473 24.3644C12.7814 23.7138 13.1133 23.211 12.7601 23.211C12.4963 23.211 12.5048 23.0547 12.5048 25.4417C12.5048 26.0247 14.2153 26.1726 14.6237 26.1726C16.8617 26.1388 18.0063 24.6474 18.0063 23.1223C18.0063 21.5971 16.9809 20.824 15.8236 19.8607C14.611 18.851 14.1259 18.6398 14.1259 17.7061C14.1259 16.7175 15.0832 16.4387 15.6364 16.4387C15.998 16.4387 16.5724 16.4513 17.0021 17.0766C17.4191 17.6934 17.1766 18.2426 17.4872 18.2426C17.6616 18.2426 17.6872 17.93 17.6872 17.7019V16.4809H17.6787L17.6744 16.4767ZM16.9596 12.3955C16.9596 12.3955 17.1596 12.4842 17.2447 12.573C17.334 12.6617 17.3553 12.8307 17.3553 12.8307C17.3553 12.8307 17.4446 12.5941 17.5425 12.5392C17.6404 12.4716 17.7723 12.4716 17.7723 12.4716C17.7723 12.4716 17.5425 12.3153 17.4744 12.2477C17.4064 12.1674 17.3638 12.0026 17.3638 12.0026C17.3638 12.0026 17.2659 12.1927 17.1851 12.273C17.1085 12.3406 16.9553 12.3955 16.9553 12.3955M30.7026 28.9905C30.7026 28.9905 30.9578 29.1046 31.0685 29.2144C31.1791 29.3285 31.2131 29.5271 31.2131 29.5271C31.2131 29.5271 31.3238 29.2356 31.4429 29.1553C31.5663 29.075 31.7407 29.075 31.7407 29.075C31.7407 29.075 31.4429 28.8849 31.3663 28.7962C31.2897 28.7075 31.2344 28.492 31.2344 28.492C31.2344 28.492 31.1025 28.7286 31.0132 28.83C30.9025 28.9187 30.7068 28.9863 30.7068 28.9863M10.9518 26.5993C10.9518 26.5993 11.1518 26.688 11.2369 26.7767C11.3263 26.8655 11.3475 27.0345 11.3475 27.0345C11.3475 27.0345 11.4369 26.7979 11.5347 26.7429C11.6326 26.6753 11.7645 26.6753 11.7645 26.6753C11.7645 26.6753 11.5347 26.519 11.4667 26.4514C11.3986 26.3712 11.356 26.2064 11.356 26.2064C11.356 26.2064 11.2582 26.3965 11.1816 26.4768C11.1135 26.5444 10.9518 26.5993 10.9518 26.5993ZM53.3848 14.1066C53.3848 14.1066 53.5848 14.1953 53.6699 14.284C53.7592 14.3727 53.7805 14.5417 53.7805 14.5417C53.7805 14.5417 53.8699 14.3178 53.9677 14.2502C54.0656 14.1826 54.2103 14.1826 54.2103 14.1826C54.2103 14.1826 53.9677 14.0263 53.9124 13.9587C53.8486 13.8784 53.8018 13.7094 53.8018 13.7094C53.8018 13.7094 53.7039 13.8996 53.6273 13.9798C53.5508 14.0474 53.3848 14.1023 53.3848 14.1023M55.1038 27.5034C55.1038 27.5034 55.3037 27.5921 55.3888 27.6808C55.4782 27.7696 55.508 27.9386 55.508 27.9386C55.508 27.9386 55.5973 27.702 55.6952 27.647C55.793 27.5795 55.9377 27.5795 55.9377 27.5795C55.9377 27.5795 55.6952 27.4231 55.6399 27.3555C55.5718 27.2753 55.5292 27.1105 55.5292 27.1105C55.5292 27.1105 55.4314 27.3006 55.3505 27.3809C55.2612 27.4485 55.0995 27.5034 55.0995 27.5034M26.7796 33.6167C26.7796 33.6167 26.9796 33.7054 27.0647 33.7941C27.1541 33.8828 27.1753 34.0518 27.1753 34.0518C27.1753 34.0518 27.2647 33.8153 27.3626 33.7603C27.4604 33.6927 27.6051 33.6927 27.6051 33.6927C27.6051 33.6927 27.3626 33.5364 27.3072 33.4688C27.2434 33.3885 27.1966 33.2238 27.1966 33.2238C27.1966 33.2238 27.0988 33.4139 27.0222 33.4942C26.9456 33.5618 26.7796 33.6167 26.7796 33.6167ZM44.5051 28.906C44.5051 28.906 44.7263 29.0074 44.8242 29.0962C44.9221 29.1975 44.9476 29.375 44.9476 29.375C44.9476 29.375 45.0369 29.1173 45.1561 29.0497C45.2667 28.9821 45.4199 28.9821 45.4199 28.9821C45.4199 28.9821 45.1561 28.8131 45.088 28.737C45.0114 28.6568 44.9646 28.4667 44.9646 28.4667C44.9646 28.4667 44.854 28.6821 44.7774 28.7582C44.6795 28.8384 44.5008 28.9018 44.5008 28.9018M46.2878 31.7747C46.2878 31.7747 46.5729 31.8972 46.6963 32.0197C46.8154 32.1422 46.8495 32.3788 46.8495 32.3788C46.8495 32.3788 46.9729 32.0535 47.1133 31.9648C47.2537 31.8761 47.4451 31.8761 47.4451 31.8761C47.4451 31.8761 47.2154 31.6733 47.126 31.5719C47.0367 31.4705 46.8622 31.2128 46.8622 31.2128C46.8622 31.2128 46.7176 31.4832 46.6197 31.5846C46.5219 31.7071 46.2878 31.7747 46.2878 31.7747ZM36.1146 9.2565C36.1146 9.2565 36.3997 9.37902 36.5231 9.51421C36.6465 9.63673 36.6763 9.87332 36.6763 9.87332C36.6763 9.87332 36.7997 9.54801 36.9401 9.45929C37.0847 9.37057 37.2805 9.37057 37.2805 9.37057C37.2805 9.37057 37.0507 9.16778 36.9614 9.06638C36.872 8.96499 36.6976 8.70728 36.6976 8.70728C36.6976 8.70728 36.5529 8.97766 36.455 9.07906C36.3444 9.18045 36.1146 9.2565 36.1146 9.2565ZM37.557 27.8963C37.557 27.8963 37.8761 28.0315 38.008 28.1751C38.1527 28.3103 38.1825 28.5807 38.1825 28.5807C38.1825 28.5807 38.3144 28.2216 38.4675 28.1202C38.6207 28.0188 38.842 28.0188 38.842 28.0188C38.842 28.0188 38.5867 27.7949 38.4888 27.6808C38.391 27.5668 38.2037 27.2753 38.2037 27.2753C38.2037 27.2753 38.0506 27.5795 37.9272 27.6893C37.8038 27.8118 37.5528 27.8921 37.5528 27.8921M49.7342 28.7666C49.7342 28.7666 50.0661 28.9103 50.2193 29.0708C50.3639 29.2144 50.4065 29.4975 50.4065 29.4975C50.4065 29.4975 50.5469 29.1173 50.7128 29.0159C50.8788 28.9018 51.1085 28.9018 51.1085 28.9018C51.1085 28.9018 50.832 28.6652 50.7341 28.5427C50.6235 28.4202 50.4277 28.116 50.4277 28.116C50.4277 28.116 50.2618 28.4286 50.1427 28.5512C50.0108 28.6737 49.7342 28.7666 49.7342 28.7666ZM33.4724 12.0449C33.4724 12.0449 33.8043 12.1885 33.9575 12.3491C34.1021 12.4927 34.1447 12.7758 34.1447 12.7758C34.1447 12.7758 34.2893 12.3955 34.4553 12.2815C34.6212 12.1674 34.851 12.1674 34.851 12.1674C34.851 12.1674 34.5744 11.9308 34.4766 11.8083C34.3659 11.6858 34.166 11.3816 34.166 11.3816C34.166 11.3816 34 11.6942 33.8809 11.8167C33.749 11.9604 33.4724 12.0406 33.4724 12.0406M23.3077 12.8941C23.3077 12.8941 23.6396 13.0377 23.7928 13.1982C23.9374 13.3419 23.98 13.6249 23.98 13.6249C23.98 13.6249 24.1247 13.2447 24.2906 13.1306C24.4565 13.0166 24.6863 13.0166 24.6863 13.0166C24.6863 13.0166 24.4097 12.78 24.3119 12.6575C24.2012 12.5349 24.0055 12.2308 24.0055 12.2308C24.0055 12.2308 23.8396 12.5434 23.7162 12.6701C23.5843 12.8053 23.3077 12.8941 23.3077 12.8941ZM32.3789 33.5956C32.3789 33.5956 32.7108 33.7392 32.864 33.8997C33.0087 34.0434 33.0512 34.3265 33.0512 34.3265C33.0512 34.3265 33.1959 33.9462 33.3575 33.8448C33.5235 33.7308 33.7532 33.7308 33.7532 33.7308C33.7532 33.7308 33.4767 33.4942 33.3788 33.3716C33.2682 33.2491 33.0725 32.9449 33.0725 32.9449C33.0725 32.9449 32.9065 33.2576 32.7746 33.3843C32.6555 33.5195 32.3789 33.5956 32.3789 33.5956ZM9.14355 19.6284C9.14355 19.6284 9.53925 19.81 9.71795 19.9875C9.89665 20.1649 9.9392 20.4902 9.9392 20.4902C9.9392 20.4902 10.1051 20.0297 10.3136 19.9072C10.5221 19.7847 10.7859 19.7847 10.7859 19.7847C10.7859 19.7847 10.3434 19.5608 10.2243 19.4045C10.1009 19.2608 9.96898 18.8426 9.96898 18.8426C9.96898 18.8426 9.76901 19.2228 9.61584 19.3707C9.47117 19.527 9.14355 19.6284 9.14355 19.6284ZM56.5802 21.2887C56.5802 21.2887 56.9759 21.4662 57.1546 21.6478C57.3333 21.8253 57.3758 22.1506 57.3758 22.1506C57.3758 22.1506 57.5418 21.6901 57.7502 21.5676C57.9587 21.445 58.2225 21.445 58.2225 21.445C58.2225 21.445 57.78 21.2211 57.6609 21.0648C57.5418 20.9212 57.4056 20.5029 57.4056 20.5029C57.4056 20.5029 57.2056 20.8831 57.0525 21.031C56.9078 21.1873 56.5802 21.2887 56.5802 21.2887ZM39.8121 32.0535C39.8121 32.0535 40.2078 32.231 40.3865 32.4126C40.5609 32.5901 40.6077 32.9154 40.6077 32.9154C40.6077 32.9154 40.7736 32.4549 40.9821 32.3323C41.1906 32.2098 41.4544 32.2098 41.4544 32.2098C41.4544 32.2098 41.0119 31.9859 40.8928 31.8296C40.7694 31.6817 40.6375 31.2677 40.6375 31.2677C40.6375 31.2677 40.4375 31.6479 40.2843 31.7958C40.1312 31.9521 39.8121 32.0535 39.8121 32.0535ZM22.9674 31.8085C22.9674 31.8085 23.3631 31.9859 23.5418 32.1676C23.7162 32.345 23.763 32.6703 23.763 32.6703C23.763 32.6703 23.9289 32.2098 24.1374 32.0873C24.3459 31.9648 24.6097 31.9648 24.6097 31.9648C24.6097 31.9648 24.1672 31.7409 24.0481 31.5846C23.9247 31.4409 23.7928 31.0227 23.7928 31.0227C23.7928 31.0227 23.5928 31.4029 23.4396 31.5508C23.295 31.6944 22.9674 31.8085 22.9674 31.8085ZM28.8985 13.8193C28.8985 13.8193 29.0985 13.908 29.1836 13.9967C29.2729 14.0854 29.2942 14.2544 29.2942 14.2544C29.2942 14.2544 29.3836 14.0305 29.4814 13.9629C29.5793 13.8953 29.724 13.8953 29.724 13.8953C29.724 13.8953 29.4814 13.739 29.4134 13.6714C29.3495 13.6038 29.3027 13.4348 29.3027 13.4348C29.3027 13.4348 29.2049 13.6249 29.1283 13.7052C29.0602 13.7601 28.8985 13.8193 28.8985 13.8193ZM41.2885 10.3634C41.2885 10.3634 41.4884 10.4521 41.5735 10.5408C41.6629 10.6296 41.6842 10.7986 41.6842 10.7986C41.6842 10.7986 41.7735 10.5746 41.8714 10.507C41.9692 10.4394 42.1139 10.4394 42.1139 10.4394C42.1139 10.4394 41.8714 10.2831 41.8033 10.2155C41.7395 10.1479 41.6927 9.97049 41.6927 9.97049C41.6927 9.97049 41.5948 10.1606 41.5182 10.2409C41.4416 10.3085 41.2885 10.3634 41.2885 10.3634ZM23.6268 9.35367C23.6268 9.35367 23.8268 9.44239 23.9119 9.53111C24.0013 9.61983 24.0225 9.78882 24.0225 9.78882C24.0225 9.78882 24.1119 9.56491 24.2098 9.49731C24.3076 9.42972 24.4523 9.42972 24.4523 9.42972C24.4523 9.42972 24.2098 9.2734 24.1417 9.2058C24.0736 9.1382 24.0311 8.96921 24.0311 8.96921C24.0311 8.96921 23.9332 9.15933 23.8566 9.2396C23.78 9.29452 23.6268 9.35367 23.6268 9.35367ZM35.0127 30.4565C35.0127 30.4565 35.2126 30.5453 35.2977 30.634C35.3871 30.7227 35.4084 30.8917 35.4084 30.8917C35.4084 30.8917 35.4977 30.6678 35.5956 30.6002C35.6934 30.5326 35.8381 30.5326 35.8381 30.5326C35.8381 30.5326 35.5956 30.3763 35.5275 30.3087C35.4637 30.2411 35.4169 30.0594 35.4169 30.0594C35.4169 30.0594 35.319 30.2495 35.2424 30.3298C35.1743 30.3974 35.0127 30.4523 35.0127 30.4523M57.8438 19.6073C57.8438 19.6073 58.0438 19.696 58.1332 19.7889C58.2225 19.8776 58.2438 20.0466 58.2438 20.0466C58.2438 20.0466 58.3331 19.8227 58.431 19.7551C58.5289 19.6875 58.6735 19.6875 58.6735 19.6875C58.6735 19.6875 58.431 19.5312 58.3757 19.4636C58.3119 19.396 58.2651 19.2186 58.2651 19.2186C58.2651 19.2186 58.1672 19.4087 58.0864 19.489C58.0098 19.5566 57.8438 19.6115 57.8438 19.6115M10.4328 21.6985C10.4328 21.6985 10.6327 21.7873 10.7178 21.876C10.8072 21.9647 10.8285 22.1337 10.8285 22.1337C10.8285 22.1337 10.9178 21.9098 11.0157 21.8422C11.1135 21.7746 11.2582 21.7746 11.2582 21.7746C11.2582 21.7746 11.0157 21.6309 10.9603 21.5507C10.8923 21.4704 10.8497 21.3056 10.8497 21.3056C10.8497 21.3056 10.7519 21.4957 10.6753 21.576C10.5987 21.6563 10.4328 21.6985 10.4328 21.6985ZM18.6998 18.9947C18.6998 18.9947 18.8657 18.9397 18.9423 18.8721C19.0189 18.7919 19.1168 18.6018 19.1168 18.6018C19.1168 18.6018 19.1593 18.7707 19.2274 18.8468C19.2955 18.9271 19.5252 19.0707 19.5252 19.0707C19.5252 19.0707 19.3806 19.0707 19.2827 19.1383C19.1849 19.2059 19.0955 19.4298 19.0955 19.4298C19.0955 19.4298 19.0742 19.2608 18.9849 19.1721C18.8955 19.0834 18.6998 18.9947 18.6998 18.9947Z" fill="white"/>
<path d="M48.5723 15.1882C49.819 13.9884 50.4146 13.0251 50.1381 12.4421C49.3552 10.8155 42.0242 12.835 33.404 16.9626L33.0977 16.1768C43.1517 11.3521 51.7847 9.11294 52.7633 11.1535C53.1717 12.0069 52.1676 13.4856 50.1593 15.2811C48.934 16.2233 46.5428 17.8287 46.5428 17.8287L46.113 17.2457C46.113 17.2457 47.5001 16.1599 48.5723 15.1924" fill="white"/>
<path d="M59.9368 30.1229L59.7283 30.313L60.0942 31.3988L59.0688 30.9298L58.8688 31.1072L59.707 32.0494L59.8304 31.9353L59.1156 31.1284L60.1836 31.61L60.307 31.4959L59.9325 30.3637L60.6601 31.1833L60.792 31.0608L59.9411 30.1186L59.9368 30.1229ZM58.5497 31.6142L58.8603 31.3354L58.7625 31.2213L58.0136 31.9184L58.1115 32.0325L58.4221 31.741L59.1624 32.569L59.2943 32.455L58.554 31.6142H58.5497ZM55.8607 32.624L54.3715 32.1423L53.4355 32.7718L55.8735 33.4689L56.4266 34.3308L57.1754 33.8365L56.6138 32.9746L56.9542 30.4397L56.0181 31.0566L55.865 32.6282L55.8607 32.624ZM51.2655 35.763L52.2995 35.3278L52.3335 35.4081C52.4441 35.6869 52.2654 35.8221 52.0229 35.9362C51.7804 36.0376 51.5251 36.139 51.2826 36.2404C51.1847 36.2868 51.0826 36.3291 50.9762 36.3545C50.589 36.4558 50.4571 36.2657 50.3252 35.9277L50.2146 35.67C50.0614 35.2898 49.9848 35.0321 50.4018 34.8504C50.7209 34.7152 51.04 34.58 51.3506 34.4448C51.474 34.3984 51.5932 34.3434 51.7165 34.3308C51.8484 34.3181 51.9038 34.4322 51.9591 34.542L52.7632 34.204L52.742 34.1576C52.4356 33.4055 52.0271 33.4182 51.3506 33.6759C51.1634 33.7435 50.9762 33.8196 50.8018 33.8998C50.7252 33.9336 50.6486 33.9674 50.5805 34.0012L49.9763 34.2716C48.9509 34.7321 49.0616 35.2011 49.4487 36.1686C49.4913 36.2826 49.5466 36.3925 49.5934 36.515C50.0104 37.436 50.5507 37.3008 51.3336 36.9628L51.7634 36.7854L52.2484 36.5826C52.3931 36.5277 52.5335 36.4601 52.6781 36.3925C53.3844 36.0883 53.3632 35.6405 53.1079 35.0363C53.0313 34.8462 52.9419 34.6561 52.8653 34.466L51.0145 35.2518L51.2698 35.7672L51.2655 35.763ZM44.9046 37.4022C44.8706 37.2881 44.8493 37.1783 44.828 37.0642C44.7855 36.6502 45.0706 36.5953 45.3684 36.515C45.6535 36.4347 45.9428 36.3587 46.2279 36.2911C46.3938 36.2446 46.6363 36.1897 46.7555 36.2573C46.9001 36.3375 46.9767 36.6037 47.0193 36.7854C47.0533 36.9206 47.0873 37.0431 47.1086 37.1783C47.198 37.6388 46.9427 37.7275 46.547 37.8289C46.4023 37.8754 46.2619 37.9092 46.1087 37.9514C45.9556 37.9979 45.7981 38.0317 45.645 38.0655C45.1259 38.188 45.0493 38.0106 44.9302 37.5374L44.9089 37.4022H44.9046ZM44.9387 35.877C43.8026 36.1897 43.7388 36.4939 44.0239 37.6261C44.0664 37.8078 44.1132 37.9725 44.1686 38.1542C44.377 38.8386 44.8068 38.9611 45.4365 38.8386C45.6365 38.8048 45.8322 38.7584 46.0322 38.7034C46.1215 38.6823 46.2194 38.657 46.3087 38.6232L46.9597 38.4457C48.2276 38.0655 48.1936 37.6853 47.917 36.5826L47.883 36.4474C47.6192 35.4165 47.232 35.2602 46.2534 35.5179L45.5684 35.6954L44.9387 35.8728V35.877ZM40.3733 36.7389L39.4925 36.8614L39.901 39.8103L42.79 39.3963L42.6921 38.657L40.6839 38.9358L40.3733 36.7389ZM34.9612 38.6105C34.9527 38.4964 34.9527 38.3739 34.9612 38.2641C34.9952 37.85 35.3016 37.8627 35.5994 37.8373C35.8845 37.8247 36.1823 37.8162 36.4802 37.8036C36.6589 37.7909 36.9014 37.7909 37.0078 37.8838C37.1397 37.9979 37.1524 38.2767 37.1609 38.4542C37.1609 38.5894 37.1694 38.7246 37.1694 38.8598C37.1694 39.3329 36.8929 39.3667 36.4844 39.3752C36.3312 39.3879 36.1738 39.3963 36.0334 39.3963C35.8802 39.409 35.7143 39.409 35.5611 39.409C35.0293 39.4216 34.9867 39.2315 34.9782 38.7372L34.9569 38.6147L34.9612 38.6105ZM35.3143 37.1318C34.1443 37.1994 34.0124 37.4782 34.0677 38.6443C34.0762 38.8217 34.0762 39.0161 34.1017 39.1935C34.157 39.9117 34.5527 40.1145 35.2037 40.1356C35.4037 40.1356 35.6122 40.1483 35.8079 40.1356C35.8973 40.1356 35.9951 40.123 36.0845 40.123L36.7567 40.0765C38.0672 39.9751 38.1225 39.5949 38.08 38.4626L38.0714 38.319C38.0289 37.2543 37.6843 37.0177 36.6589 37.0642L35.9526 37.0853L35.3143 37.1318ZM32.536 37.1783L31.6978 37.1234L31.5446 39.3456L29.9363 36.9882L28.5237 36.8868L28.3237 39.8568L29.1619 39.9117L29.3151 37.681L30.9234 40.0342L32.336 40.1356L32.536 37.1741V37.1783ZM25.9198 37.605L23.937 37.2248L24.137 36.1601L23.2648 35.9911L22.7244 38.9189L23.5967 39.0879L23.8052 37.9683L25.7879 38.3486L25.5794 39.4597L26.4601 39.6287L27.0005 36.7009L26.1198 36.5319L25.9198 37.6092V37.605ZM20.4396 37.1022C20.3162 37.4825 20.1205 37.4487 19.8312 37.36C19.6865 37.3135 19.5461 37.2712 19.4014 37.2248L19.0696 37.1107C18.4739 36.8994 18.4867 36.7305 18.6739 36.1601C18.8398 35.6193 18.9164 35.4208 19.4695 35.5982L19.8993 35.7334L20.129 35.8137C20.2056 35.8348 20.295 35.8686 20.3588 35.8939C20.6013 35.9827 20.7332 36.0714 20.6438 36.3545L21.4693 36.6248C21.6139 36.1221 21.6692 35.67 21.1076 35.4123C20.7757 35.2687 20.4226 35.1419 20.0822 35.0321C19.8184 34.9434 19.5546 34.8546 19.2866 34.7955C18.3718 34.5716 18.108 34.9856 17.8442 35.8052C17.7761 36.008 17.7208 36.1981 17.6783 36.4094C17.457 37.3177 17.9974 37.5205 18.7037 37.7571L19.2227 37.9345C19.444 38.0021 19.6525 38.0697 19.8737 38.1373C20.6992 38.3739 20.9757 38.2936 21.231 37.5078C21.2438 37.4613 21.2523 37.4191 21.265 37.3853L20.4396 37.1065V37.1022ZM12.7895 35.1293L15.7125 36.5995L16.0104 35.9953L13.883 34.9307L14.117 34.4575L16.0997 35.4546L16.355 34.9265L14.3723 33.9294L14.5935 33.4689L16.7209 34.5336L17.0188 33.9294L14.0957 32.4592L12.7938 35.1293H12.7895ZM11.5343 31.6522L12.581 32.4507L13.0235 31.855L10.2239 29.7257L9.78137 30.3214L10.8281 31.1157L9.51758 32.8986L10.2324 33.4393L11.5343 31.6565V31.6522ZM49.5424 7.68497L50.0955 6.27388L51.5081 6.84423C52.0697 7.06815 51.9931 7.29206 51.8059 7.76524L51.7931 7.78636C51.6059 8.26799 51.4868 8.47078 50.9337 8.24687L49.5466 7.68497H49.5424ZM48.4616 8.02295L51.1634 9.1214C51.6357 9.31151 52.0782 9.22279 52.342 8.77496C52.4654 8.57217 52.5505 8.34826 52.6271 8.13702L52.6951 7.9807C53.0908 6.98365 52.9164 6.62454 51.9463 6.23164L49.5551 5.25571L48.4659 8.02718L48.4616 8.02295ZM43.9218 6.78931L47.0873 7.59625L47.2533 6.94563L44.9472 6.34993L45.0791 5.84718L47.2277 6.3964L47.3724 5.82606L45.2237 5.27683L45.3429 4.78253L47.649 5.37823L47.8149 4.71493L44.6493 3.908L43.9218 6.78931ZM42.8538 3.58269L41.9731 3.43482L41.5008 6.37105L42.3815 6.5147L42.8538 3.57846V3.58269ZM37.0673 5.85985L37.9481 5.94013L38.0587 4.74028L40.2627 4.94307L40.318 4.36005L38.114 4.15726L38.1565 3.65451L40.3605 3.8573L40.4286 3.18556L37.3439 2.90672L37.0673 5.8683V5.85985ZM35.5356 2.83067L34.6421 2.80955L34.5868 5.77958L35.4803 5.80071L35.5356 2.83067ZM31.8637 3.60381L33.1657 3.53621L33.1316 2.79688L29.6385 2.97432L29.6725 3.71366L30.983 3.64606L31.0936 5.87675L31.9871 5.83028L31.868 3.59959L31.8637 3.60381ZM25.4347 5.02757L25.3241 4.26288L26.7112 4.05164L26.7792 4.03897C26.8558 4.02629 26.9537 4.01784 27.0345 4.02629C27.209 4.04742 27.2345 4.16993 27.2558 4.3178C27.2983 4.64311 27.2771 4.73183 26.8686 4.79943L26.758 4.82055L25.4347 5.02334V5.02757ZM24.7838 6.63299L25.6645 6.4978L25.5539 5.74578L27.0218 5.52187C27.3877 5.46695 27.4302 5.61059 27.4728 5.9359L27.5153 6.21474L28.4088 6.07954L28.3195 5.51765C28.2514 5.11629 28.0216 5.03602 27.6472 5.04869C27.8217 4.95997 28.0216 4.8797 28.111 4.68958C28.1876 4.49947 28.1791 4.27555 28.145 4.06009C28.0344 3.35455 27.7153 3.17288 27.043 3.27428L24.354 3.70098L24.7838 6.62877V6.63299ZM20.2184 7.82016L23.3584 6.94563L23.184 6.29501L20.8906 6.93295L20.7587 6.42598L22.8989 5.83028L22.7457 5.25993L20.6183 5.84295L20.4864 5.34865L22.7797 4.71071L22.6053 4.06009L19.4653 4.93462L20.2269 7.81594L20.2184 7.82016ZM18.3888 7.22446C18.4016 7.25826 18.4228 7.30473 18.4441 7.34698C18.7632 8.11167 18.6101 8.34404 17.8272 8.72849C17.6187 8.82989 17.4187 8.91861 17.2102 9.00733L16.7039 9.21857C16.0104 9.51008 15.4785 9.71287 15.0616 8.88058C14.9637 8.69047 14.8744 8.5088 14.7978 8.31869C14.4659 7.5202 14.4021 7.03012 15.2403 6.59074C15.4828 6.45555 15.7466 6.34148 16.0019 6.24431C16.3337 6.10067 16.6741 5.9528 17.0273 5.84295C17.6102 5.66551 17.8527 6.03307 18.074 6.5147L17.2783 6.85268C17.1677 6.58229 17.0145 6.60764 16.772 6.70904C16.6954 6.74284 16.6188 6.77664 16.5422 6.79776L16.3125 6.89915L15.8827 7.0766C15.3551 7.31318 15.4317 7.51175 15.653 8.0314C15.8827 8.5933 15.9721 8.72427 16.5678 8.4919L16.8869 8.35671C17.0315 8.28911 17.1634 8.23419 17.3081 8.16659C17.5847 8.04407 17.7506 7.94268 17.5932 7.5709L18.3973 7.22446H18.3888Z" fill="#020203"/>
</svg>
