<?xml version="1.0" encoding="UTF-8"?>
<svg xmlns="http://www.w3.org/2000/svg" xmlns:xlink="http://www.w3.org/1999/xlink" id="circles" viewBox="0 0 526.85 526.85">
  <defs>
    <style>
      .cls-1 {
        fill: #446ead;
      }

      .cls-1, .cls-2, .cls-3, .cls-4, .cls-5, .cls-6 {
        stroke-width: 0px;
      }

      .cls-2 {
        fill: #5074b1;
      }

      .cls-7 {
        filter: url(#drop-shadow-1);
      }

      .cls-3 {
        fill: #90a2cd;
      }

      .cls-4 {
        fill: #fff;
      }

      .cls-5 {
        fill: #5c8727;
      }

      .cls-6 {
        fill: #00539b;
      }
    </style>
    <filter id="drop-shadow-1">
      <feOffset dx="5" dy="4"></feOffset>
      <feGaussianBlur result="blur" stdDeviation="10"></feGaussianBlur>
      <feFlood flood-color="#000" flood-opacity=".66"></feFlood>
      <feComposite in2="blur" operator="in"></feComposite>
      <feComposite in="SourceGraphic"></feComposite>
    </filter>
  </defs>
  <g class="cls-7">
    <path class="cls-5" d="M491.18,263.43c0,125.78-101.97,227.74-227.75,227.74S35.68,389.21,35.68,263.43,137.64,35.68,263.42,35.68s227.75,101.96,227.75,227.75Z"></path>
    <path class="cls-4" d="M435.07,261.28c0,95.98-77.8,173.78-173.78,173.78s-173.79-77.8-173.79-173.78,77.81-173.78,173.79-173.78,173.78,77.8,173.78,173.78Z"></path>
    <g>
      <path class="cls-4" d="M145.49,432.5l2.9-13.25,2.54,1.68-1.99,8.85,7.48-5.23,1.72,1.13-1.81,8.97,7.23-5.4,2.19,1.45-11.05,7.88-1.66-1.09,1.92-9.23-7.77,5.36-1.7-1.12Z"></path>
      <path class="cls-4" d="M164.78,444.46l1.42-13.49,2.71,1.39-1.01,9.02,6.86-6.03,1.83.94-.81,9.12,6.6-6.16,2.34,1.2-10.11,9.04-1.77-.91.89-9.38-7.13,6.19-1.81-.93Z"></path>
      <path class="cls-4" d="M185.28,454.22l-.08-13.57,2.84,1.08v9.08s6.15-6.75,6.15-6.75l1.93.73.21,9.15,5.87-6.85,2.45.93-9.05,10.11-1.86-.7-.16-9.42-6.4,6.94-1.9-.72Z"></path>
      <path class="cls-4" d="M207.41,457.82c.38.11.48.46.31,1.04l-.56,1.91c-.12.41-.25.64-.39.69-.14.05-.43.01-.85-.11l-2.09-.62c-.38-.11-.48-.46-.31-1.04l.56-1.91c.12-.41.25-.64.39-.69.14-.05.43-.01.85.11l2.09.62Z"></path>
      <path class="cls-4" d="M224.73,455.29l-7.76-1.72-1.74,7.83,7.76,1.72.59-2.66,2.74,1.24-.33,1.46c-.25,1.15-.64,1.88-1.16,2.18-.52.3-1.37.32-2.55.06l-7.37-1.64c-1.18-.26-1.94-.64-2.29-1.14-.34-.49-.39-1.32-.13-2.47l1.45-6.51c.26-1.15.64-1.88,1.16-2.18.52-.3,1.37-.32,2.55-.06l7.37,1.64c1.18.26,1.94.64,2.29,1.14.34.49.39,1.32.13,2.47l-.26,1.17-2.98-.18.52-2.35Z"></path>
      <path class="cls-4" d="M231.33,467.08l1.59-12.56,12.85,1.63-.27,2.14-9.93-1.26-.35,2.8,5.79.73-.27,2.14-5.79-.73-.39,3.12,10.05,1.27-.3,2.36-12.97-1.64Z"></path>
      <path class="cls-4" d="M249.78,469.14l.43-12.65,10.84.36c1.9.06,2.82.91,2.76,2.55l-.1,2.97c-.06,1.63-1.03,2.42-2.93,2.36l-1.67-.06,5.67,4.98-4.22-.14-4.94-4.95-2.79-.09-.16,4.78-2.89-.1ZM259.64,458.96l-6.62-.22-.12,3.56,6.62.22c.46.01.78-.02.96-.12.25-.14.38-.42.4-.85l.05-1.53c.01-.43-.1-.72-.34-.88-.18-.1-.49-.17-.95-.18Z"></path>
      <path class="cls-4" d="M274.8,458.76l.52,10.39-2.94.15-.52-10.39-5.81.29-.11-2.25,14.58-.73.11,2.25-5.83.29Z"></path>
      <path class="cls-4" d="M284.73,468.39l-1.38-12.58,2.92-.32,1.38,12.58-2.92.32Z"></path>
      <path class="cls-4" d="M294.03,467.3l-2.22-12.46,10.67-1.9c1.87-.33,2.95.31,3.23,1.92l.49,2.78c.29,1.61-.5,2.58-2.37,2.91l-7.83,1.4.86,4.85-2.85.51ZM301.56,455.3l-6.52,1.16.6,3.36,6.52-1.16c.45-.08.75-.19.91-.31.22-.19.28-.5.21-.92l-.24-1.35c-.08-.42-.25-.69-.52-.79-.19-.07-.52-.06-.97.02Z"></path>
      <path class="cls-4" d="M311.4,450.87l2.76,9.9,8.08-2.25-2.76-9.9,2.84-.79,2.59,9.31c.32,1.13.32,1.96,0,2.47-.32.51-1.06.93-2.22,1.26l-7.7,2.15c-1.17.32-2.02.35-2.55.07-.54-.27-.96-.98-1.28-2.11l-2.59-9.31,2.83-.79Z"></path>
      <path class="cls-4" d="M331.88,457.95l-4.58-11.8,10.1-3.93c1.77-.69,2.95-.27,3.54,1.26l1.07,2.77c.59,1.53,0,2.63-1.76,3.32l-1.55.6,7.17,2.34-3.93,1.53-6.49-2.61-2.61,1.01,1.73,4.46-2.7,1.05ZM336.95,444.71l-6.17,2.4,1.29,3.32,6.17-2.4c.43-.17.71-.33.84-.48.17-.23.18-.54.03-.94l-.55-1.43c-.16-.4-.37-.62-.66-.67-.2-.03-.52.04-.94.21Z"></path>
      <path class="cls-4" d="M350.35,446.1c.35-.17.66.02.92.57l.84,1.8c.18.38.23.64.16.78-.07.13-.31.29-.71.48l-1.98.93c-.35.17-.66-.02-.92-.57l-.84-1.8c-.18-.38-.23-.64-.16-.78.07-.13.31-.29.71-.48l1.98-.93Z"></path>
      <path class="cls-4" d="M353.79,434.51l5.01,8.98,7.33-4.08-5-8.98,2.57-1.43,4.7,8.44c.57,1.03.77,1.83.58,2.4-.19.57-.81,1.15-1.87,1.74l-6.98,3.89c-1.06.59-1.88.81-2.46.67-.58-.14-1.16-.73-1.74-1.76l-4.71-8.44,2.57-1.43Z"></path>
      <path class="cls-4" d="M378.42,421.73l-6.83,4.75,1.55,2.24,6.5-4.52c.99-.69,1.8-1,2.4-.92.6.08,1.24.6,1.91,1.57l.99,1.43c.67.97.94,1.75.8,2.34-.14.59-.7,1.23-1.7,1.92l-6.43,4.46c-.99.69-1.79,1-2.39.92-.6-.08-1.24-.6-1.91-1.57l-.2-.28,1.83-1.93.85,1.23,7.35-5.11-1.65-2.38-6.49,4.51c-.99.69-1.79.99-2.38.91-.6-.08-1.23-.61-1.9-1.58l-.8-1.15c-.67-.97-.94-1.74-.81-2.33.13-.59.69-1.23,1.68-1.92l5.9-4.1c.95-.66,1.73-.97,2.34-.91.61.06,1.21.52,1.82,1.39l.15.22-1.78,1.99-.83-1.19Z"></path>
    </g>
    <g>
      <path class="cls-4" d="M70.72,324.8l2.56,7.52,7.59-2.59-2.56-7.52-2.58.88-.37-2.98,1.42-.48c1.11-.38,1.94-.43,2.47-.14.53.29.99,1,1.38,2.15l2.44,7.15c.39,1.15.46,1.99.22,2.54-.24.55-.92,1.01-2.04,1.39l-6.32,2.15c-1.11.38-1.94.43-2.47.14-.53-.29-.99-1-1.38-2.15l-2.44-7.15c-.39-1.15-.46-1.99-.22-2.54.24-.55.92-1.02,2.04-1.39l1.14-.39,1.39,2.64-2.28.77Z"></path>
      <path class="cls-4" d="M68.74,315.82c-1.15.26-1.97.22-2.47-.12-.5-.34-.88-1.1-1.15-2.28l-2.06-9.09c-.27-1.18-.25-2.03.05-2.55.3-.52,1.03-.91,2.17-1.17l6.51-1.48c1.15-.26,1.97-.22,2.47.12s.88,1.1,1.15,2.28l2.06,9.09c.27,1.18.25,2.03-.05,2.55-.3.52-1.03.91-2.17,1.17l-6.51,1.48ZM75.19,311.34l-2.15-9.47-7.82,1.78,2.15,9.47,7.82-1.78Z"></path>
      <path class="cls-4" d="M73.79,292.91l-12.57,1.44-.23-2,6.39-9.7c.46-.69.86-1.23,1.2-1.59-1.16.22-1.88.34-2.15.37l-6.6.76-.3-2.63,12.57-1.44.23,2-6.71,10.13c-.28.43-.58.82-.9,1.17.8-.17,1.46-.29,1.98-.35l6.8-.78.3,2.63Z"></path>
      <path class="cls-4" d="M61.3,266.69l10.4-.24.07,2.94-10.4.24.13,5.81-2.26.05-.33-14.59,2.26-.05.13,5.84Z"></path>
      <path class="cls-4" d="M71.52,260.01l-12.19-7.93.18-2.84,13.08-6.46-.21,3.31-2.86,1.35-.5,8.01,2.68,1.64-.18,2.94ZM66.82,254.04l.34-5.53-5.31,2.4,4.97,3.13Z"></path>
      <path class="cls-4" d="M73.17,239.34l-12.55-1.67.39-2.92,12.55,1.67-.39,2.92Z"></path>
      <path class="cls-4" d="M74.32,230.64l-12.38-2.63.42-1.97,9.14-7.16c.66-.51,1.21-.89,1.64-1.13-1.17-.16-1.89-.28-2.16-.33l-6.5-1.38.55-2.59,12.38,2.63-.42,1.97-9.59,7.47c-.4.32-.81.59-1.23.82.82.09,1.48.19,1.99.3l6.69,1.42-.55,2.59Z"></path>
      <path class="cls-4" d="M72.42,196.79l-2.57,7.91,2.59.84,2.45-7.53c.38-1.15.83-1.88,1.35-2.18.53-.3,1.35-.27,2.47.09l1.66.54c1.12.36,1.8.82,2.05,1.38.25.55.19,1.41-.19,2.56l-2.42,7.44c-.37,1.15-.82,1.88-1.35,2.18-.53.3-1.35.27-2.47-.09l-.33-.11.29-2.64,1.42.46,2.77-8.52-2.75-.89-2.44,7.51c-.37,1.15-.82,1.87-1.35,2.17-.53.29-1.35.26-2.47-.11l-1.33-.43c-1.12-.36-1.81-.82-2.06-1.37-.25-.55-.19-1.39.18-2.54l2.22-6.83c.36-1.1.8-1.82,1.31-2.14.52-.32,1.28-.32,2.29.01l.26.08-.22,2.66-1.38-.45Z"></path>
      <path class="cls-4" d="M84.09,169.96l-3.54,7.12,7.18,3.57,3.54-7.12-2.44-1.21,1.86-2.36,1.34.67c1.05.52,1.67,1.08,1.84,1.65.17.58-.01,1.41-.55,2.49l-3.36,6.77c-.54,1.08-1.09,1.73-1.65,1.95-.56.21-1.37.06-2.43-.47l-5.97-2.97c-1.05-.52-1.67-1.07-1.84-1.65-.17-.58.01-1.41.55-2.49l3.36-6.77c.54-1.08,1.09-1.73,1.65-1.95.56-.21,1.37-.06,2.43.47l1.08.53-.89,2.84-2.15-1.07Z"></path>
      <path class="cls-4" d="M97.46,167.14l-10.74-6.7,6.86-10.99,1.83,1.14-5.3,8.49,2.39,1.49,3.09-4.95,1.83,1.14-3.09,4.95,2.66,1.66,5.36-8.59,2.02,1.26-6.92,11.09Z"></path>
      <path class="cls-4" d="M107.15,152.1l-10.04-7.7,6.6-8.6c1.15-1.5,2.38-1.76,3.68-.77l2.36,1.81c1.3.99,1.37,2.25.21,3.75l-1.01,1.32,7.35-1.72-2.57,3.35-6.9,1.14-1.7,2.22,3.8,2.91-1.76,2.3ZM104.61,138.16l-4.03,5.26,2.82,2.16,4.03-5.26c.28-.36.43-.65.46-.85.03-.29-.12-.56-.46-.82l-1.21-.93c-.34-.26-.64-.34-.91-.23-.19.08-.42.31-.7.67Z"></path>
      <path class="cls-4" d="M115.34,125.81l7.67,7.03-1.99,2.17-7.67-7.03-3.93,4.29-1.66-1.53,9.86-10.76,1.66,1.52-3.94,4.3Z"></path>
      <path class="cls-4" d="M129.14,126.54l-8.79-9.1,2.12-2.05,8.8,9.1-2.12,2.05Z"></path>
      <path class="cls-4" d="M135.56,120.45l-8.19-9.65,9.76-8.29,1.43,1.68-7.51,6.38,2.16,2.54,4.06-3.45,1.49,1.76-4.06,3.45,3.11,3.66-2.24,1.91Z"></path>
      <path class="cls-4" d="M147.81,110.43l-7.56-10.15,2.36-1.76,7.56,10.15-2.36,1.76Z"></path>
      <path class="cls-4" d="M154.89,105.22l-6.84-10.65,10.9-7,1.17,1.82-8.42,5.41,1.52,2.37,4.91-3.15,1.17,1.82-4.91,3.16,1.7,2.64,8.52-5.47,1.29,2-11,7.06Z"></path>
      <path class="cls-4" d="M170.09,95.74l-5.75-11.28,7.26-3.7c2.08-1.06,3.93-1.39,5.53-.98,1.6.41,2.86,1.5,3.76,3.26.57,1.12.84,2.27.8,3.45-.06,1.24-.48,2.33-1.26,3.26-.71.84-1.96,1.72-3.75,2.63l-6.58,3.35ZM171.63,92.28l3.39-1.73c1.73-.88,2.85-1.77,3.35-2.67.55-.98.48-2.14-.21-3.5-1.2-2.35-3.03-2.89-5.51-1.63l-4.65,2.37,3.64,7.15Z"></path>
      <path class="cls-4" d="M196.44,83.63l-4.11-11.97,12.11-4.16.72,2.09-9.33,3.2,1.08,3.16,5.03-1.73.75,2.18-5.03,1.73,1.56,4.55-2.78.96Z"></path>
      <path class="cls-4" d="M211.53,78.71l-3.09-12.27,2.85-.72,2.51,9.97,9.21-2.32.58,2.31-12.06,3.03Z"></path>
      <path class="cls-4" d="M227.23,74.99l-1.98-12.5,12.79-2.03.34,2.13-9.88,1.57.44,2.79,5.77-.91.34,2.13-5.77.91.49,3.1,10-1.59.37,2.35-12.91,2.05Z"></path>
      <path class="cls-4" d="M243.01,72.6l5.57-6.89-6.5-5.74,3.89-.26,4.32,4.02,3.56-4.54,3.38-.22-5.12,6.17,7.26,6.38-3.99.27-4.95-4.59-3.93,5.18-3.48.23Z"></path>
      <path class="cls-4" d="M261.95,71.65l.21-12.66,2.94.05-.21,12.66-2.94-.05Z"></path>
      <path class="cls-4" d="M270.78,71.71l.9-12.63,10.81.77c1.89.13,2.78,1.02,2.66,2.65l-.11,1.54c-.09,1.24-.86,1.9-2.33,1.97,1.5.3,2.2,1.16,2.1,2.58l-.12,1.61c-.12,1.65-1.42,2.38-3.89,2.21l-10.03-.72ZM280.76,66.91l-6.7-.48-.23,3.21,6.7.48c.49.03.84,0,1.04-.1.27-.14.42-.45.46-.93l.07-.95c.03-.47-.08-.8-.32-.98-.19-.13-.52-.21-1.02-.24ZM281.12,61.82l-6.7-.48-.21,3.01,6.7.48c.9.06,1.37-.21,1.41-.81l.09-1.2c.04-.6-.39-.94-1.28-1Z"></path>
      <path class="cls-4" d="M289.56,73.37l2.04-12.49,2.9.48-1.66,10.14,9.37,1.53-.39,2.35-12.27-2.01Z"></path>
      <path class="cls-4" d="M305.44,76.2l3.15-12.26,12.54,3.22-.54,2.09-9.69-2.49-.7,2.73,5.65,1.45-.54,2.09-5.66-1.45-.78,3.04,9.81,2.52-.59,2.31-12.66-3.25Z"></path>
      <path class="cls-4" d="M331.09,83.86l4.83-11.7,10.02,4.13c1.75.72,2.32,1.84,1.69,3.35l-1.08,2.61c-.62,1.51-1.81,1.9-3.57,1.18l-7.35-3.03-1.88,4.56-2.68-1.1ZM343.89,77.78l-6.12-2.53-1.3,3.15,6.12,2.53c.42.17.74.25.94.23.28-.04.51-.27.67-.67l.52-1.26c.16-.4.16-.71,0-.95-.13-.16-.4-.33-.83-.5Z"></path>
      <path class="cls-4" d="M351.63,82.14c.56-1.04,1.12-1.63,1.71-1.78.58-.15,1.41.06,2.47.63l8.21,4.41c1.07.57,1.7,1.14,1.89,1.71.2.57.02,1.37-.54,2.41l-3.15,5.88c-.56,1.04-1.13,1.63-1.71,1.78-.58.15-1.41-.06-2.47-.63l-8.22-4.41c-1.07-.57-1.7-1.14-1.89-1.71-.2-.57-.01-1.37.54-2.41l3.16-5.88ZM350.78,89.95l8.56,4.59,3.79-7.07-8.56-4.59-3.79,7.07Z"></path>
      <path class="cls-4" d="M365.52,101.01l7.03-10.53,2.45,1.63-5.71,8.55,7.89,5.27-1.32,1.98-10.34-6.91Z"></path>
      <path class="cls-4" d="M381.56,112.37l3.53-4.43-.79-9.56,3.07,2.44.37,6.5,6.44-1.08,2.71,2.15-9.43,1.34-3.57,4.49-2.32-1.85Z"></path>
      <path class="cls-4" d="M402.04,113.14l-7.12,7.41,6.05,5.81,7.12-7.41,2.12,2.04-6.7,6.97c-.82.85-1.53,1.27-2.13,1.26-.6-.01-1.34-.44-2.21-1.27l-5.77-5.54c-.87-.84-1.33-1.56-1.36-2.16-.04-.6.36-1.33,1.17-2.17l6.7-6.97,2.12,2.04Z"></path>
      <path class="cls-4" d="M405.41,134.38l9.65-8.19,7.02,8.27c1.23,1.45,1.22,2.7-.03,3.76l-2.26,1.92c-1.25,1.06-2.48.86-3.71-.58l-1.08-1.27.13,7.55-2.73-3.22.34-6.99-1.81-2.13-3.65,3.1-1.87-2.21ZM419.57,134.85l-4.28-5.05-2.71,2.3,4.29,5.05c.3.35.54.56.73.63.27.09.57,0,.9-.28l1.17-.99c.33-.28.47-.56.42-.84-.04-.2-.21-.48-.51-.83Z"></path>
      <path class="cls-4" d="M417.52,149.13l10.39-7.23,7.39,10.63-1.77,1.23-5.71-8.22-2.32,1.61,3.33,4.79-1.77,1.23-3.33-4.79-2.58,1.79,5.79,8.32-1.96,1.36-7.46-10.73Z"></path>
      <path class="cls-4" d="M439.44,163.93l-9.01,5.19-1.47-2.55,9.01-5.19-2.9-5.04,1.96-1.13,7.28,12.65-1.96,1.13-2.91-5.06Z"></path>
      <path class="cls-4" d="M434.73,176.85l11.51-5.27,1.22,2.68-4.46,2.04,3.83,8.36,4.46-2.04,1.24,2.7-11.51,5.27-1.24-2.7,4.95-2.27-3.83-8.36-4.95,2.27-1.23-2.68Z"></path>
      <path class="cls-4" d="M442.33,193.74l14.28,2.73.91,2.7-9.66,10.93-1.06-3.14,2.14-2.33-2.57-7.6-3.1-.51-.94-2.79ZM448.93,197.48l1.78,5.25,4.01-4.23-5.78-1.02Z"></path>
      <path class="cls-4" d="M448.74,213.44l12.34-2.81.45,1.96-5.29,10.34c-.39.74-.73,1.31-1.02,1.72,1.13-.34,1.83-.54,2.1-.6l6.48-1.47.59,2.58-12.34,2.81-.44-1.96,5.57-10.8c.23-.46.49-.87.77-1.26-.78.26-1.42.45-1.93.57l-6.67,1.52-.59-2.58Z"></path>
      <path class="cls-4" d="M452.99,233.78l12.56-1.55,1.58,12.85-2.14.26-1.22-9.93-2.8.34.71,5.79-2.14.26-.71-5.79-3.12.38,1.24,10.05-2.36.29-1.6-12.98Z"></path>
      <path class="cls-4" d="M455.24,260.45l12.65.21-.21,12.8-2.21-.04.16-9.86-3.34-.05-.09,5.32-2.31-.04.09-5.32-4.81-.08.05-2.94Z"></path>
      <path class="cls-4" d="M464.53,277.04c1.17.12,1.94.43,2.3.91.36.48.48,1.32.35,2.53l-.98,9.27c-.13,1.2-.42,2-.87,2.4-.45.4-1.26.53-2.43.41l-6.64-.7c-1.17-.12-1.94-.43-2.3-.91-.36-.48-.48-1.32-.35-2.53l.98-9.27c.13-1.2.42-2,.87-2.4.45-.4,1.27-.53,2.44-.41l6.63.7ZM456.98,279.21l-1.02,9.66,7.98.84,1.02-9.66-7.98-.84Z"></path>
      <path class="cls-4" d="M452.84,294.67l10.91,9.62-.59,2.78-13.88,4.5.68-3.24,3.03-.92,1.65-7.85-2.41-2.01.61-2.88ZM456.62,301.25l-1.14,5.42,5.6-1.6-4.46-3.82Z"></path>
      <path class="cls-4" d="M448.37,314.88l12.04,3.9-.73,2.26-9.12,3.31,5.48,7.91-.73,2.24-12.04-3.9.84-2.59,7.44,2.41c.3.1.71.27,1.25.51-.51-.49-.85-.86-1.03-1.11l-4.55-6.48.18-.56,7.51-2.57c.54-.19,1.03-.29,1.47-.32-.5-.11-.93-.22-1.3-.35l-7.44-2.41.73-2.26Z"></path>
    </g>
    <path class="cls-6" d="M318.21,183.22c10.84,1.07,21.64,4.13,32.06,9.05,46.18,21.84,66.18,74.43,44.61,117.36-21.66,43.01-76.55,60.15-122.7,38.23-24.18-11.41-41.11-31.18-48.74-53.63l-1.61-.4c3.42,31.78,22.4,60.75,53.22,75.3,48.36,22.89,107.38,1.89,131.94-47.01,24.54-48.86,5.18-106.95-43.09-129.87-14.69-6.98-30.31-9.82-45.59-9.17l-.1.12Z"></path>
    <path class="cls-3" d="M323.18,185.87c9.13.95,18.32,3.43,27.08,7.65,39.22,18.48,56.08,63.05,37.85,99.51-18.39,36.44-64.87,50.93-104.07,32.39-20.44-9.76-34.76-26.44-41.27-45.38l-1.35-.39c2.82,26.94,18.97,51.41,45.1,63.8,40.99,19.43,91.03,1.6,111.86-39.82,20.78-41.37,4.38-90.66-36.58-110.1-12.37-5.85-25.65-8.29-38.64-7.77v.12Z"></path>
    <path class="cls-1" d="M255.71,191.93c55.94-21.95,121.25-1.19,150.04,49.59,29.97,52.74,9.26,118.35-46.09,148.28l7.2-3.55c58-28.99,80.27-96.3,49.7-150.11-30.6-53.92-102.47-74.11-160.48-45.01l-.37.79Z"></path>
    <g>
      <path class="cls-2" d="M119.84,275.68c-1.31.62-3.86,1.1-6.96,1.1-11.92,0-17.57-9.71-17.57-22.94,0-17.5,9.72-24.32,18.74-24.32,3.17,0,5.37.62,6.27,1.24l-1.52,7.58c-1.03-.48-2.2-.9-4.2-.9-5.1,0-9.72,4.41-9.72,15.92s4.2,15.43,9.72,15.43c1.52,0,3.24-.34,4.34-.69l.9,7.58Z"></path>
      <path class="cls-2" d="M130.18,262.72c.07,5.24,3.17,7.17,7.1,7.17,2.55,0,4.75-.55,6.41-1.1l1.17,6.48c-2.27.9-5.79,1.52-9.16,1.52-9.23,0-14.26-6.06-14.26-16.6,0-11.37,5.93-18.12,13.5-18.12s11.44,5.72,11.44,15.99c0,2.41-.14,3.72-.28,4.69h-15.92ZM138.18,256.38c0-4.34-1.1-7.72-3.79-7.72-2.89,0-4.13,4.34-4.2,7.72h7.99Z"></path>
      <path class="cls-2" d="M150.79,252.8c0-3.31-.14-6.96-.28-10.13h7.79l.48,4.89h.27c1.45-3.58,4.2-5.51,6.61-5.51.96,0,1.45.07,1.93.21v8.89c-.55-.07-1.17-.07-1.93-.07-1.93,0-4.48,1.31-5.44,4.75-.27.76-.41,2-.41,3.38v17.16h-9.03v-23.57Z"></path>
      <path class="cls-2" d="M182.9,233.92v8.75h6.61v6.41h-6.61v15.37c0,3.93,1.65,4.89,3.38,4.89.9,0,1.58-.07,2.41-.21l.07,7.03c-1.24.34-3.17.62-5.51.62-2.62,0-4.89-.62-6.55-2.14-1.79-1.79-2.83-4.34-2.83-9.65v-15.92h-4v-6.41h4v-5.93l9.03-2.82Z"></path>
      <path class="cls-2" d="M202.4,233.78c.07,2.89-2,4.89-4.75,4.89-2.48,0-4.55-2-4.48-4.89-.07-3.03,2.14-4.96,4.62-4.96,2.62,0,4.62,1.93,4.62,4.96ZM193.38,276.36v-33.69h9.03v33.69h-9.03Z"></path>
      <path class="cls-5" d="M208.54,230.61c2.55-.55,5.99-.9,9.44-.9,5.37,0,9.65.76,12.61,3.58,2.76,2.41,4,6.27,4,10.2,0,5.03-1.52,8.61-3.93,11.16-2.89,3.1-7.51,4.48-11.3,4.48-.62,0-1.17,0-1.79-.07v17.29h-9.03v-45.75ZM217.56,251.77c.48.07.96.07,1.52.07,4.55,0,6.55-3.24,6.55-7.58,0-4.07-1.65-7.24-5.86-7.24-.83,0-1.65.14-2.2.34v14.4Z"></path>
      <path class="cls-5" d="M247.2,229.92v30.18c0,6.82,2,8.89,4.41,8.89,2.62,0,4.48-1.86,4.48-8.89v-30.18h9.03v28.6c0,11.92-4.55,18.4-13.44,18.4-9.72,0-13.51-6.68-13.51-18.33v-28.66h9.03Z"></path>
      <path class="cls-5" d="M271.32,230.61c2.83-.55,6.41-.9,9.85-.9,4.96,0,9.44.76,12.4,3.44,2.82,2.55,3.72,5.65,3.72,9.65,0,4.96-2.48,9.44-7.17,11.58v.14c3.17,1.31,4.75,4.2,5.65,9.23.9,5.17,2.14,10.89,2.96,12.61h-9.44c-.62-1.31-1.65-5.99-2.34-11.16-.83-5.72-2.27-7.37-5.24-7.37h-1.38v18.53h-9.03v-45.75ZM280.35,250.87h1.65c3.93,0,6.13-3.17,6.13-7.24s-1.59-6.75-5.58-6.89c-.83,0-1.72.07-2.2.28v13.85Z"></path>
      <path class="cls-5" d="M313.29,254.11v6.48h-13.71v-6.48h13.71Z"></path>
      <path class="cls-5" d="M326.52,229.92v30.18c0,6.82,2,8.89,4.41,8.89,2.62,0,4.48-1.86,4.48-8.89v-30.18h9.03v28.6c0,11.92-4.55,18.4-13.43,18.4-9.72,0-13.51-6.68-13.51-18.33v-28.66h9.03Z"></path>
      <path class="cls-5" d="M349.61,267.13c1.86,1.03,5.1,1.79,7.65,1.79,4.2,0,6.34-2.2,6.34-5.24,0-3.38-2.07-5.03-6-7.58-6.34-3.86-8.75-8.75-8.75-12.95,0-7.44,4.96-13.64,14.61-13.64,3.1,0,5.99.83,7.3,1.65l-1.45,7.79c-1.31-.83-3.31-1.58-5.86-1.58-3.86,0-5.72,2.34-5.72,4.82,0,2.76,1.38,4.2,6.34,7.23,6.2,3.72,8.41,8.41,8.41,13.3,0,8.48-6.27,14.06-15.3,14.06-3.72,0-7.3-.96-8.89-1.86l1.31-7.79Z"></path>
      <path class="cls-5" d="M385.19,235.71c0,3.33-2.62,6.02-5.95,6.02s-6.02-2.69-6.02-6.02,2.65-6.02,6.06-6.02,5.91,2.69,5.91,6.02ZM374.98,235.75c0,2.5,1.8,4.49,4.23,4.49,2.43.04,4.23-1.98,4.23-4.49s-1.8-4.56-4.26-4.56-4.19,2.02-4.19,4.56ZM378.46,238.55h-1.53v-5.5c.37-.07,1.16-.22,2.24-.22s1.64.19,2.06.45c.34.22.56.64.56,1.2s-.49,1.08-1.23,1.27v.07c.6.19.94.64,1.12,1.42.15.78.26,1.12.34,1.31h-1.68c-.19-.22-.26-.67-.41-1.16-.07-.56-.37-.82-.9-.82h-.56v1.98ZM378.53,235.41h.49c.6,0,1.01-.26,1.01-.67,0-.49-.34-.71-.94-.71-.22,0-.45.04-.56.04v1.35Z"></path>
    </g>
  </g>
</svg>
