<?xml version="1.0" encoding="utf-8"?>
<!-- Generator: Adobe Illustrator 16.0.0, SVG Export Plug-In . SVG Version: 6.00 Build 0)  -->
<!DOCTYPE svg PUBLIC "-//W3C//DTD SVG 1.1//EN" "http://www.w3.org/Graphics/SVG/1.1/DTD/svg11.dtd">
<svg version="1.1" id="Livello_1" xmlns="http://www.w3.org/2000/svg" xmlns:xlink="http://www.w3.org/1999/xlink" x="0px" y="0px"
	 width="73px" height="72px" viewBox="0 -11 73 72" enable-background="new 0 -11 73 72" xml:space="preserve">
<path id="Fill-1" fill="#C9D2D4" d="M70.754,18.914l-17.368,8.684c-0.325-0.512-0.786-0.936-1.349-1.215L25.702,13.216l-4.984-2.492
	c-0.345-0.173-0.711-0.284-1.085-0.333c0.328-0.583,0.825-1.066,1.445-1.377L35.028,2.04c0.962-0.482,2.097-0.482,3.059,0
	l31.319,15.658C69.969,17.978,70.43,18.402,70.754,18.914"/>
<path id="Stroke-3" fill="none" stroke="#034865" stroke-width="2.008" d="M70.754,18.914l-17.368,8.684
	c-0.325-0.512-0.786-0.936-1.349-1.215L25.702,13.216l-4.984-2.492c-0.345-0.173-0.711-0.284-1.085-0.333
	c0.328-0.583,0.825-1.066,1.445-1.377L35.028,2.04c0.962-0.482,2.097-0.482,3.059,0l31.319,15.658
	C69.969,17.978,70.43,18.402,70.754,18.914z"/>
<path id="Fill-5" fill="#FEFEFE" d="M53.926,29.441v2.287c0,0.6-0.158,1.18-0.443,1.681c-0.084,0.152-0.181,0.297-0.287,0.433
	c-0.307,0.391-0.697,0.716-1.158,0.945l-4.624,2.311l-9.326,4.663c-0.962,0.482-2.096,0.482-3.059,0L3.709,26.103
	c-0.46-0.229-0.852-0.555-1.158-0.946c-0.466-0.591-0.731-1.332-0.731-2.113v-2.287c0-0.666,0.193-1.305,0.541-1.843L8.333,21.9
	l26.695,13.348c0.962,0.482,2.097,0.482,3.059,0l2.813-1.406l12.485-6.244C53.733,28.137,53.926,28.775,53.926,29.441"/>
<path id="Fill-5-Copy" fill="#C9D2D4" d="M53.926,35.955v2.286c0,0.601-0.158,1.18-0.443,1.682
	c-0.084,0.151-0.181,0.296-0.287,0.432c-0.307,0.391-0.697,0.717-1.158,0.945l-4.624,2.312l-9.326,4.662
	c-0.962,0.482-2.096,0.482-3.059,0L3.709,32.615c-0.46-0.229-0.852-0.555-1.158-0.945c-0.466-0.591-0.731-1.332-0.731-2.113V27.27
	c0-0.665,0.193-1.305,0.541-1.843l5.973,2.987l26.695,13.347c0.962,0.482,2.097,0.482,3.059,0l2.813-1.406l12.485-6.243
	C53.733,34.649,53.926,35.289,53.926,35.955"/>
<path id="Stroke-7" fill="none" stroke="#034865" stroke-width="2.008" d="M53.926,29.441v2.287c0,0.6-0.158,1.18-0.443,1.681
	c-0.084,0.152-0.181,0.297-0.287,0.433c-0.307,0.391-0.697,0.716-1.158,0.945l-4.624,2.311l-9.326,4.663
	c-0.962,0.482-2.096,0.482-3.059,0L3.709,26.103c-0.46-0.229-0.852-0.555-1.158-0.946c-0.466-0.591-0.731-1.332-0.731-2.113v-2.287
	c0-0.666,0.193-1.305,0.541-1.843L8.333,21.9l26.695,13.348c0.962,0.482,2.097,0.482,3.059,0l2.813-1.406l12.485-6.244
	C53.733,28.137,53.926,28.775,53.926,29.441z"/>
<path id="Fill-9" fill="#FEFEFE" d="M53.386,27.598L40.9,33.842l-2.813,1.406c-0.962,0.482-2.096,0.482-3.059,0L8.333,21.9
	l-5.973-2.986c0.325-0.512,0.787-0.936,1.348-1.216l13.951-6.974c0.618-0.309,1.308-0.42,1.973-0.333
	c0.374,0.048,0.741,0.159,1.085,0.333l4.984,2.492l26.335,13.167C52.6,26.662,53.061,27.086,53.386,27.598"/>
<path id="Stroke-11" fill="none" stroke="#034865" stroke-width="2.008" d="M53.386,27.598L40.9,33.842l-2.813,1.406
	c-0.962,0.482-2.096,0.482-3.059,0L8.333,21.9l-5.973-2.986c0.325-0.512,0.787-0.936,1.348-1.216l13.951-6.974
	c0.618-0.309,1.308-0.42,1.973-0.333c0.374,0.048,0.741,0.159,1.085,0.333l4.984,2.492l26.335,13.167
	C52.6,26.662,53.061,27.086,53.386,27.598z"/>
<path id="Fill-13" fill="#C9D2D4" d="M71.295,20.757v2.287c0,0.782-0.266,1.522-0.73,2.113c-0.307,0.39-0.697,0.716-1.158,0.946
	l-13.951,6.974c-0.617,0.309-1.307,0.42-1.973,0.333c0.285-0.501,0.443-1.081,0.443-1.681v-2.287c0-0.666-0.192-1.305-0.54-1.844
	l17.368-8.684C71.102,19.452,71.295,20.091,71.295,20.757"/>
<path id="Fill-13-Copy" fill="#FFFFFF" d="M71.295,27.27v2.287c0,0.781-0.266,1.522-0.73,2.113
	c-0.307,0.391-0.697,0.717-1.158,0.945L55.455,39.59c-0.617,0.309-1.307,0.42-1.973,0.332c0.285-0.501,0.443-1.08,0.443-1.681
	v-2.287c0-0.665-0.192-1.305-0.54-1.843l17.368-8.684C71.102,25.965,71.295,26.604,71.295,27.27"/>
<path id="Stroke-15" fill="none" stroke="#034865" stroke-width="2.008" d="M71.295,20.757v2.287c0,0.782-0.266,1.522-0.73,2.113
	c-0.307,0.39-0.697,0.716-1.158,0.946l-13.951,6.974c-0.617,0.309-1.307,0.42-1.973,0.333c0.285-0.501,0.443-1.081,0.443-1.681
	v-2.287c0-0.666-0.192-1.305-0.54-1.844l17.368-8.684C71.102,19.452,71.295,20.091,71.295,20.757z"/>
<path id="Stroke-17" fill="none" stroke="#034865" stroke-width="2.008" d="M71.295,27.27v2.287c0,1.295-0.73,2.48-1.889,3.059
	L55.455,39.59c-0.617,0.309-1.307,0.42-1.973,0.332c0.285-0.501,0.443-1.08,0.443-1.681v-2.287c0-0.781-0.265-1.522-0.73-2.113
	c0.105-0.135,0.203-0.279,0.287-0.432c0.666,0.087,1.355-0.024,1.973-0.333l13.951-6.974c0.461-0.229,0.852-0.556,1.158-0.946
	C71.029,25.748,71.295,26.488,71.295,27.27z"/>
<path id="Stroke-19" fill="none" stroke="#034865" stroke-width="2.008" d="M53.926,35.954v2.287c0,0.601-0.158,1.18-0.443,1.682
	c-0.328,0.583-0.824,1.065-1.445,1.378l-13.95,6.973c-0.962,0.482-2.096,0.482-3.059,0L3.709,32.615
	c-1.158-0.578-1.889-1.764-1.889-3.059V27.27c0-0.781,0.265-1.521,0.731-2.113c0.306,0.391,0.697,0.716,1.158,0.946l31.319,15.658
	c0.962,0.482,2.097,0.482,3.059,0l9.326-4.663l4.624-2.311c0.461-0.229,0.852-0.555,1.158-0.946
	C53.661,34.432,53.926,35.173,53.926,35.954z"/>
</svg>
